Montserrat Test-Bold.ufo
<glyph name="exclam" format="1">
  <advance width="294"/>
  <unicode hex="0021"/>
  <outline>
    <contour>
      <point x="214" y="258" type="line"/>
      <point x="254" y="517" type="line"/>
      <point x="254" y="701" type="line"/>
      <point x="40" y="701" type="line"/>
      <point x="40" y="517" type="line"/>
      <point x="80" y="258" type="line"/>
    </contour>
    <component base="period" xOffset="10"/>
  </outline>
</glyph>
<glyph name="numbersign" format="1">
  <advance width="740"/>
  <unicode hex="0023"/>
  <outline>
    <contour>
      <point x="536" y="0" type="line"/>
      <point x="623" y="700" type="line"/>
      <point x="463" y="700" type="line"/>
      <point x="376" y="0" type="line"/>
    </contour>
    <contour>
      <point x="693" y="137" type="line"/>
      <point x="693" y="287" type="line"/>
      <point x="13" y="287" type="line"/>
      <point x="13" y="137" type="line"/>
    </contour>
    <contour>
      <point x="277" y="0" type="line"/>
      <point x="364" y="700" type="line"/>
      <point x="204" y="700" type="line"/>
      <point x="117" y="0" type="line"/>
    </contour>
    <contour>
      <point x="727" y="413" type="line"/>
      <point x="727" y="563" type="line"/>
      <point x="47" y="563" type="line"/>
      <point x="47" y="413" type="line"/>
    </contour>
  </outline>
</glyph>
<glyph name="dollar" format="1">
  <advance width="664"/>
  <unicode hex="0024"/>
  <outline>
    <contour>
      <point x="429" y="579" type="line"/>
      <point x="429" y="864" type="line"/>
      <point x="263" y="864" type="line"/>
      <point x="263" y="579" type="line"/>
    </contour>
    <contour>
      <point x="429" y="-165" type="line"/>
      <point x="429" y="118" type="line"/>
      <point x="263" y="118" type="line"/>
      <point x="263" y="-165" type="line"/>
    </contour>
    <component base="S"/>
  </outline>
</glyph>
<glyph name="quotesingle" format="1">
  <advance width="288"/>
  <unicode hex="0027"/>
  <outline>
    <contour>
      <point x="228" y="399" type="line"/>
      <point x="228" y="701" type="line"/>
      <point x="60" y="701" type="line"/>
      <point x="60" y="399" type="line"/>
    </contour>
  </outline>
</glyph>
<glyph name="parenright" format="1">
  <advance width="381"/>
  <unicode hex="0029"/>
  <outline>
    <contour>
      <point x="287" y="-74"/>
      <point x="334" y="91"/>
      <point x="334" y="274" type="curve" smooth="yes"/>
      <point x="334" y="457"/>
      <point x="287" y="622"/>
      <point x="201" y="742" type="curve"/>
      <point x="-15" y="742" type="line"/>
      <point x="75" y="582"/>
      <point x="113" y="435"/>
      <point x="113" y="274" type="curve" smooth="yes"/>
      <point x="113" y="113"/>
      <point x="75" y="-34"/>
      <point x="-15" y="-194" type="curve"/>
      <point x="201" y="-194" type="line"/>
    </contour>
  </outline>
</glyph>
<glyph name="plus" format="1">
  <advance width="520"/>
  <unicode hex="002B"/>
  <outline>
    <contour>
      <point x="330" y="99" type="line"/>
      <point x="330" y="559" type="line"/>
      <point x="190" y="559" type="line"/>
      <point x="190" y="99" type="line"/>
    </contour>
    <contour>
      <point x="490" y="259" type="line"/>
      <point x="490" y="399" type="line"/>
      <point x="30" y="399" type="line"/>
      <point x="30" y="259" type="line"/>
    </contour>
  </outline>
</glyph>
<glyph name="comma" format="1">
  <advance width="310"/>
  <unicode hex="002C"/>
  <outline>
    <contour>
      <point x="178" y="-160" type="line"/>
      <point x="248" y="-11" type="line" smooth="yes"/>
      <point x="283" y="64"/>
      <point x="287" y="88"/>
      <point x="287" y="121" type="curve" smooth="yes"/>
      <point x="287" y="200"/>
      <point x="233" y="250"/>
      <point x="155" y="250" type="curve" smooth="yes"/>
      <point x="77" y="250"/>
      <point x="23" y="200"/>
      <point x="23" y="121" type="curve" smooth="yes"/>
      <point x="23" y="42"/>
      <point x="77" y="-5"/>
      <point x="155" y="-5" type="curve"/>
      <point x="122" y="121" type="line"/>
      <point x="38" y="-160" type="line"/>
    </contour>
  </outline>
</glyph>
<glyph name="hyphen" format="1">
  <advance width="380"/>
  <unicode hex="002D"/>
  <outline>
    <contour>
      <point x="330" y="239" type="line"/>
      <point x="330" y="379" type="line"/>
      <point x="50" y="379" type="line"/>
      <point x="50" y="239" type="line"/>
    </contour>
  </outline>
</glyph>
<glyph name="period" format="1">
  <advance width="310"/>
  <unicode hex="002E"/>
  <outline>
    <contour>
      <point x="233" y="-10"/>
      <point x="287" y="42"/>
      <point x="287" y="121" type="curve" smooth="yes"/>
      <point x="287" y="200"/>
      <point x="233" y="250"/>
      <point x="155" y="250" type="curve" smooth="yes"/>
      <point x="77" y="250"/>
      <point x="23" y="200"/>
      <point x="23" y="121" type="curve" smooth="yes"/>
      <point x="23" y="42"/>
      <point x="77" y="-10"/>
      <point x="155" y="-10" type="curve" smooth="yes"/>
    </contour>
  </outline>
</glyph>
<glyph name="slash" format="1">
  <advance width="373"/>
  <unicode hex="002F"/>
  <outline>
    <contour>
      <point x="138" y="-104" type="line"/>
      <point x="467" y="806" type="line"/>
      <point x="279" y="806" type="line"/>
      <point x="-50" y="-104" type="line"/>
    </contour>
  </outline>
</glyph>
<glyph name="zero" format="1">
  <advance width="708"/>
  <unicode hex="0030"/>
  <outline>
    <contour>
      <point x="542" y="-16"/>
      <point x="674" y="118"/>
      <point x="674" y="350" type="curve" smooth="yes"/>
      <point x="674" y="582"/>
      <point x="542" y="716"/>
      <point x="354" y="716" type="curve" smooth="yes"/>
      <point x="166" y="716"/>
      <point x="34" y="582"/>
      <point x="34" y="350" type="curve" smooth="yes"/>
      <point x="34" y="118"/>
      <point x="166" y="-16"/>
      <point x="354" y="-16" type="curve" smooth="yes"/>
    </contour>
    <contour>
      <point x="306" y="173"/>
      <point x="267" y="215"/>
      <point x="267" y="350" type="curve" smooth="yes"/>
      <point x="267" y="485"/>
      <point x="306" y="527"/>
      <point x="354" y="527" type="curve" smooth="yes"/>
      <point x="402" y="527"/>
      <point x="441" y="485"/>
      <point x="441" y="350" type="curve" smooth="yes"/>
      <point x="441" y="215"/>
      <point x="402" y="173"/>
      <point x="354" y="173" type="curve" smooth="yes"/>
    </contour>
  </outline>
</glyph>
<glyph name="one" format="1">
  <advance width="413"/>
  <unicode hex="0031"/>
  <outline>
    <contour>
      <point x="356" y="0" type="line"/>
      <point x="356" y="700" type="line"/>
      <point x="0" y="700" type="line"/>
      <point x="0" y="522" type="line"/>
      <point x="221" y="522" type="line"/>
      <point x="120" y="618" type="line"/>
      <point x="120" y="0" type="line"/>
    </contour>
  </outline>
</glyph>
<glyph name="two" format="1">
  <advance width="630"/>
  <unicode hex="0032"/>
  <outline>
    <contour>
      <point x="605" y="0" type="line"/>
      <point x="605" y="183" type="line"/>
      <point x="234" y="183" type="line"/>
      <point x="266" y="101" type="line"/>
      <point x="452" y="274" type="line" smooth="yes"/>
      <point x="554" y="368"/>
      <point x="580" y="428"/>
      <point x="580" y="496" type="curve" smooth="yes"/>
      <point x="580" y="630"/>
      <point x="464" y="716"/>
      <point x="296" y="716" type="curve" smooth="yes"/>
      <point x="146" y="716"/>
      <point x="40" y="657"/>
      <point x="-5" y="554" type="curve"/>
      <point x="165" y="465" type="line"/>
      <point x="187" y="506"/>
      <point x="222" y="530"/>
      <point x="276" y="530" type="curve" smooth="yes"/>
      <point x="325" y="530"/>
      <point x="347" y="505"/>
      <point x="347" y="479" type="curve" smooth="yes"/>
      <point x="347" y="453"/>
      <point x="337" y="425"/>
      <point x="287" y="379" type="curve" smooth="yes"/>
      <point x="36" y="145" type="line"/>
      <point x="36" y="0" type="line"/>
    </contour>
  </outline>
</glyph>
<glyph name="three" format="1">
  <advance width="630"/>
  <unicode hex="0033"/>
  <outline>
    <contour>
      <point x="526" y="-16"/>
      <point x="621" y="104"/>
      <point x="621" y="221" type="curve" smooth="yes"/>
      <point x="621" y="342"/>
      <point x="528" y="429"/>
      <point x="354" y="429" type="curve" smooth="yes"/>
      <point x="293" y="429" type="line"/>
      <point x="384" y="365" type="line"/>
      <point x="583" y="555" type="line"/>
      <point x="583" y="700" type="line"/>
      <point x="19" y="700" type="line"/>
      <point x="19" y="522" type="line"/>
      <point x="410" y="522" type="line"/>
      <point x="387" y="601" type="line"/>
      <point x="196" y="411" type="line"/>
      <point x="196" y="266" type="line"/>
      <point x="288" y="266" type="line" smooth="yes"/>
      <point x="366" y="266"/>
      <point x="388" y="248"/>
      <point x="388" y="221" type="curve" smooth="yes"/>
      <point x="388" y="188"/>
      <point x="356" y="170"/>
      <point x="293" y="170" type="curve" smooth="yes"/>
      <point x="222" y="170"/>
      <point x="140" y="192"/>
      <point x="74" y="231" type="curve"/>
      <point x="-2" y="57" type="line"/>
      <point x="68" y="12"/>
      <point x="184" y="-16"/>
      <point x="297" y="-16" type="curve" smooth="yes"/>
    </contour>
  </outline>
</glyph>
<glyph name="four" format="1">
  <advance width="717"/>
  <unicode hex="0034"/>
  <outline>
    <contour>
      <point x="696" y="120" type="line"/>
      <point x="696" y="303" type="line"/>
      <point x="159" y="303" type="line"/>
      <point x="265" y="270" type="line"/>
      <point x="545" y="700" type="line"/>
      <point x="303" y="700" type="line"/>
      <point x="16" y="270" type="line"/>
      <point x="16" y="120" type="line"/>
    </contour>
    <contour>
      <point x="603" y="0" type="line"/>
      <point x="603" y="410" type="line"/>
      <point x="386" y="410" type="line"/>
      <point x="386" y="303" type="line"/>
      <point x="379" y="120" type="line"/>
      <point x="379" y="0" type="line"/>
    </contour>
  </outline>
</glyph>
<glyph name="five" format="1">
  <advance width="630"/>
  <unicode hex="0035"/>
  <outline>
    <contour>
      <point x="484" y="-16"/>
      <point x="609" y="77"/>
      <point x="609" y="228" type="curve" smooth="yes"/>
      <point x="609" y="366"/>
      <point x="505" y="437"/>
      <point x="341" y="445" type="curve" smooth="yes"/>
      <point x="139" y="455" type="line"/>
      <point x="262" y="352" type="line"/>
      <point x="287" y="623" type="line"/>
      <point x="160" y="522" type="line"/>
      <point x="558" y="522" type="line"/>
      <point x="558" y="700" type="line"/>
      <point x="82" y="700" type="line"/>
      <point x="43" y="274" type="line"/>
      <point x="260" y="266" type="line" smooth="yes"/>
      <point x="348" y="263"/>
      <point x="376" y="250"/>
      <point x="376" y="218" type="curve" smooth="yes"/>
      <point x="376" y="185"/>
      <point x="350" y="167"/>
      <point x="281" y="167" type="curve" smooth="yes"/>
      <point x="216" y="167"/>
      <point x="138" y="187"/>
      <point x="72" y="221" type="curve"/>
      <point x="-4" y="47" type="line"/>
      <point x="66" y="8"/>
      <point x="182" y="-16"/>
      <point x="290" y="-16" type="curve" smooth="yes"/>
    </contour>
  </outline>
</glyph>
<glyph name="six" format="1">
  <advance width="691"/>
  <unicode hex="0036"/>
  <outline>
    <contour>
      <point x="532" y="-16"/>
      <point x="656" y="81"/>
      <point x="656" y="234" type="curve" smooth="yes"/>
      <point x="656" y="374"/>
      <point x="546" y="463"/>
      <point x="414" y="463" type="curve" smooth="yes"/>
      <point x="313" y="463"/>
      <point x="252" y="424"/>
      <point x="213" y="355" type="curve"/>
      <point x="267" y="308" type="line"/>
      <point x="267" y="328"/>
      <point x="267" y="347"/>
      <point x="267" y="367" type="curve" smooth="yes"/>
      <point x="267" y="482"/>
      <point x="330" y="538"/>
      <point x="428" y="538" type="curve" smooth="yes"/>
      <point x="477" y="538"/>
      <point x="519" y="528"/>
      <point x="560" y="496" type="curve"/>
      <point x="641" y="661" type="line"/>
      <point x="589" y="696"/>
      <point x="509" y="716"/>
      <point x="422" y="716" type="curve" smooth="yes"/>
      <point x="191" y="716"/>
      <point x="34" y="573"/>
      <point x="34" y="328" type="curve" smooth="yes"/>
      <point x="34" y="114"/>
      <point x="159" y="-16"/>
      <point x="363" y="-16" type="curve" smooth="yes"/>
    </contour>
    <contour>
      <point x="312" y="147"/>
      <point x="278" y="176"/>
      <point x="278" y="223" type="curve" smooth="yes"/>
      <point x="278" y="270"/>
      <point x="312" y="300"/>
      <point x="355" y="300" type="curve" smooth="yes"/>
      <point x="398" y="300"/>
      <point x="432" y="270"/>
      <point x="432" y="223" type="curve" smooth="yes"/>
      <point x="432" y="176"/>
      <point x="398" y="147"/>
      <point x="355" y="147" type="curve" smooth="yes"/>
    </contour>
  </outline>
</glyph>
<glyph name="seven" format="1">
  <advance width="665"/>
  <unicode hex="0037"/>
  <outline>
    <contour>
      <point x="383" y="0" type="line"/>
      <point x="639" y="555" type="line"/>
      <point x="639" y="700" type="line"/>
      <point x="30" y="700" type="line"/>
      <point x="30" y="415" type="line"/>
      <point x="225" y="415" type="line"/>
      <point x="225" y="624" type="line"/>
      <point x="133" y="517" type="line"/>
      <point x="475" y="517" type="line"/>
      <point x="412" y="616" type="line"/>
      <point x="128" y="0" type="line"/>
    </contour>
  </outline>
</glyph>
<glyph name="eight" format="1">
  <advance width="708"/>
  <unicode hex="0038"/>
  <outline>
    <contour>
      <point x="543" y="-16"/>
      <point x="674" y="72"/>
      <point x="674" y="208" type="curve" smooth="yes"/>
      <point x="674" y="344"/>
      <point x="538" y="422"/>
      <point x="354" y="422" type="curve" smooth="yes"/>
      <point x="170" y="422"/>
      <point x="34" y="344"/>
      <point x="34" y="208" type="curve" smooth="yes"/>
      <point x="34" y="72"/>
      <point x="165" y="-16"/>
      <point x="354" y="-16" type="curve" smooth="yes"/>
    </contour>
    <contour>
      <point x="303" y="143"/>
      <point x="267" y="171"/>
      <point x="267" y="216" type="curve" smooth="yes"/>
      <point x="267" y="261"/>
      <point x="303" y="289"/>
      <point x="354" y="289" type="curve" smooth="yes"/>
      <point x="405" y="289"/>
      <point x="441" y="261"/>
      <point x="441" y="216" type="curve" smooth="yes"/>
      <point x="441" y="171"/>
      <point x="405" y="143"/>
      <point x="354" y="143" type="curve" smooth="yes"/>
    </contour>
    <contour>
      <point x="523" y="308"/>
      <point x="649" y="380"/>
      <point x="649" y="507" type="curve" smooth="yes"/>
      <point x="649" y="634"/>
      <point x="528" y="716"/>
      <point x="354" y="716" type="curve" smooth="yes"/>
      <point x="180" y="716"/>
      <point x="59" y="634"/>
      <point x="59" y="507" type="curve" smooth="yes"/>
      <point x="59" y="380"/>
      <point x="185" y="308"/>
      <point x="354" y="308" type="curve" smooth="yes"/>
    </contour>
    <contour>
      <point x="318" y="437"/>
      <point x="290" y="460"/>
      <point x="290" y="497" type="curve" smooth="yes"/>
      <point x="290" y="534"/>
      <point x="318" y="557"/>
      <point x="354" y="557" type="curve" smooth="yes"/>
      <point x="390" y="557"/>
      <point x="418" y="534"/>
      <point x="418" y="497" type="curve" smooth="yes"/>
      <point x="418" y="460"/>
      <point x="390" y="437"/>
      <point x="354" y="437" type="curve" smooth="yes"/>
    </contour>
  </outline>
</glyph>
<glyph name="greater" format="1">
  <advance width="620"/>
  <unicode hex="003E"/>
  <outline>
    <contour>
      <point x="565" y="261" type="line"/>
      <point x="565" y="439" type="line"/>
      <point x="55" y="624" type="line"/>
      <point x="55" y="454" type="line"/>
      <point x="501" y="301" type="line"/>
      <point x="501" y="399" type="line"/>
      <point x="55" y="246" type="line"/>
      <point x="55" y="76" type="line"/>
    </contour>
  </outline>
</glyph>
<glyph name="question" format="1">
  <advance width="498"/>
  <unicode hex="003F"/>
  <outline>
    <contour>
      <point x="329" y="250" type="line"/>
      <point x="329" y="355"/>
      <point x="498" y="384"/>
      <point x="498" y="529" type="curve" smooth="yes"/>
      <point x="498" y="644"/>
      <point x="413" y="711"/>
      <point x="268" y="711" type="curve" smooth="yes"/>
      <point x="112" y="711"/>
      <point x="21" y="616"/>
      <point x="21" y="455" type="curve"/>
      <point x="193" y="455" type="line"/>
      <point x="193" y="509"/>
      <point x="210" y="534"/>
      <point x="247" y="534" type="curve" smooth="yes"/>
      <point x="277" y="534"/>
      <point x="288" y="521"/>
      <point x="288" y="492" type="curve" smooth="yes"/>
      <point x="288" y="415"/>
      <point x="162" y="399"/>
      <point x="162" y="250" type="curve"/>
    </contour>
    <component base="period" xOffset="109"/>
  </outline>
</glyph>
<glyph name="at" format="1">
  <advance width="893"/>
  <unicode hex="0040"/>
  <outline>
    <contour>
      <point x="519" y="-145"/>
      <point x="618" y="-116"/>
      <point x="676" y="-69" type="curve"/>
      <point x="625" y="17" type="line"/>
      <point x="569" y="-27"/>
      <point x="497" y="-46"/>
      <point x="441" y="-46" type="curve" smooth="yes"/>
      <point x="269" y="-46"/>
      <point x="137" y="89"/>
      <point x="137" y="268" type="curve" smooth="yes"/>
      <point x="137" y="450"/>
      <point x="279" y="599"/>
      <point x="453" y="599" type="curve" smooth="yes"/>
      <point x="648" y="599"/>
      <point x="757" y="455"/>
      <point x="757" y="273" type="curve" smooth="yes"/>
      <point x="757" y="184"/>
      <point x="720" y="122"/>
      <point x="685" y="122" type="curve" smooth="yes"/>
      <point x="667" y="122"/>
      <point x="655" y="132"/>
      <point x="655" y="166" type="curve" smooth="yes"/>
      <point x="655" y="491" type="line"/>
      <point x="520" y="491" type="line"/>
      <point x="520" y="450" type="line"/>
      <point x="520" y="450"/>
      <point x="477" y="503"/>
      <point x="405" y="503" type="curve" smooth="yes"/>
      <point x="287" y="503"/>
      <point x="213" y="396"/>
      <point x="213" y="271" type="curve" smooth="yes"/>
      <point x="213" y="133"/>
      <point x="316" y="43"/>
      <point x="420" y="43" type="curve" smooth="yes"/>
      <point x="466" y="43"/>
      <point x="515" y="62"/>
      <point x="552" y="114" type="curve"/>
      <point x="554" y="107" type="line" smooth="yes"/>
      <point x="569" y="55"/>
      <point x="612" y="33"/>
      <point x="672" y="33" type="curve" smooth="yes"/>
      <point x="783" y="33"/>
      <point x="864" y="129"/>
      <point x="864" y="276" type="curve" smooth="yes"/>
      <point x="864" y="519"/>
      <point x="687" y="698"/>
      <point x="453" y="698" type="curve" smooth="yes"/>
      <point x="218" y="698"/>
      <point x="29" y="509"/>
      <point x="29" y="268" type="curve" smooth="yes"/>
      <point x="29" y="31"/>
      <point x="207" y="-145"/>
      <point x="441" y="-145" type="curve" smooth="yes"/>
    </contour>
    <contour>
      <point x="388" y="164"/>
      <point x="361" y="217"/>
      <point x="361" y="276" type="curve" smooth="yes"/>
      <point x="361" y="331"/>
      <point x="389" y="379"/>
      <point x="433" y="379" type="curve" smooth="yes"/>
      <point x="483" y="379"/>
      <point x="511" y="332"/>
      <point x="511" y="275" type="curve" smooth="yes"/>
      <point x="511" y="215"/>
      <point x="484" y="164"/>
      <point x="434" y="164" type="curve" smooth="yes"/>
    </contour>
  </outline>
</glyph>
<glyph name="A" format="1">
  <advance width="806"/>
  <unicode hex="0041"/>
  <outline>
    <contour>
      <point x="221" y="0" type="line"/>
      <point x="447" y="588" type="line"/>
      <point x="355" y="588" type="line"/>
      <point x="581" y="0" type="line"/>
      <point x="825" y="0" type="line"/>
      <point x="519" y="700" type="line"/>
      <point x="287" y="700" type="line"/>
      <point x="-19" y="0" type="line"/>
    </contour>
    <contour>
      <point x="605" y="102" type="line"/>
      <point x="545" y="272" type="line"/>
      <point x="223" y="272" type="line"/>
      <point x="163" y="102" type="line"/>
    </contour>
    <contour>
      <point x="825" y="0" type="move" name="ogonek"/>
    </contour>
    <contour>
      <point x="403" y="700" type="move" name="top"/>
    </contour>
    <contour>
      <point x="121" y="701" type="move" name="topleft"/>
    </contour>
    <contour>
      <point x="403" y="0" type="move" name="bottom"/>
    </contour>
  </outline>
</glyph>
<glyph name="E" format="1">
  <advance width="670"/>
  <unicode hex="0045"/>
  <outline>
    <contour>
      <point x="639" y="0" type="line"/>
      <point x="639" y="178" type="line"/>
      <point x="289" y="178" type="line"/>
      <point x="289" y="270" type="line"/>
      <point x="585" y="270" type="line"/>
      <point x="585" y="440" type="line"/>
      <point x="289" y="440" type="line"/>
      <point x="289" y="522" type="line"/>
      <point x="626" y="522" type="line"/>
      <point x="626" y="700" type="line"/>
      <point x="57" y="700" type="line"/>
      <point x="57" y="0" type="line"/>
    </contour>
    <contour>
      <point x="639" y="0" type="move" name="ogonek"/>
    </contour>
    <contour>
      <point x="342" y="700" type="move" name="top"/>
    </contour>
    <contour>
      <point x="-9" y="700" type="move" name="topleft"/>
    </contour>
    <contour>
      <point x="342" y="0" type="move" name="bottom"/>
    </contour>
  </outline>
</glyph>
<glyph name="F" format="1">
  <advance width="642"/>
  <unicode hex="0046"/>
  <outline>
    <contour>
      <point x="293" y="0" type="line"/>
      <point x="293" y="224" type="line"/>
      <point x="585" y="224" type="line"/>
      <point x="585" y="402" type="line"/>
      <point x="293" y="402" type="line"/>
      <point x="293" y="522" type="line"/>
      <point x="626" y="522" type="line"/>
      <point x="626" y="700" type="line"/>
      <point x="57" y="700" type="line"/>
      <point x="57" y="0" type="line"/>
    </contour>
  </outline>
</glyph>
<glyph name="H" format="1">
  <advance width="804"/>
  <unicode hex="0048"/>
  <outline>
    <contour>
      <point x="293" y="0" type="line"/>
      <point x="293" y="258" type="line"/>
      <point x="511" y="258" type="line"/>
      <point x="511" y="0" type="line"/>
      <point x="747" y="0" type="line"/>
      <point x="747" y="700" type="line"/>
      <point x="511" y="700" type="line"/>
      <point x="511" y="452" type="line"/>
      <point x="293" y="452" type="line"/>
      <point x="293" y="700" type="line"/>
      <point x="57" y="700" type="line"/>
      <point x="57" y="0" type="line"/>
    </contour>
    <contour>
      <point x="402" y="576" type="move" name="center"/>
    </contour>
    <contour>
      <point x="402" y="0" type="move" name="bottom"/>
    </contour>
    <contour>
      <point x="402" y="700" type="move" name="top"/>
    </contour>
  </outline>
</glyph>
<glyph name="I" format="1">
  <advance width="350"/>
  <unicode hex="0049"/>
  <outline>
    <contour>
      <point x="293" y="0" type="line"/>
      <point x="293" y="700" type="line"/>
      <point x="57" y="700" type="line"/>
      <point x="57" y="0" type="line"/>
    </contour>
    <contour>
      <point x="293" y="0" type="move" name="ogonek"/>
    </contour>
    <contour>
      <point x="175" y="700" type="move" name="top"/>
    </contour>
    <contour>
      <point x="-9" y="700" type="move" name="topleft"/>
    </contour>
    <contour>
      <point x="175" y="0" type="move" name="bottom"/>
    </contour>
  </outline>
</glyph>
<glyph name="J" format="1">
  <advance width="574"/>
  <unicode hex="004A"/>
  <outline>
    <contour>
      <point x="422" y="-16"/>
      <point x="523" y="78"/>
      <point x="523" y="270" type="curve" smooth="yes"/>
      <point x="523" y="700" type="line"/>
      <point x="52" y="700" type="line"/>
      <point x="52" y="522" type="line"/>
      <point x="290" y="522" type="line"/>
      <point x="290" y="260" type="line" smooth="yes"/>
      <point x="290" y="203"/>
      <point x="263" y="175"/>
      <point x="214" y="175" type="curve" smooth="yes"/>
      <point x="175" y="175"/>
      <point x="140" y="194"/>
      <point x="103" y="238" type="curve"/>
      <point x="-24" y="88" type="line"/>
      <point x="34" y="20"/>
      <point x="125" y="-16"/>
      <point x="234" y="-16" type="curve" smooth="yes"/>
    </contour>
    <contour>
      <point x="288" y="700" type="move" name="top"/>
    </contour>
  </outline>
</glyph>
<glyph name="K" format="1">
  <advance width="765"/>
  <unicode hex="004B"/>
  <outline>
    <contour>
      <point x="349" y="240" type="line"/>
      <point x="480" y="374" type="line"/>
      <point x="776" y="700" type="line"/>
      <point x="519" y="700" type="line"/>
      <point x="255" y="409" type="line"/>
      <point x="268" y="150" type="line"/>
    </contour>
    <contour>
      <point x="289" y="0" type="line"/>
      <point x="289" y="700" type="line"/>
      <point x="57" y="700" type="line"/>
      <point x="57" y="0" type="line"/>
    </contour>
    <contour>
      <point x="790" y="0" type="line"/>
      <point x="464" y="434" type="line"/>
      <point x="311" y="272" type="line"/>
      <point x="517" y="0" type="line"/>
    </contour>
    <contour>
      <point x="384" y="700" type="move" name="top"/>
    </contour>
    <contour>
      <point x="384" y="0" type="move" name="bottom"/>
    </contour>
  </outline>
</glyph>
<glyph name="L" format="1">
  <advance width="617"/>
  <unicode hex="004C"/>
  <outline>
    <contour>
      <point x="609" y="0" type="line"/>
      <point x="609" y="183" type="line"/>
      <point x="293" y="183" type="line"/>
      <point x="293" y="700" type="line"/>
      <point x="57" y="700" type="line"/>
      <point x="57" y="0" type="line"/>
    </contour>
    <contour>
      <point x="345" y="0" type="move" name="bottom"/>
    </contour>
    <contour>
      <point x="483" y="447" type="move" name="dot"/>
    </contour>
    <contour>
      <point x="175" y="700" type="move" name="top"/>
    </contour>
    <contour>
      <point x="423" y="700" type="move" name="topright"/>
    </contour>
    <contour>
      <point x="175" y="400" type="move" name="center"/>
    </contour>
  </outline>
</glyph>
<glyph name="N" format="1">
  <advance width="804"/>
  <unicode hex="004E"/>
  <outline>
    <contour>
      <point x="287" y="0" type="line"/>
      <point x="287" y="426" type="line"/>
      <point x="197" y="426" type="line"/>
      <point x="553" y="0" type="line"/>
      <point x="747" y="0" type="line"/>
      <point x="747" y="700" type="line"/>
      <point x="517" y="700" type="line"/>
      <point x="517" y="274" type="line"/>
      <point x="607" y="274" type="line"/>
      <point x="251" y="700" type="line"/>
      <point x="57" y="700" type="line"/>
      <point x="57" y="0" type="line"/>
    </contour>
    <contour>
      <point x="402" y="700" type="move" name="top"/>
    </contour>
    <contour>
      <point x="402" y="0" type="move" name="bottom"/>
    </contour>
  </outline>
</glyph>
<glyph name="O" format="1">
  <advance width="848"/>
  <unicode hex="004F"/>
  <outline>
    <contour>
      <point x="652" y="-16"/>
      <point x="819" y="138"/>
      <point x="819" y="350" type="curve" smooth="yes"/>
      <point x="819" y="562"/>
      <point x="652" y="716"/>
      <point x="424" y="716" type="curve" smooth="yes"/>
      <point x="196" y="716"/>
      <point x="29" y="562"/>
      <point x="29" y="350" type="curve" smooth="yes"/>
      <point x="29" y="138"/>
      <point x="196" y="-16"/>
      <point x="424" y="-16" type="curve" smooth="yes"/>
    </contour>
    <contour>
      <point x="337" y="175"/>
      <point x="267" y="241"/>
      <point x="267" y="350" type="curve" smooth="yes"/>
      <point x="267" y="459"/>
      <point x="337" y="525"/>
      <point x="424" y="525" type="curve" smooth="yes"/>
      <point x="511" y="525"/>
      <point x="581" y="459"/>
      <point x="581" y="350" type="curve" smooth="yes"/>
      <point x="581" y="241"/>
      <point x="511" y="175"/>
      <point x="424" y="175" type="curve" smooth="yes"/>
    </contour>
    <contour>
      <point x="424" y="0" type="move" name="bottom"/>
    </contour>
    <contour>
      <point x="547" y="0" type="move" name="ogonek"/>
    </contour>
    <contour>
      <point x="424" y="700" type="move" name="top"/>
    </contour>
    <contour>
      <point x="590" y="700" type="move" name="topright"/>
    </contour>
    <contour>
      <point x="34" y="700" type="move" name="topleft"/>
    </contour>
    <contour>
      <point x="424" y="350" type="move" name="center"/>
    </contour>
  </outline>
</glyph>
<glyph name="T" format="1">
  <advance width="654"/>
  <unicode hex="0054"/>
  <outline>
    <contour>
      <point x="445" y="0" type="line"/>
      <point x="445" y="517" type="line"/>
      <point x="650" y="517" type="line"/>
      <point x="650" y="700" type="line"/>
      <point x="4" y="700" type="line"/>
      <point x="4" y="517" type="line"/>
      <point x="209" y="517" type="line"/>
      <point x="209" y="0" type="line"/>
    </contour>
    <contour>
      <point x="327" y="315" type="move" name="center"/>
    </contour>
    <contour>
      <point x="327" y="0" type="move" name="bottom"/>
    </contour>
    <contour>
      <point x="327" y="700" type="move" name="top"/>
    </contour>
  </outline>
</glyph>
<glyph name="U" format="1">
  <advance width="784"/>
  <unicode hex="0055"/>
  <outline>
    <contour>
      <point x="607" y="-16"/>
      <point x="733" y="105"/>
      <point x="733" y="315" type="curve" smooth="yes"/>
      <point x="733" y="700" type="line"/>
      <point x="501" y="700" type="line"/>
      <point x="501" y="322" type="line" smooth="yes"/>
      <point x="501" y="215"/>
      <point x="460" y="175"/>
      <point x="394" y="175" type="curve" smooth="yes"/>
      <point x="328" y="175"/>
      <point x="287" y="215"/>
      <point x="287" y="322" type="curve" smooth="yes"/>
      <point x="287" y="700" type="line"/>
      <point x="51" y="700" type="line"/>
      <point x="51" y="315" type="line" smooth="yes"/>
      <point x="51" y="105"/>
      <point x="177" y="-16"/>
      <point x="392" y="-16" type="curve" smooth="yes"/>
    </contour>
    <contour>
      <point x="620" y="0" type="move" name="ogonek"/>
    </contour>
    <contour>
      <point x="394" y="700" type="move" name="top"/>
    </contour>
    <contour>
      <point x="640" y="700" type="move" name="topright"/>
    </contour>
    <contour>
      <point x="394" y="0" type="move" name="bottom"/>
    </contour>
  </outline>
</glyph>
<glyph name="V" format="1">
  <advance width="786"/>
  <unicode hex="0056"/>
  <outline>
    <contour>
      <point x="509" y="0" type="line"/>
      <point x="805" y="700" type="line"/>
      <point x="573" y="700" type="line"/>
      <point x="325" y="109" type="line"/>
      <point x="476" y="109" type="line"/>
      <point x="235" y="700" type="line"/>
      <point x="-19" y="700" type="line"/>
      <point x="277" y="0" type="line"/>
    </contour>
  </outline>
</glyph>
<glyph name="W" format="1">
  <advance width="1250"/>
  <unicode hex="0057"/>
  <outline>
    <contour>
      <point x="499" y="0" type="line"/>
      <point x="663" y="484" type="line"/>
      <point x="595" y="484" type="line"/>
      <point x="751" y="0" type="line"/>
      <point x="1004" y="0" type="line"/>
      <point x="1238" y="700" type="line"/>
      <point x="1011" y="700" type="line"/>
      <point x="812" y="109" type="line"/>
      <point x="935" y="109" type="line"/>
      <point x="746" y="700" type="line"/>
      <point x="523" y="700" type="line"/>
      <point x="321" y="109" type="line"/>
      <point x="449" y="109" type="line"/>
      <point x="258" y="700" type="line"/>
      <point x="12" y="700" type="line"/>
      <point x="246" y="0" type="line"/>
    </contour>
    <contour>
      <point x="625" y="700" type="move" name="top"/>
    </contour>
    <contour>
      <point x="625" y="0" type="move" name="bottom"/>
    </contour>
  </outline>
</glyph>
<glyph name="Y" format="1">
  <advance width="770"/>
  <unicode hex="0059"/>
  <outline>
    <contour>
      <point x="503" y="0" type="line"/>
      <point x="503" y="257" type="line"/>
      <point x="451" y="116" type="line"/>
      <point x="797" y="700" type="line"/>
      <point x="566" y="700" type="line"/>
      <point x="319" y="287" type="line"/>
      <point x="470" y="287" type="line"/>
      <point x="225" y="700" type="line"/>
      <point x="-27" y="700" type="line"/>
      <point x="321" y="116" type="line"/>
      <point x="267" y="257" type="line"/>
      <point x="267" y="0" type="line"/>
    </contour>
    <contour>
      <point x="385" y="700" type="move" name="top"/>
    </contour>
    <contour>
      <point x="385" y="0" type="move" name="bottom"/>
    </contour>
  </outline>
</glyph>
<glyph name="Z" format="1">
  <advance width="687"/>
  <unicode hex="005A"/>
  <outline>
    <contour>
      <point x="675" y="0" type="line"/>
      <point x="675" y="183" type="line"/>
      <point x="240" y="183" type="line"/>
      <point x="269" y="101" type="line"/>
      <point x="659" y="556" type="line"/>
      <point x="659" y="701" type="line"/>
      <point x="42" y="701" type="line"/>
      <point x="42" y="518" type="line"/>
      <point x="451" y="518" type="line"/>
      <point x="422" y="600" type="line"/>
      <point x="32" y="145" type="line"/>
      <point x="32" y="0" type="line"/>
    </contour>
    <contour>
      <point x="354" y="700" type="move" name="top"/>
    </contour>
    <contour>
      <point x="354" y="0" type="move" name="bottom"/>
    </contour>
  </outline>
</glyph>
<glyph name="bracketleft" format="1">
  <advance width="381"/>
  <unicode hex="005B"/>
  <outline>
    <contour>
      <point x="371" y="-124" type="line"/>
      <point x="371" y="42" type="line"/>
      <point x="254" y="42" type="line"/>
      <point x="254" y="576" type="line"/>
      <point x="371" y="576" type="line"/>
      <point x="371" y="742" type="line"/>
      <point x="54" y="742" type="line"/>
      <point x="54" y="-124" type="line"/>
    </contour>
  </outline>
</glyph>
<glyph name="asciicircum" format="1">
  <advance width="620"/>
  <unicode hex="005E"/>
  <outline>
    <contour>
      <point x="206" y="139" type="line"/>
      <point x="359" y="508" type="line"/>
      <point x="261" y="508" type="line"/>
      <point x="414" y="139" type="line"/>
      <point x="584" y="139" type="line"/>
      <point x="399" y="561" type="line"/>
      <point x="221" y="561" type="line"/>
      <point x="36" y="139" type="line"/>
    </contour>
  </outline>
</glyph>
<glyph name="a" format="1">
  <advance width="629"/>
  <unicode hex="0061"/>
  <outline>
    <contour>
      <point x="581" y="0" type="line"/>
      <point x="581" y="294" type="line" smooth="yes"/>
      <point x="581" y="476"/>
      <point x="473" y="557"/>
      <point x="286" y="557" type="curve" smooth="yes"/>
      <point x="202" y="557"/>
      <point x="105" y="535"/>
      <point x="41" y="495" type="curve"/>
      <point x="113" y="346" type="line"/>
      <point x="149" y="373"/>
      <point x="204" y="389"/>
      <point x="248" y="389" type="curve" smooth="yes"/>
      <point x="324" y="389"/>
      <point x="355" y="360"/>
      <point x="355" y="307" type="curve" smooth="yes"/>
      <point x="355" y="123" type="line"/>
      <point x="371" y="97" type="line"/>
      <point x="371" y="0" type="line"/>
    </contour>
    <contour>
      <point x="310" y="-10"/>
      <point x="366" y="30"/>
      <point x="384" y="111" type="curve"/>
      <point x="355" y="178" type="line"/>
      <point x="343" y="142"/>
      <point x="315" y="126"/>
      <point x="284" y="126" type="curve" smooth="yes"/>
      <point x="250" y="126"/>
      <point x="230" y="145"/>
      <point x="230" y="170" type="curve" smooth="yes"/>
      <point x="230" y="200"/>
      <point x="251" y="216"/>
      <point x="299" y="216" type="curve" smooth="yes"/>
      <point x="377" y="216" type="line"/>
      <point x="377" y="325" type="line"/>
      <point x="263" y="325" type="line" smooth="yes"/>
      <point x="95" y="325"/>
      <point x="17" y="266"/>
      <point x="17" y="160" type="curve" smooth="yes"/>
      <point x="17" y="66"/>
      <point x="84" y="-10"/>
      <point x="216" y="-10" type="curve" smooth="yes"/>
    </contour>
    <contour>
      <point x="519" y="0" type="move" name="ogonek"/>
    </contour>
    <contour>
      <point x="288" y="0" type="move" name="bottom"/>
    </contour>
    <contour>
      <point x="311" y="547" type="move" name="top"/>
    </contour>
  </outline>
</glyph>
<glyph name="c" format="1">
  <advance width="603"/>
  <unicode hex="0063"/>
  <outline>
    <contour>
      <point x="468" y="-10"/>
      <point x="566" y="51"/>
      <point x="601" y="152" type="curve"/>
      <point x="432" y="238" type="line"/>
      <point x="409" y="187"/>
      <point x="376" y="166"/>
      <point x="337" y="166" type="curve" smooth="yes"/>
      <point x="286" y="166"/>
      <point x="244" y="202"/>
      <point x="244" y="274" type="curve" smooth="yes"/>
      <point x="244" y="345"/>
      <point x="286" y="381"/>
      <point x="337" y="381" type="curve" smooth="yes"/>
      <point x="376" y="381"/>
      <point x="409" y="360"/>
      <point x="432" y="309" type="curve"/>
      <point x="601" y="395" type="line"/>
      <point x="566" y="496"/>
      <point x="468" y="557"/>
      <point x="338" y="557" type="curve" smooth="yes"/>
      <point x="153" y="557"/>
      <point x="21" y="440"/>
      <point x="21" y="274" type="curve" smooth="yes"/>
      <point x="21" y="107"/>
      <point x="153" y="-10"/>
      <point x="338" y="-10" type="curve" smooth="yes"/>
    </contour>
    <contour>
      <point x="318" y="547" type="move" name="top"/>
    </contour>
    <contour>
      <point x="310" y="0" type="move" name="bottom"/>
    </contour>
  </outline>
</glyph>
<glyph name="d" format="1">
  <advance width="699"/>
  <unicode hex="0064"/>
  <outline>
    <contour>
      <point x="436" y="-10"/>
      <point x="492" y="77"/>
      <point x="492" y="274" type="curve" smooth="yes"/>
      <point x="492" y="468"/>
      <point x="428" y="557"/>
      <point x="287" y="557" type="curve" smooth="yes"/>
      <point x="145" y="557"/>
      <point x="26" y="450"/>
      <point x="26" y="274" type="curve" smooth="yes"/>
      <point x="26" y="98"/>
      <point x="145" y="-10"/>
      <point x="287" y="-10" type="curve" smooth="yes"/>
    </contour>
    <contour>
      <point x="288" y="166"/>
      <point x="249" y="203"/>
      <point x="249" y="274" type="curve" smooth="yes"/>
      <point x="249" y="345"/>
      <point x="288" y="381"/>
      <point x="338" y="381" type="curve" smooth="yes"/>
      <point x="388" y="381"/>
      <point x="427" y="345"/>
      <point x="427" y="274" type="curve" smooth="yes"/>
      <point x="427" y="203"/>
      <point x="388" y="166"/>
      <point x="338" y="166" type="curve" smooth="yes"/>
    </contour>
    <contour>
      <point x="649" y="0" type="line"/>
      <point x="649" y="742" type="line"/>
      <point x="423" y="742" type="line"/>
      <point x="423" y="474" type="line"/>
      <point x="433" y="274" type="line"/>
      <point x="434" y="74" type="line"/>
      <point x="434" y="0" type="line"/>
    </contour>
    <contour>
      <point x="486" y="640" type="move" name="center"/>
    </contour>
    <contour>
      <point x="376" y="0" type="move" name="bottom"/>
    </contour>
    <contour>
      <point x="722" y="742" type="move" name="topright"/>
    </contour>
  </outline>
</glyph>
<glyph name="e" format="1">
  <advance width="656"/>
  <unicode hex="0065"/>
  <outline>
    <contour>
      <point x="462" y="-10"/>
      <point x="540" y="20"/>
      <point x="594" y="78" type="curve"/>
      <point x="478" y="197" type="line"/>
      <point x="441" y="170"/>
      <point x="412" y="157"/>
      <point x="361" y="157" type="curve" smooth="yes"/>
      <point x="285" y="157"/>
      <point x="241" y="196"/>
      <point x="241" y="267" type="curve" smooth="yes"/>
      <point x="241" y="301" type="line" smooth="yes"/>
      <point x="241" y="364"/>
      <point x="277" y="403"/>
      <point x="334" y="403" type="curve" smooth="yes"/>
      <point x="391" y="403"/>
      <point x="427" y="364"/>
      <point x="427" y="301" type="curve"/>
      <point x="515" y="330" type="line"/>
      <point x="209" y="330" type="line"/>
      <point x="209" y="221" type="line"/>
      <point x="631" y="221" type="line"/>
      <point x="633" y="237"/>
      <point x="635" y="258"/>
      <point x="635" y="274" type="curve" smooth="yes"/>
      <point x="635" y="459"/>
      <point x="495" y="557"/>
      <point x="332" y="557" type="curve" smooth="yes"/>
      <point x="155" y="557"/>
      <point x="21" y="440"/>
      <point x="21" y="274" type="curve" smooth="yes"/>
      <point x="21" y="111"/>
      <point x="151" y="-10"/>
      <point x="354" y="-10" type="curve" smooth="yes"/>
    </contour>
    <contour>
      <point x="559" y="0" type="move" name="ogonek"/>
    </contour>
    <contour>
      <point x="332" y="0" type="move" name="bottom"/>
    </contour>
    <contour>
      <point x="332" y="547" type="move" name="top"/>
    </contour>
  </outline>
</glyph>
<glyph name="g" format="1">
  <advance width="705"/>
  <unicode hex="0067"/>
  <outline>
    <contour>
      <point x="531" y="-204"/>
      <point x="655" y="-103"/>
      <point x="655" y="109" type="curve" smooth="yes"/>
      <point x="655" y="547" type="line"/>
      <point x="440" y="547" type="line"/>
      <point x="440" y="464" type="line"/>
      <point x="439" y="294" type="line"/>
      <point x="429" y="124" type="line"/>
      <point x="429" y="78" type="line" smooth="yes"/>
      <point x="429" y="5"/>
      <point x="392" y="-36"/>
      <point x="301" y="-36" type="curve" smooth="yes"/>
      <point x="243" y="-36"/>
      <point x="171" y="-15"/>
      <point x="128" y="18" type="curve"/>
      <point x="52" y="-136" type="line"/>
      <point x="120" y="-181"/>
      <point x="217" y="-204"/>
      <point x="324" y="-204" type="curve" smooth="yes"/>
    </contour>
    <contour>
      <point x="421" y="30"/>
      <point x="484" y="114"/>
      <point x="484" y="294" type="curve" smooth="yes"/>
      <point x="484" y="474"/>
      <point x="421" y="557"/>
      <point x="281" y="557" type="curve" smooth="yes"/>
      <point x="143" y="557"/>
      <point x="21" y="456"/>
      <point x="21" y="294" type="curve" smooth="yes"/>
      <point x="21" y="132"/>
      <point x="143" y="30"/>
      <point x="281" y="30" type="curve" smooth="yes"/>
    </contour>
    <contour>
      <point x="284" y="206"/>
      <point x="244" y="241"/>
      <point x="244" y="294" type="curve" smooth="yes"/>
      <point x="244" y="347"/>
      <point x="284" y="381"/>
      <point x="332" y="381" type="curve" smooth="yes"/>
      <point x="380" y="381"/>
      <point x="419" y="347"/>
      <point x="419" y="294" type="curve" smooth="yes"/>
      <point x="419" y="241"/>
      <point x="380" y="206"/>
      <point x="332" y="206" type="curve" smooth="yes"/>
    </contour>
    <contour>
      <point x="349" y="547" type="move" name="top"/>
    </contour>
  </outline>
</glyph>
<glyph name="h" format="1">
  <advance width="702"/>
  <unicode hex="0068"/>
  <outline>
    <contour>
      <point x="654" y="0" type="line"/>
      <point x="654" y="312" type="line" smooth="yes"/>
      <point x="654" y="484"/>
      <point x="556" y="557"/>
      <point x="430" y="557" type="curve" smooth="yes"/>
      <point x="311" y="557"/>
      <point x="213" y="484"/>
      <point x="193" y="335" type="curve"/>
      <point x="276" y="257" type="line"/>
      <point x="276" y="338"/>
      <point x="315" y="367"/>
      <point x="361" y="367" type="curve" smooth="yes"/>
      <point x="402" y="367"/>
      <point x="428" y="341"/>
      <point x="428" y="273" type="curve" smooth="yes"/>
      <point x="428" y="0" type="line"/>
    </contour>
    <contour>
      <point x="276" y="0" type="line"/>
      <point x="276" y="742" type="line"/>
      <point x="50" y="742" type="line"/>
      <point x="50" y="0" type="line"/>
    </contour>
    <contour>
      <point x="355" y="0" type="move" name="bottom"/>
    </contour>
    <contour>
      <point x="163" y="742" type="move" name="top"/>
    </contour>
    <contour>
      <point x="310" y="547" type="move" name="topright"/>
    </contour>
    <contour>
      <point x="214" y="640" type="move" name="center"/>
    </contour>
  </outline>
</glyph>
<glyph name="i" format="1">
  <advance width="325"/>
  <unicode hex="0069"/>
  <outline>
    <component base="idotless"/>
    <component base="dotaccentcomb.i" xOffset="-137"/>
    <contour>
      <point x="275" y="0" type="move" name="ogonek"/>
    </contour>
    <contour>
      <point x="163" y="0" type="move" name="bottom"/>
    </contour>
  </outline>
</glyph>
<glyph name="l" format="1">
  <advance width="326"/>
  <unicode hex="006C"/>
  <outline>
    <contour>
      <point x="276" y="0" type="line"/>
      <point x="276" y="742" type="line"/>
      <point x="50" y="742" type="line"/>
      <point x="50" y="0" type="line"/>
    </contour>
    <contour>
      <point x="163" y="0" type="move" name="bottom"/>
    </contour>
    <contour>
      <point x="416" y="370" type="move" name="dot"/>
    </contour>
    <contour>
      <point x="163" y="742" type="move" name="top"/>
    </contour>
    <contour>
      <point x="346" y="742" type="move" name="topright"/>
    </contour>
    <contour>
      <point x="163" y="370" type="move" name="center"/>
    </contour>
  </outline>
</glyph>
<glyph name="n" format="1">
  <advance width="702"/>
  <unicode hex="006E"/>
  <outline>
    <contour>
      <point x="654" y="0" type="line"/>
      <point x="654" y="312" type="line" smooth="yes"/>
      <point x="654" y="484"/>
      <point x="556" y="557"/>
      <point x="430" y="557" type="curve" smooth="yes"/>
      <point x="311" y="557"/>
      <point x="213" y="484"/>
      <point x="193" y="335" type="curve"/>
      <point x="276" y="257" type="line"/>
      <point x="276" y="338"/>
      <point x="315" y="367"/>
      <point x="361" y="367" type="curve" smooth="yes"/>
      <point x="402" y="367"/>
      <point x="428" y="341"/>
      <point x="428" y="273" type="curve" smooth="yes"/>
      <point x="428" y="0" type="line"/>
    </contour>
    <contour>
      <point x="276" y="0" type="line"/>
      <point x="276" y="383" type="line"/>
      <point x="265" y="429" type="line"/>
      <point x="265" y="547" type="line"/>
      <point x="50" y="547" type="line"/>
      <point x="50" y="0" type="line"/>
    </contour>
    <contour>
      <point x="355" y="547" type="move" name="top"/>
    </contour>
    <contour>
      <point x="355" y="0" type="move" name="bottom"/>
    </contour>
  </outline>
</glyph>
<glyph name="o" format="1">
  <advance width="666"/>
  <unicode hex="006F"/>
  <outline>
    <contour>
      <point x="515" y="-10"/>
      <point x="645" y="108"/>
      <point x="645" y="274" type="curve" smooth="yes"/>
      <point x="645" y="440"/>
      <point x="515" y="557"/>
      <point x="333" y="557" type="curve" smooth="yes"/>
      <point x="151" y="557"/>
      <point x="21" y="440"/>
      <point x="21" y="274" type="curve" smooth="yes"/>
      <point x="21" y="108"/>
      <point x="151" y="-10"/>
      <point x="333" y="-10" type="curve" smooth="yes"/>
    </contour>
    <contour>
      <point x="283" y="166"/>
      <point x="244" y="203"/>
      <point x="244" y="274" type="curve" smooth="yes"/>
      <point x="244" y="345"/>
      <point x="283" y="381"/>
      <point x="333" y="381" type="curve" smooth="yes"/>
      <point x="383" y="381"/>
      <point x="422" y="345"/>
      <point x="422" y="274" type="curve" smooth="yes"/>
      <point x="422" y="203"/>
      <point x="383" y="166"/>
      <point x="333" y="166" type="curve" smooth="yes"/>
    </contour>
    <contour>
      <point x="330" y="0" type="move" name="bottom"/>
    </contour>
    <contour>
      <point x="453" y="0" type="move" name="ogonek"/>
    </contour>
    <contour>
      <point x="330" y="547" type="move" name="top"/>
    </contour>
    <contour>
      <point x="426" y="547" type="move" name="topright"/>
    </contour>
    <contour>
      <point x="330" y="274" type="move" name="center"/>
    </contour>
  </outline>
</glyph>
<glyph name="q" format="1">
  <advance width="694"/>
  <unicode hex="0071"/>
  <outline>
    <contour>
      <point x="423" y="-10"/>
      <point x="487" y="79"/>
      <point x="487" y="273" type="curve" smooth="yes"/>
      <point x="487" y="470"/>
      <point x="431" y="557"/>
      <point x="282" y="557" type="curve" smooth="yes"/>
      <point x="140" y="557"/>
      <point x="21" y="449"/>
      <point x="21" y="273" type="curve" smooth="yes"/>
      <point x="21" y="97"/>
      <point x="140" y="-10"/>
      <point x="282" y="-10" type="curve" smooth="yes"/>
    </contour>
    <contour>
      <point x="283" y="166"/>
      <point x="244" y="202"/>
      <point x="244" y="273" type="curve" smooth="yes"/>
      <point x="244" y="344"/>
      <point x="283" y="381"/>
      <point x="333" y="381" type="curve" smooth="yes"/>
      <point x="383" y="381"/>
      <point x="422" y="344"/>
      <point x="422" y="273" type="curve" smooth="yes"/>
      <point x="422" y="202"/>
      <point x="383" y="166"/>
      <point x="333" y="166" type="curve" smooth="yes"/>
    </contour>
    <contour>
      <point x="644" y="-194" type="line"/>
      <point x="644" y="547" type="line"/>
      <point x="429" y="547" type="line"/>
      <point x="429" y="473" type="line"/>
      <point x="428" y="273" type="line"/>
      <point x="418" y="73" type="line"/>
      <point x="418" y="-194" type="line"/>
    </contour>
    <contour>
      <point x="333" y="547" type="move" name="top"/>
    </contour>
    <contour>
      <point x="282" y="0" type="move" name="bottom"/>
    </contour>
  </outline>
</glyph>
<glyph name="r" format="1">
  <advance width="456"/>
  <unicode hex="0072"/>
  <outline>
    <contour>
      <point x="276" y="0" type="line"/>
      <point x="276" y="383" type="line"/>
      <point x="265" y="429" type="line"/>
      <point x="265" y="547" type="line"/>
      <point x="50" y="547" type="line"/>
      <point x="50" y="0" type="line"/>
    </contour>
    <contour>
      <point x="276" y="330"/>
      <point x="324" y="361"/>
      <point x="392" y="361" type="curve" smooth="yes"/>
      <point x="408" y="361"/>
      <point x="422" y="360"/>
      <point x="442" y="357" type="curve"/>
      <point x="440" y="557" type="line"/>
      <point x="303" y="557"/>
      <point x="213" y="481"/>
      <point x="213" y="322" type="curve"/>
      <point x="276" y="243" type="line"/>
    </contour>
    <contour>
      <point x="245" y="547" type="move" name="top"/>
    </contour>
    <contour>
      <point x="163" y="0" type="move" name="bottom"/>
    </contour>
  </outline>
</glyph>
<glyph name="s" format="1">
  <advance width="579"/>
  <unicode hex="0073"/>
  <outline>
    <contour>
      <point x="471" y="-10"/>
      <point x="554" y="76"/>
      <point x="554" y="175" type="curve" smooth="yes"/>
      <point x="554" y="394"/>
      <point x="240" y="320"/>
      <point x="240" y="377" type="curve" smooth="yes"/>
      <point x="240" y="390"/>
      <point x="256" y="403"/>
      <point x="314" y="403" type="curve" smooth="yes"/>
      <point x="360" y="403"/>
      <point x="416" y="394"/>
      <point x="472" y="363" type="curve"/>
      <point x="534" y="512" type="line"/>
      <point x="471" y="542"/>
      <point x="391" y="557"/>
      <point x="311" y="557" type="curve" smooth="yes"/>
      <point x="117" y="557"/>
      <point x="31" y="473"/>
      <point x="31" y="372" type="curve" smooth="yes"/>
      <point x="31" y="151"/>
      <point x="346" y="226"/>
      <point x="346" y="170" type="curve" smooth="yes"/>
      <point x="346" y="154"/>
      <point x="331" y="144"/>
      <point x="276" y="144" type="curve" smooth="yes"/>
      <point x="211" y="144"/>
      <point x="137" y="162"/>
      <point x="85" y="193" type="curve"/>
      <point x="23" y="44" type="line"/>
      <point x="79" y="12"/>
      <point x="177" y="-10"/>
      <point x="271" y="-10" type="curve" smooth="yes"/>
    </contour>
    <contour>
      <point x="283" y="547" type="move" name="top"/>
    </contour>
    <contour>
      <point x="283" y="0" type="move" name="bottom"/>
    </contour>
  </outline>
</glyph>
<glyph name="t" format="1">
  <advance width="460"/>
  <unicode hex="0074"/>
  <outline>
    <contour>
      <point x="367" y="-10"/>
      <point x="418" y="-1"/>
      <point x="453" y="19" type="curve"/>
      <point x="399" y="176" type="line"/>
      <point x="384" y="166"/>
      <point x="366" y="161"/>
      <point x="348" y="161" type="curve" smooth="yes"/>
      <point x="321" y="161"/>
      <point x="301" y="180"/>
      <point x="301" y="214" type="curve" smooth="yes"/>
      <point x="301" y="670" type="line"/>
      <point x="75" y="670" type="line"/>
      <point x="75" y="212" type="line" smooth="yes"/>
      <point x="75" y="61"/>
      <point x="163" y="-10"/>
      <point x="314" y="-10" type="curve" smooth="yes"/>
    </contour>
    <contour>
      <point x="413" y="352" type="line"/>
      <point x="413" y="517" type="line"/>
      <point x="0" y="517" type="line"/>
      <point x="0" y="352" type="line"/>
    </contour>
    <contour>
      <point x="274" y="0" type="move" name="bottom"/>
    </contour>
    <contour>
      <point x="188" y="670" type="move" name="top"/>
    </contour>
    <contour>
      <point x="349" y="742" type="move" name="topright"/>
    </contour>
    <contour>
      <point x="207" y="261" type="move" name="center"/>
    </contour>
  </outline>
</glyph>
<glyph name="u" format="1">
  <advance width="698"/>
  <unicode hex="0075"/>
  <outline>
    <contour>
      <point x="390" y="-10"/>
      <point x="485" y="63"/>
      <point x="505" y="212" type="curve"/>
      <point x="422" y="290" type="line"/>
      <point x="422" y="209"/>
      <point x="384" y="180"/>
      <point x="345" y="180" type="curve" smooth="yes"/>
      <point x="301" y="180"/>
      <point x="274" y="206"/>
      <point x="274" y="284" type="curve" smooth="yes"/>
      <point x="274" y="547" type="line"/>
      <point x="48" y="547" type="line"/>
      <point x="48" y="245" type="line" smooth="yes"/>
      <point x="48" y="67"/>
      <point x="147" y="-10"/>
      <point x="278" y="-10" type="curve" smooth="yes"/>
    </contour>
    <contour>
      <point x="648" y="0" type="line"/>
      <point x="648" y="547" type="line"/>
      <point x="422" y="547" type="line"/>
      <point x="422" y="164" type="line"/>
      <point x="433" y="118" type="line"/>
      <point x="433" y="0" type="line"/>
    </contour>
    <contour>
      <point x="648" y="0" type="move" name="ogonek"/>
    </contour>
    <contour>
      <point x="348" y="547" type="move" name="top"/>
    </contour>
    <contour>
      <point x="535" y="547" type="move" name="topright"/>
    </contour>
    <contour>
      <point x="348" y="0" type="move" name="bottom"/>
    </contour>
  </outline>
</glyph>
<glyph name="v" format="1">
  <advance width="644"/>
  <unicode hex="0076"/>
  <outline>
    <contour>
      <point x="439" y="0" type="line"/>
      <point x="659" y="547" type="line"/>
      <point x="445" y="547" type="line"/>
      <point x="267" y="103" type="line"/>
      <point x="384" y="103" type="line"/>
      <point x="217" y="547" type="line"/>
      <point x="-15" y="547" type="line"/>
      <point x="205" y="0" type="line"/>
    </contour>
    <contour>
      <point x="322" y="547" type="move" name="top"/>
    </contour>
    <contour>
      <point x="322" y="0" type="move" name="bottom"/>
    </contour>
  </outline>
</glyph>
<glyph name="w" format="1">
  <advance width="1058"/>
  <unicode hex="0077"/>
  <outline>
    <contour>
      <point x="433" y="0" type="line"/>
      <point x="566" y="350" type="line"/>
      <point x="496" y="350" type="line"/>
      <point x="625" y="0" type="line"/>
      <point x="859" y="0" type="line"/>
      <point x="1067" y="547" type="line"/>
      <point x="853" y="547" type="line"/>
      <point x="681" y="103" type="line"/>
      <point x="803" y="103" type="line"/>
      <point x="642" y="547" type="line"/>
      <point x="431" y="547" type="line"/>
      <point x="259" y="103" type="line"/>
      <point x="382" y="103" type="line"/>
      <point x="221" y="547" type="line"/>
      <point x="-9" y="547" type="line"/>
      <point x="199" y="0" type="line"/>
    </contour>
    <contour>
      <point x="529" y="547" type="move" name="top"/>
    </contour>
    <contour>
      <point x="529" y="0" type="move" name="bottom"/>
    </contour>
  </outline>
</glyph>
<glyph name="y" format="1">
  <advance width="644"/>
  <unicode hex="0079"/>
  <outline>
    <contour>
      <point x="286" y="-204"/>
      <point x="374" y="-161"/>
      <point x="427" y="-29" type="curve" smooth="yes"/>
      <point x="659" y="547" type="line"/>
      <point x="445" y="547" type="line"/>
      <point x="270" y="101" type="line"/>
      <point x="254" y="79" type="line"/>
      <point x="234" y="30" type="line" smooth="yes"/>
      <point x="219" y="-7"/>
      <point x="199" y="-26"/>
      <point x="159" y="-26" type="curve" smooth="yes"/>
      <point x="132" y="-26"/>
      <point x="101" y="-17"/>
      <point x="79" y="0" type="curve"/>
      <point x="4" y="-155" type="line"/>
      <point x="41" y="-185"/>
      <point x="110" y="-204"/>
      <point x="170" y="-204" type="curve" smooth="yes"/>
    </contour>
    <contour>
      <point x="381" y="121" type="line"/>
      <point x="217" y="547" type="line"/>
      <point x="-15" y="547" type="line"/>
      <point x="223" y="-25" type="line"/>
    </contour>
    <contour>
      <point x="313" y="547" type="move" name="top"/>
    </contour>
    <contour>
      <point x="527" y="0" type="move" name="bottom"/>
    </contour>
  </outline>
</glyph>
<glyph name="exclamdown" format="1">
  <advance width="314"/>
  <unicode hex="00A1"/>
  <outline>
    <contour>
      <point x="67" y="259" type="line"/>
      <point x="22" y="-154" type="line"/>
      <point x="292" y="-154" type="line"/>
      <point x="247" y="259" type="line"/>
    </contour>
    <contour>
      <point x="82" y="557"/>
      <point x="25" y="503"/>
      <point x="25" y="427" type="curve" smooth="yes"/>
      <point x="25" y="350"/>
      <point x="82" y="299"/>
      <point x="157" y="299" type="curve" smooth="yes"/>
      <point x="232" y="299"/>
      <point x="289" y="350"/>
      <point x="289" y="427" type="curve" smooth="yes"/>
      <point x="289" y="503"/>
      <point x="232" y="557"/>
      <point x="157" y="557" type="curve" smooth="yes"/>
    </contour>
  </outline>
</glyph>
<glyph name="cent" format="1">
  <advance width="600"/>
  <unicode hex="00A2"/>
  <outline>
    <contour>
      <point x="395" y="-165" type="line"/>
      <point x="395" y="98" type="line"/>
      <point x="229" y="98" type="line"/>
      <point x="229" y="-165" type="line"/>
    </contour>
    <contour>
      <point x="395" y="459" type="line"/>
      <point x="395" y="714" type="line"/>
      <point x="229" y="714" type="line"/>
      <point x="229" y="459" type="line"/>
    </contour>
    <component base="c"/>
  </outline>
</glyph>
<glyph name="yen" format="1">
  <advance width="739"/>
  <unicode hex="00A5"/>
  <outline>
    <contour>
      <point x="385" y="20" type="line"/>
      <point x="739" y="701" type="line"/>
      <point x="508" y="701" type="line"/>
      <point x="372" y="431" type="line"/>
      <point x="231" y="701" type="line"/>
      <point x="0" y="701" type="line"/>
      <point x="357" y="20" type="line"/>
    </contour>
    <contour>
      <point x="488" y="0" type="line"/>
      <point x="488" y="317" type="line"/>
      <point x="256" y="317" type="line"/>
      <point x="256" y="0" type="line"/>
    </contour>
    <contour>
      <point x="669" y="160" type="line"/>
      <point x="669" y="230" type="line"/>
      <point x="71" y="230" type="line"/>
      <point x="71" y="160" type="line"/>
    </contour>
    <contour>
      <point x="669" y="275" type="line"/>
      <point x="669" y="345" type="line"/>
      <point x="71" y="345" type="line"/>
      <point x="71" y="275" type="line"/>
    </contour>
  </outline>
</glyph>
<glyph name="brokenbar" format="1">
  <advance width="310"/>
  <unicode hex="00A6"/>
  <outline>
    <contour>
      <point x="253" y="392" type="line"/>
      <point x="253" y="742" type="line"/>
      <point x="57" y="742" type="line"/>
      <point x="57" y="392" type="line"/>
    </contour>
    <contour>
      <point x="253" y="-194" type="line"/>
      <point x="253" y="156" type="line"/>
      <point x="57" y="156" type="line"/>
      <point x="57" y="-194" type="line"/>
    </contour>
  </outline>
</glyph>
<glyph name="section" format="1">
  <advance width="603"/>
  <unicode hex="00A7"/>
  <outline>
    <contour>
      <point x="441" y="-90"/>
      <point x="533" y="-19"/>
      <point x="533" y="82" type="curve" smooth="yes"/>
      <point x="533" y="128"/>
      <point x="517" y="146"/>
      <point x="487" y="171" type="curve"/>
      <point x="545" y="202"/>
      <point x="578" y="248"/>
      <point x="578" y="308" type="curve" smooth="yes"/>
      <point x="578" y="483"/>
      <point x="283" y="478"/>
      <point x="283" y="530" type="curve" smooth="yes"/>
      <point x="283" y="539"/>
      <point x="293" y="546"/>
      <point x="316" y="546" type="curve" smooth="yes"/>
      <point x="354" y="546"/>
      <point x="418" y="526"/>
      <point x="501" y="486" type="curve"/>
      <point x="568" y="625" type="line"/>
      <point x="483" y="671"/>
      <point x="396" y="694"/>
      <point x="314" y="694" type="curve" smooth="yes"/>
      <point x="168" y="694"/>
      <point x="78" y="621"/>
      <point x="78" y="519" type="curve" smooth="yes"/>
      <point x="78" y="485"/>
      <point x="85" y="459"/>
      <point x="124" y="431" type="curve"/>
      <point x="66" y="400"/>
      <point x="33" y="354"/>
      <point x="33" y="293" type="curve" smooth="yes"/>
      <point x="33" y="118"/>
      <point x="322" y="123"/>
      <point x="322" y="75" type="curve" smooth="yes"/>
      <point x="322" y="66"/>
      <point x="312" y="60"/>
      <point x="284" y="60" type="curve" smooth="yes"/>
      <point x="230" y="60"/>
      <point x="159" y="83"/>
      <point x="84" y="128" type="curve"/>
      <point x="23" y="-12" type="line"/>
      <point x="101" y="-64"/>
      <point x="197" y="-90"/>
      <point x="289" y="-90" type="curve" smooth="yes"/>
    </contour>
    <contour>
      <point x="271" y="277"/>
      <point x="237" y="289"/>
      <point x="237" y="308" type="curve" smooth="yes"/>
      <point x="237" y="321"/>
      <point x="252" y="329"/>
      <point x="285" y="329" type="curve" smooth="yes"/>
      <point x="328" y="329"/>
      <point x="368" y="316"/>
      <point x="368" y="297" type="curve" smooth="yes"/>
      <point x="368" y="285"/>
      <point x="351" y="277"/>
      <point x="315" y="277" type="curve" smooth="yes"/>
    </contour>
  </outline>
</glyph>
<glyph name="copyright" format="1">
  <advance width="735"/>
  <unicode hex="00A9"/>
  <outline>
    <contour>
      <point x="557" y="9"/>
      <point x="706" y="165"/>
      <point x="706" y="350" type="curve" smooth="yes"/>
      <point x="706" y="536"/>
      <point x="558" y="689"/>
      <point x="368" y="689" type="curve" smooth="yes"/>
      <point x="177" y="689"/>
      <point x="29" y="533"/>
      <point x="29" y="348" type="curve" smooth="yes"/>
      <point x="29" y="163"/>
      <point x="176" y="9"/>
      <point x="366" y="9" type="curve" smooth="yes"/>
    </contour>
    <contour>
      <point x="420" y="187"/>
      <point x="473" y="211"/>
      <point x="508" y="250" type="curve"/>
      <point x="448" y="314" type="line"/>
      <point x="427" y="292"/>
      <point x="399" y="278"/>
      <point x="377" y="278" type="curve" smooth="yes"/>
      <point x="339" y="278"/>
      <point x="311" y="308"/>
      <point x="311" y="351" type="curve" smooth="yes"/>
      <point x="311" y="393"/>
      <point x="339" y="423"/>
      <point x="377" y="423" type="curve" smooth="yes"/>
      <point x="401" y="423"/>
      <point x="429" y="406"/>
      <point x="448" y="380" type="curve"/>
      <point x="508" y="452" type="line"/>
      <point x="476" y="487"/>
      <point x="423" y="510"/>
      <point x="375" y="510" type="curve" smooth="yes"/>
      <point x="276" y="510"/>
      <point x="204" y="442"/>
      <point x="204" y="349" type="curve" smooth="yes"/>
      <point x="204" y="255"/>
      <point x="274" y="187"/>
      <point x="371" y="187" type="curve" smooth="yes"/>
    </contour>
    <contour>
      <point x="232" y="109"/>
      <point x="129" y="217"/>
      <point x="129" y="348" type="curve" smooth="yes"/>
      <point x="129" y="479"/>
      <point x="233" y="589"/>
      <point x="368" y="589" type="curve" smooth="yes"/>
      <point x="502" y="589"/>
      <point x="606" y="481"/>
      <point x="606" y="350" type="curve" smooth="yes"/>
      <point x="606" y="219"/>
      <point x="502" y="109"/>
      <point x="366" y="109" type="curve" smooth="yes"/>
    </contour>
  </outline>
</glyph>
<glyph name="ordfeminine" format="1">
  <advance width="418"/>
  <unicode hex="00AA"/>
  <outline>
    <contour>
      <point x="382" y="420" type="line"/>
      <point x="382" y="593" type="line" smooth="yes"/>
      <point x="382" y="703"/>
      <point x="311" y="752"/>
      <point x="188" y="752" type="curve" smooth="yes"/>
      <point x="134" y="752"/>
      <point x="71" y="739"/>
      <point x="29" y="715" type="curve"/>
      <point x="77" y="622" type="line"/>
      <point x="100" y="638"/>
      <point x="135" y="647"/>
      <point x="162" y="647" type="curve" smooth="yes"/>
      <point x="210" y="647"/>
      <point x="229" y="630"/>
      <point x="229" y="601" type="curve" smooth="yes"/>
      <point x="229" y="492" type="line"/>
      <point x="240" y="477" type="line"/>
      <point x="240" y="420" type="line"/>
    </contour>
    <contour>
      <point x="202" y="414"/>
      <point x="237" y="437"/>
      <point x="248" y="485" type="curve"/>
      <point x="229" y="527" type="line"/>
      <point x="222" y="507"/>
      <point x="205" y="499"/>
      <point x="188" y="499" type="curve" smooth="yes"/>
      <point x="169" y="499"/>
      <point x="157" y="509"/>
      <point x="157" y="522" type="curve" smooth="yes"/>
      <point x="157" y="538"/>
      <point x="170" y="546"/>
      <point x="198" y="546" type="curve" smooth="yes"/>
      <point x="243" y="546" type="line"/>
      <point x="243" y="614" type="line"/>
      <point x="174" y="614" type="line" smooth="yes"/>
      <point x="64" y="614"/>
      <point x="13" y="580"/>
      <point x="13" y="516" type="curve" smooth="yes"/>
      <point x="13" y="460"/>
      <point x="56" y="414"/>
      <point x="142" y="414" type="curve" smooth="yes"/>
    </contour>
  </outline>
</glyph>
<glyph name="logicalnot" format="1">
  <advance width="590"/>
  <unicode hex="00AC"/>
  <outline>
    <contour>
      <point x="540" y="309" type="line"/>
      <point x="540" y="449" type="line"/>
      <point x="30" y="449" type="line"/>
      <point x="30" y="309" type="line"/>
    </contour>
    <contour>
      <point x="540" y="129" type="line"/>
      <point x="540" y="449" type="line"/>
      <point x="380" y="449" type="line"/>
      <point x="380" y="129" type="line"/>
    </contour>
  </outline>
</glyph>
<glyph name="registered" format="1">
  <advance width="735"/>
  <unicode hex="00AE"/>
  <outline>
    <contour>
      <point x="557" y="9"/>
      <point x="706" y="165"/>
      <point x="706" y="350" type="curve" smooth="yes"/>
      <point x="706" y="536"/>
      <point x="558" y="689"/>
      <point x="368" y="689" type="curve" smooth="yes"/>
      <point x="177" y="689"/>
      <point x="29" y="533"/>
      <point x="29" y="348" type="curve" smooth="yes"/>
      <point x="29" y="163"/>
      <point x="176" y="9"/>
      <point x="366" y="9" type="curve" smooth="yes"/>
    </contour>
    <contour>
      <point x="520" y="211" type="line"/>
      <point x="450" y="325" type="line"/>
      <point x="354" y="325" type="line"/>
      <point x="407" y="211" type="line"/>
    </contour>
    <contour>
      <point x="232" y="109"/>
      <point x="129" y="217"/>
      <point x="129" y="348" type="curve" smooth="yes"/>
      <point x="129" y="479"/>
      <point x="233" y="589"/>
      <point x="368" y="589" type="curve" smooth="yes"/>
      <point x="502" y="589"/>
      <point x="606" y="481"/>
      <point x="606" y="350" type="curve" smooth="yes"/>
      <point x="606" y="219"/>
      <point x="502" y="109"/>
      <point x="366" y="109" type="curve" smooth="yes"/>
    </contour>
    <contour>
      <point x="338" y="211" type="line"/>
      <point x="338" y="289" type="line"/>
      <point x="379" y="289" type="line" smooth="yes"/>
      <point x="461" y="289"/>
      <point x="508" y="331"/>
      <point x="508" y="405" type="curve" smooth="yes"/>
      <point x="508" y="473"/>
      <point x="461" y="512"/>
      <point x="379" y="512" type="curve" smooth="yes"/>
      <point x="238" y="512" type="line"/>
      <point x="238" y="211" type="line"/>
    </contour>
    <contour>
      <point x="338" y="437" type="line"/>
      <point x="379" y="437" type="line" smooth="yes"/>
      <point x="401" y="437"/>
      <point x="413" y="424"/>
      <point x="413" y="401" type="curve" smooth="yes"/>
      <point x="413" y="378"/>
      <point x="401" y="365"/>
      <point x="379" y="365" type="curve" smooth="yes"/>
      <point x="338" y="365" type="line"/>
    </contour>
  </outline>
</glyph>
<glyph name="plusminus" format="1">
  <advance width="620"/>
  <unicode hex="00B1"/>
  <outline>
    <contour>
      <point x="565" y="0" type="line"/>
      <point x="565" y="170" type="line"/>
      <point x="55" y="170" type="line"/>
      <point x="55" y="0" type="line"/>
    </contour>
    <contour>
      <point x="400" y="235" type="line"/>
      <point x="400" y="700" type="line"/>
      <point x="220" y="700" type="line"/>
      <point x="220" y="235" type="line"/>
    </contour>
    <contour>
      <point x="565" y="387" type="line"/>
      <point x="565" y="548" type="line"/>
      <point x="55" y="548" type="line"/>
      <point x="55" y="387" type="line"/>
    </contour>
  </outline>
</glyph>
<glyph name="periodcentered" format="1">
  <advance width="242"/>
  <unicode hex="00B7"/>
  <outline>
    <contour>
      <point x="193" y="192"/>
      <point x="235" y="234"/>
      <point x="235" y="295" type="curve" smooth="yes"/>
      <point x="235" y="355"/>
      <point x="193" y="397"/>
      <point x="132" y="397" type="curve" smooth="yes"/>
      <point x="72" y="397"/>
      <point x="30" y="355"/>
      <point x="30" y="295" type="curve" smooth="yes"/>
      <point x="30" y="234"/>
      <point x="72" y="192"/>
      <point x="132" y="192" type="curve" smooth="yes"/>
    </contour>
    <contour>
      <point x="132" y="295" type="move" name="_dot"/>
    </contour>
  </outline>
</glyph>
<glyph name="AE" format="1">
  <advance width="1116"/>
  <unicode hex="00C6"/>
  <outline>
    <contour>
      <point x="221" y="0" type="line"/>
      <point x="527" y="616" type="line"/>
      <point x="385" y="522" type="line"/>
      <point x="584" y="522" type="line"/>
      <point x="584" y="700" type="line"/>
      <point x="350" y="700" type="line"/>
      <point x="-19" y="0" type="line"/>
    </contour>
    <contour>
      <point x="584" y="103" type="line"/>
      <point x="584" y="273" type="line"/>
      <point x="219" y="273" type="line"/>
      <point x="219" y="103" type="line"/>
    </contour>
    <contour>
      <point x="1085" y="0" type="line"/>
      <point x="1085" y="178" type="line"/>
      <point x="735" y="178" type="line"/>
      <point x="735" y="270" type="line"/>
      <point x="1031" y="270" type="line"/>
      <point x="1031" y="440" type="line"/>
      <point x="735" y="440" type="line"/>
      <point x="735" y="522" type="line"/>
      <point x="1072" y="522" type="line"/>
      <point x="1072" y="700" type="line"/>
      <point x="503" y="700" type="line"/>
      <point x="503" y="0" type="line"/>
    </contour>
    <contour>
      <point x="619" y="700" type="move" name="top"/>
    </contour>
    <contour>
      <point x="619" y="0" type="move" name="bottom"/>
    </contour>
  </outline>
</glyph>
<glyph name="multiply" format="1">
  <advance width="620"/>
  <unicode hex="00D7"/>
  <outline>
    <contour>
      <point x="190" y="110" type="line"/>
      <point x="550" y="470" type="line"/>
      <point x="430" y="590" type="line"/>
      <point x="70" y="230" type="line"/>
    </contour>
    <contour>
      <point x="430" y="110" type="line"/>
      <point x="550" y="230" type="line"/>
      <point x="190" y="590" type="line"/>
      <point x="70" y="470" type="line"/>
    </contour>
  </outline>
</glyph>
<glyph name="Oslash" format="1">
  <advance width="848"/>
  <unicode hex="00D8"/>
  <outline>
    <component base="O"/>
    <component base="slashlongcomb.case" xOffset="24"/>
    <contour>
      <point x="424" y="700" type="move" name="top"/>
    </contour>
    <contour>
      <point x="424" y="0" type="move" name="bottom"/>
    </contour>
  </outline>
</glyph>
<glyph name="eth" format="1">
  <advance width="664"/>
  <unicode hex="00F0"/>
  <outline>
    <contour>
      <point x="508" y="-16"/>
      <point x="643" y="114"/>
      <point x="643" y="338" type="curve" smooth="yes"/>
      <point x="643" y="615"/>
      <point x="486" y="758"/>
      <point x="226" y="758" type="curve" smooth="yes"/>
      <point x="169" y="758"/>
      <point x="122" y="752"/>
      <point x="70" y="741" type="curve"/>
      <point x="91" y="578" type="line"/>
      <point x="131" y="591"/>
      <point x="176" y="596"/>
      <point x="212" y="596" type="curve" smooth="yes"/>
      <point x="347" y="596"/>
      <point x="410" y="527"/>
      <point x="410" y="387" type="curve" smooth="yes"/>
      <point x="410" y="347"/>
      <point x="410" y="328"/>
      <point x="410" y="308" type="curve"/>
      <point x="464" y="345" type="line"/>
      <point x="425" y="414"/>
      <point x="364" y="453"/>
      <point x="263" y="453" type="curve" smooth="yes"/>
      <point x="131" y="453"/>
      <point x="21" y="364"/>
      <point x="21" y="229" type="curve" smooth="yes"/>
      <point x="21" y="81"/>
      <point x="145" y="-16"/>
      <point x="304" y="-16" type="curve" smooth="yes"/>
    </contour>
    <contour>
      <point x="279" y="147"/>
      <point x="245" y="174"/>
      <point x="245" y="218" type="curve" smooth="yes"/>
      <point x="245" y="262"/>
      <point x="279" y="290"/>
      <point x="322" y="290" type="curve" smooth="yes"/>
      <point x="365" y="290"/>
      <point x="399" y="262"/>
      <point x="399" y="218" type="curve" smooth="yes"/>
      <point x="399" y="174"/>
      <point x="365" y="147"/>
      <point x="322" y="147" type="curve" smooth="yes"/>
    </contour>
    <contour>
      <point x="625" y="627" type="line"/>
      <point x="590" y="718" type="line"/>
      <point x="103" y="541" type="line"/>
      <point x="138" y="450" type="line"/>
    </contour>
  </outline>
</glyph>
<glyph name="divide" format="1">
  <advance width="520"/>
  <unicode hex="00F7"/>
  <outline>
    <contour>
      <point x="490" y="259" type="line"/>
      <point x="490" y="399" type="line"/>
      <point x="30" y="399" type="line"/>
      <point x="30" y="259" type="line"/>
    </contour>
    <component base="dotaccentcomb" xOffset="147" yOffset="-54" xScale="0.8" yScale="0.8"/>
    <component base="dotaccentcomb" xOffset="147" yOffset="-414" xScale="0.8" yScale="0.8"/>
  </outline>
</glyph>
<glyph name="oslash" format="1">
  <advance width="666"/>
  <unicode hex="00F8"/>
  <outline>
    <component base="o"/>
    <component base="slashlongcomb" xOffset="3"/>
    <contour>
      <point x="333" y="547" type="move" name="top"/>
    </contour>
  </outline>
</glyph>
<glyph name="thorn" format="1">
  <advance width="694"/>
  <unicode hex="00FE"/>
  <outline>
    <contour>
      <point x="554" y="-10"/>
      <point x="673" y="97"/>
      <point x="673" y="273" type="curve" smooth="yes"/>
      <point x="673" y="449"/>
      <point x="554" y="557"/>
      <point x="412" y="557" type="curve" smooth="yes"/>
      <point x="263" y="557"/>
      <point x="207" y="470"/>
      <point x="207" y="273" type="curve" smooth="yes"/>
      <point x="207" y="79"/>
      <point x="271" y="-10"/>
      <point x="412" y="-10" type="curve" smooth="yes"/>
    </contour>
    <contour>
      <point x="276" y="-194" type="line"/>
      <point x="276" y="73" type="line"/>
      <point x="266" y="273" type="line"/>
      <point x="265" y="473" type="line"/>
      <point x="265" y="742" type="line"/>
      <point x="50" y="742" type="line"/>
      <point x="50" y="-194" type="line"/>
    </contour>
    <contour>
      <point x="311" y="166"/>
      <point x="272" y="202"/>
      <point x="272" y="273" type="curve" smooth="yes"/>
      <point x="272" y="344"/>
      <point x="311" y="381"/>
      <point x="361" y="381" type="curve" smooth="yes"/>
      <point x="411" y="381"/>
      <point x="450" y="344"/>
      <point x="450" y="273" type="curve" smooth="yes"/>
      <point x="450" y="202"/>
      <point x="411" y="166"/>
      <point x="361" y="166" type="curve" smooth="yes"/>
    </contour>
    <contour>
      <point x="412" y="547" type="move" name="top"/>
    </contour>
    <contour>
      <point x="412" y="0" type="move" name="bottom"/>
    </contour>
  </outline>
</glyph>
<glyph name="Dcroat" format="1">
  <advance width="846"/>
  <unicode hex="0110"/>
  <outline>
    <component base="Eth"/>
    <contour>
      <point x="182" y="351" type="move" name="center"/>
    </contour>
    <contour>
      <point x="364" y="0" type="move" name="bottom"/>
    </contour>
    <contour>
      <point x="352" y="701" type="move" name="top"/>
    </contour>
  </outline>
</glyph>
<glyph name="eogonek" format="1">
  <advance width="656"/>
  <unicode hex="0119"/>
  <outline>
    <contour>
      <point x="514" y="-240"/>
      <point x="560" y="-230"/>
      <point x="584" y="-217" type="curve"/>
      <point x="557" y="-124" type="line"/>
      <point x="542" y="-131"/>
      <point x="520" y="-138"/>
      <point x="500" y="-138" type="curve" smooth="yes"/>
      <point x="465" y="-138"/>
      <point x="445" y="-117"/>
      <point x="445" y="-92" type="curve" smooth="yes"/>
      <point x="445" y="-52"/>
      <point x="465" y="-22"/>
      <point x="551" y="41" type="curve" smooth="yes"/>
      <point x="567" y="52"/>
      <point x="581" y="64"/>
      <point x="594" y="78" type="curve"/>
      <point x="478" y="197" type="line"/>
      <point x="441" y="170"/>
      <point x="412" y="157"/>
      <point x="361" y="157" type="curve" smooth="yes"/>
      <point x="285" y="157"/>
      <point x="241" y="196"/>
      <point x="241" y="267" type="curve" smooth="yes"/>
      <point x="241" y="301" type="line" smooth="yes"/>
      <point x="241" y="364"/>
      <point x="277" y="403"/>
      <point x="334" y="403" type="curve" smooth="yes"/>
      <point x="391" y="403"/>
      <point x="427" y="364"/>
      <point x="427" y="301" type="curve"/>
      <point x="515" y="330" type="line"/>
      <point x="209" y="330" type="line"/>
      <point x="209" y="221" type="line"/>
      <point x="631" y="221" type="line"/>
      <point x="633" y="237"/>
      <point x="635" y="258"/>
      <point x="635" y="274" type="curve" smooth="yes"/>
      <point x="635" y="459"/>
      <point x="495" y="557"/>
      <point x="332" y="557" type="curve" smooth="yes"/>
      <point x="155" y="557"/>
      <point x="21" y="440"/>
      <point x="21" y="274" type="curve" smooth="yes"/>
      <point x="21" y="111"/>
      <point x="151" y="-10"/>
      <point x="354" y="-10" type="curve" smooth="yes"/>
      <point x="378" y="-10"/>
      <point x="424" y="-8"/>
      <point x="449" y="0" type="curve"/>
      <point x="424" y="24" type="line"/>
      <point x="358" y="2"/>
      <point x="313" y="-55"/>
      <point x="313" y="-114" type="curve" smooth="yes"/>
      <point x="313" y="-192"/>
      <point x="371" y="-240"/>
      <point x="471" y="-240" type="curve" smooth="yes"/>
    </contour>
    <contour>
      <point x="332" y="547" type="move" name="top"/>
    </contour>
    <contour>
      <point x="332" y="0" type="move" name="bottom"/>
    </contour>
  </outline>
</glyph>
<glyph name="idotless" format="1">
  <advance width="325"/>
  <unicode hex="0131"/>
  <outline>
    <contour>
      <point x="275" y="0" type="line"/>
      <point x="275" y="547" type="line"/>
      <point x="50" y="547" type="line"/>
      <point x="50" y="0" type="line"/>
    </contour>
    <contour>
      <point x="275" y="0" type="move" name="ogonek"/>
    </contour>
    <contour>
      <point x="163" y="0" type="move" name="bottom"/>
    </contour>
    <contour>
      <point x="163" y="547" type="move" name="top"/>
    </contour>
  </outline>
</glyph>
<glyph name="IJ" format="1">
  <advance width="729"/>
  <unicode hex="0132"/>
  <outline>
    <contour>
      <point x="538" y="-10"/>
      <point x="678" y="111"/>
      <point x="678" y="331" type="curve" smooth="yes"/>
      <point x="678" y="700" type="line"/>
      <point x="442" y="700" type="line"/>
      <point x="442" y="318" type="line" smooth="yes"/>
      <point x="442" y="221"/>
      <point x="404" y="178"/>
      <point x="317" y="178" type="curve" smooth="yes"/>
      <point x="258" y="178"/>
      <point x="183" y="200"/>
      <point x="117" y="242" type="curve"/>
      <point x="31" y="75" type="line"/>
      <point x="104" y="23"/>
      <point x="208" y="-10"/>
      <point x="328" y="-10" type="curve" smooth="yes"/>
    </contour>
    <contour>
      <point x="287" y="336" type="line"/>
      <point x="287" y="700" type="line"/>
      <point x="51" y="700" type="line"/>
      <point x="51" y="336" type="line"/>
    </contour>
    <contour>
      <point x="169" y="700" type="move" name="top"/>
    </contour>
  </outline>
</glyph>
<glyph name="kgreenlandic" format="1">
  <advance width="690"/>
  <unicode hex="0138"/>
  <outline>
    <contour>
      <point x="337" y="194" type="line"/>
      <point x="450" y="285" type="line"/>
      <point x="700" y="547" type="line"/>
      <point x="433" y="547" type="line"/>
      <point x="244" y="356" type="line"/>
      <point x="239" y="90" type="line"/>
    </contour>
    <contour>
      <point x="276" y="0" type="line"/>
      <point x="276" y="547" type="line"/>
      <point x="50" y="547" type="line"/>
      <point x="50" y="0" type="line"/>
    </contour>
    <contour>
      <point x="718" y="0" type="line"/>
      <point x="434" y="361" type="line"/>
      <point x="295" y="190" type="line"/>
      <point x="445" y="0" type="line"/>
    </contour>
    <contour>
      <point x="323" y="547" type="move" name="top"/>
    </contour>
    <contour>
      <point x="323" y="0" type="move" name="bottom"/>
    </contour>
  </outline>
</glyph>
<glyph name="Eng" format="1">
  <advance width="804"/>
  <unicode hex="014A"/>
  <outline>
    <contour>
      <point x="287" y="0" type="line"/>
      <point x="287" y="426" type="line"/>
      <point x="197" y="426" type="line"/>
      <point x="553" y="0" type="line"/>
      <point x="607" y="274" type="line"/>
      <point x="251" y="700" type="line"/>
      <point x="57" y="700" type="line"/>
      <point x="57" y="0" type="line"/>
    </contour>
    <contour>
      <point x="649" y="-204"/>
      <point x="747" y="-110"/>
      <point x="747" y="82" type="curve" smooth="yes"/>
      <point x="747" y="700" type="line"/>
      <point x="517" y="700" type="line"/>
      <point x="517" y="72" type="line" smooth="yes"/>
      <point x="517" y="15"/>
      <point x="490" y="-13"/>
      <point x="441" y="-13" type="curve" smooth="yes"/>
      <point x="417" y="-13"/>
      <point x="395" y="-6"/>
      <point x="372" y="10" type="curve"/>
      <point x="264" y="-153" type="line"/>
      <point x="318" y="-189"/>
      <point x="385" y="-204"/>
      <point x="461" y="-204" type="curve" smooth="yes"/>
    </contour>
  </outline>
</glyph>
<glyph name="OE" format="1">
  <advance width="1146"/>
  <unicode hex="0152"/>
  <outline>
    <contour>
      <point x="593" y="0" type="line"/>
      <point x="593" y="184" type="line"/>
      <point x="434" y="184" type="line" smooth="yes"/>
      <point x="335" y="184"/>
      <point x="267" y="243"/>
      <point x="267" y="350" type="curve" smooth="yes"/>
      <point x="267" y="457"/>
      <point x="335" y="516"/>
      <point x="434" y="516" type="curve" smooth="yes"/>
      <point x="593" y="516" type="line"/>
      <point x="593" y="700" type="line"/>
      <point x="424" y="700" type="line" smooth="yes"/>
      <point x="190" y="700"/>
      <point x="29" y="567"/>
      <point x="29" y="350" type="curve" smooth="yes"/>
      <point x="29" y="133"/>
      <point x="190" y="0"/>
      <point x="424" y="0" type="curve" smooth="yes"/>
    </contour>
    <contour>
      <point x="1115" y="0" type="line"/>
      <point x="1115" y="178" type="line"/>
      <point x="765" y="178" type="line"/>
      <point x="765" y="270" type="line"/>
      <point x="1061" y="270" type="line"/>
      <point x="1061" y="440" type="line"/>
      <point x="765" y="440" type="line"/>
      <point x="765" y="522" type="line"/>
      <point x="1102" y="522" type="line"/>
      <point x="1102" y="700" type="line"/>
      <point x="533" y="700" type="line"/>
      <point x="533" y="0" type="line"/>
    </contour>
    <contour>
      <point x="649" y="700" type="move" name="top"/>
    </contour>
    <contour>
      <point x="649" y="0" type="move" name="bottom"/>
    </contour>
  </outline>
</glyph>
<glyph name="oe" format="1">
  <advance width="1056"/>
  <unicode hex="0153"/>
  <outline>
    <contour>
      <point x="509" y="-10"/>
      <point x="619" y="108"/>
      <point x="619" y="274" type="curve" smooth="yes"/>
      <point x="619" y="440"/>
      <point x="509" y="557"/>
      <point x="329" y="557" type="curve" smooth="yes"/>
      <point x="151" y="557"/>
      <point x="21" y="440"/>
      <point x="21" y="274" type="curve" smooth="yes"/>
      <point x="21" y="108"/>
      <point x="151" y="-10"/>
      <point x="329" y="-10" type="curve" smooth="yes"/>
    </contour>
    <contour>
      <point x="283" y="166"/>
      <point x="244" y="203"/>
      <point x="244" y="274" type="curve" smooth="yes"/>
      <point x="244" y="345"/>
      <point x="283" y="381"/>
      <point x="333" y="381" type="curve" smooth="yes"/>
      <point x="383" y="381"/>
      <point x="422" y="345"/>
      <point x="422" y="274" type="curve" smooth="yes"/>
      <point x="422" y="203"/>
      <point x="383" y="166"/>
      <point x="333" y="166" type="curve" smooth="yes"/>
    </contour>
    <contour>
      <point x="862" y="-10"/>
      <point x="940" y="20"/>
      <point x="994" y="78" type="curve"/>
      <point x="878" y="197" type="line"/>
      <point x="841" y="170"/>
      <point x="812" y="157"/>
      <point x="763" y="157" type="curve" smooth="yes"/>
      <point x="689" y="157"/>
      <point x="645" y="196"/>
      <point x="645" y="267" type="curve" smooth="yes"/>
      <point x="645" y="301" type="line" smooth="yes"/>
      <point x="645" y="364"/>
      <point x="681" y="403"/>
      <point x="736" y="403" type="curve" smooth="yes"/>
      <point x="791" y="403"/>
      <point x="827" y="364"/>
      <point x="827" y="301" type="curve"/>
      <point x="869" y="328" type="line"/>
      <point x="630" y="328" type="line"/>
      <point x="630" y="219" type="line"/>
      <point x="1031" y="219" type="line"/>
      <point x="1033" y="235"/>
      <point x="1035" y="256"/>
      <point x="1035" y="274" type="curve" smooth="yes"/>
      <point x="1035" y="459"/>
      <point x="895" y="557"/>
      <point x="739" y="557" type="curve" smooth="yes"/>
      <point x="562" y="557"/>
      <point x="442" y="440"/>
      <point x="442" y="274" type="curve" smooth="yes"/>
      <point x="442" y="111"/>
      <point x="563" y="-10"/>
      <point x="756" y="-10" type="curve" smooth="yes"/>
    </contour>
    <contour>
      <point x="534" y="547" type="move" name="top"/>
    </contour>
    <contour>
      <point x="534" y="0" type="move" name="bottom"/>
    </contour>
  </outline>
</glyph>
<glyph name="florin" format="1">
  <advance width="519"/>
  <unicode hex="0192"/>
  <outline>
    <contour>
      <point x="192" y="-204"/>
      <point x="290" y="-114"/>
      <point x="308" y="28" type="curve" smooth="yes"/>
      <point x="354" y="399" type="line"/>
      <point x="358" y="492" type="line"/>
      <point x="361" y="518" type="line" smooth="yes"/>
      <point x="366" y="562"/>
      <point x="391" y="581"/>
      <point x="423" y="581" type="curve" smooth="yes"/>
      <point x="441" y="581"/>
      <point x="458" y="575"/>
      <point x="473" y="568" type="curve"/>
      <point x="546" y="725" type="line"/>
      <point x="515" y="743"/>
      <point x="463" y="752"/>
      <point x="415" y="752" type="curve" smooth="yes"/>
      <point x="259" y="752"/>
      <point x="160" y="662"/>
      <point x="143" y="520" type="curve" smooth="yes"/>
      <point x="83" y="30" type="line" smooth="yes"/>
      <point x="78" y="-14"/>
      <point x="55" y="-33"/>
      <point x="28" y="-33" type="curve" smooth="yes"/>
      <point x="10" y="-33"/>
      <point x="-7" y="-28"/>
      <point x="-22" y="-20" type="curve"/>
      <point x="-95" y="-177" type="line"/>
      <point x="-62" y="-195"/>
      <point x="-12" y="-204"/>
      <point x="41" y="-204" type="curve" smooth="yes"/>
    </contour>
    <contour>
      <point x="460" y="352" type="line"/>
      <point x="480" y="517" type="line"/>
      <point x="67" y="517" type="line"/>
      <point x="47" y="352" type="line"/>
    </contour>
  </outline>
</glyph>
<glyph name="ohorn" format="1">
  <advance width="666"/>
  <unicode hex="01A1"/>
  <outline>
    <contour>
      <point x="515" y="-10"/>
      <point x="645" y="108"/>
      <point x="645" y="274" type="curve" smooth="yes"/>
      <point x="645" y="393"/>
      <point x="579" y="486"/>
      <point x="474" y="530" type="curve"/>
      <point x="323" y="420" type="line"/>
      <point x="355" y="413"/>
      <point x="395" y="408"/>
      <point x="436" y="408" type="curve" smooth="yes"/>
      <point x="568" y="408"/>
      <point x="658" y="480"/>
      <point x="658" y="599" type="curve" smooth="yes"/>
      <point x="658" y="644"/>
      <point x="642" y="681"/>
      <point x="619" y="710" type="curve"/>
      <point x="471" y="665" type="line"/>
      <point x="483" y="651"/>
      <point x="493" y="630"/>
      <point x="493" y="608" type="curve" smooth="yes"/>
      <point x="493" y="571"/>
      <point x="476" y="547"/>
      <point x="443" y="547" type="curve" smooth="yes"/>
      <point x="415" y="547"/>
      <point x="386" y="557"/>
      <point x="336" y="557" type="curve" smooth="yes"/>
      <point x="151" y="557"/>
      <point x="21" y="440"/>
      <point x="21" y="274" type="curve" smooth="yes"/>
      <point x="21" y="108"/>
      <point x="151" y="-10"/>
      <point x="333" y="-10" type="curve" smooth="yes"/>
    </contour>
    <contour>
      <point x="283" y="166"/>
      <point x="244" y="203"/>
      <point x="244" y="274" type="curve" smooth="yes"/>
      <point x="244" y="345"/>
      <point x="283" y="381"/>
      <point x="333" y="381" type="curve" smooth="yes"/>
      <point x="383" y="381"/>
      <point x="422" y="345"/>
      <point x="422" y="274" type="curve" smooth="yes"/>
      <point x="422" y="203"/>
      <point x="383" y="166"/>
      <point x="333" y="166" type="curve" smooth="yes"/>
    </contour>
    <contour>
      <point x="333" y="547" type="move" name="top"/>
    </contour>
    <contour>
      <point x="333" y="0" type="move" name="bottom"/>
    </contour>
  </outline>
</glyph>
<glyph name="oogonek" format="1">
  <advance width="666"/>
  <unicode hex="01EB"/>
  <outline>
    <contour>
      <point x="408" y="-240"/>
      <point x="454" y="-230"/>
      <point x="478" y="-217" type="curve"/>
      <point x="451" y="-124" type="line"/>
      <point x="436" y="-131"/>
      <point x="414" y="-138"/>
      <point x="392" y="-138" type="curve" smooth="yes"/>
      <point x="355" y="-138"/>
      <point x="339" y="-118"/>
      <point x="339" y="-96" type="curve" smooth="yes"/>
      <point x="339" y="-62"/>
      <point x="362" y="-28"/>
      <point x="460" y="11" type="curve" smooth="yes"/>
      <point x="571" y="55"/>
      <point x="645" y="151"/>
      <point x="645" y="274" type="curve" smooth="yes"/>
      <point x="645" y="440"/>
      <point x="515" y="557"/>
      <point x="333" y="557" type="curve" smooth="yes"/>
      <point x="151" y="557"/>
      <point x="21" y="440"/>
      <point x="21" y="274" type="curve" smooth="yes"/>
      <point x="21" y="108"/>
      <point x="151" y="-10"/>
      <point x="333" y="-10" type="curve" smooth="yes"/>
      <point x="349" y="-10"/>
      <point x="364" y="-8"/>
      <point x="380" y="-6" type="curve"/>
      <point x="374" y="39" type="line"/>
      <point x="268" y="16"/>
      <point x="207" y="-43"/>
      <point x="207" y="-117" type="curve" smooth="yes"/>
      <point x="207" y="-192"/>
      <point x="265" y="-240"/>
      <point x="365" y="-240" type="curve" smooth="yes"/>
    </contour>
    <contour>
      <point x="283" y="166"/>
      <point x="244" y="203"/>
      <point x="244" y="274" type="curve" smooth="yes"/>
      <point x="244" y="345"/>
      <point x="283" y="381"/>
      <point x="333" y="381" type="curve" smooth="yes"/>
      <point x="383" y="381"/>
      <point x="422" y="345"/>
      <point x="422" y="274" type="curve" smooth="yes"/>
      <point x="422" y="203"/>
      <point x="383" y="166"/>
      <point x="333" y="166" type="curve" smooth="yes"/>
    </contour>
    <contour>
      <point x="330" y="0" type="move" name="bottom"/>
    </contour>
    <contour>
      <point x="330" y="547" type="move" name="top"/>
    </contour>
    <contour>
      <point x="426" y="547" type="move" name="topright"/>
    </contour>
    <contour>
      <point x="330" y="274" type="move" name="center"/>
    </contour>
  </outline>
</glyph>
<glyph name="jdotless" format="1">
  <advance width="333"/>
  <unicode hex="0237"/>
  <outline>
    <contour>
      <point x="195" y="-204"/>
      <point x="283" y="-113"/>
      <point x="283" y="28" type="curve" smooth="yes"/>
      <point x="283" y="547" type="line"/>
      <point x="57" y="547" type="line"/>
      <point x="57" y="30" type="line" smooth="yes"/>
      <point x="57" y="-14"/>
      <point x="37" y="-33"/>
      <point x="10" y="-33" type="curve" smooth="yes"/>
      <point x="-8" y="-33"/>
      <point x="-26" y="-28"/>
      <point x="-41" y="-20" type="curve"/>
      <point x="-95" y="-177" type="line"/>
      <point x="-60" y="-195"/>
      <point x="-9" y="-204"/>
      <point x="44" y="-204" type="curve" smooth="yes"/>
    </contour>
    <contour>
      <point x="170" y="547" type="move" name="top"/>
    </contour>
  </outline>
</glyph>
<glyph name="apostrophemod" format="1">
  <advance width="202"/>
  <unicode hex="02BC"/>
  <outline>
    <contour>
      <point x="143" y="436" type="line"/>
      <point x="173" y="700" type="line"/>
      <point x="28" y="700" type="line"/>
      <point x="28" y="436" type="line"/>
    </contour>
  </outline>
</glyph>
<glyph name="verticallinemod" format="1">
  <advance width="202"/>
  <unicode hex="02C8"/>
  <outline>
    <contour>
      <point x="173" y="497" type="line"/>
      <point x="173" y="701" type="line"/>
      <point x="29" y="701" type="line"/>
      <point x="29" y="497" type="line"/>
    </contour>
  </outline>
</glyph>
<glyph name="firsttonechinese" format="1">
  <advance width="600"/>
  <unicode hex="02C9"/>
  <outline>
    <contour>
      <point x="510" y="628" type="line"/>
      <point x="510" y="746" type="line"/>
      <point x="90" y="746" type="line"/>
      <point x="90" y="628" type="line"/>
    </contour>
    <contour>
      <point x="300" y="730" type="move" name="top"/>
    </contour>
    <contour>
      <point x="300" y="547" type="move" name="_top"/>
    </contour>
  </outline>
</glyph>
<glyph name="secondtonechinese" format="1">
  <advance width="600"/>
  <unicode hex="02CA"/>
  <outline>
    <contour>
      <point x="345" y="607" type="line"/>
      <point x="542" y="767" type="line"/>
      <point x="327" y="767" type="line"/>
      <point x="195" y="607" type="line"/>
    </contour>
    <contour>
      <point x="300" y="760" type="move" name="top"/>
    </contour>
    <contour>
      <point x="300" y="547" type="move" name="_top"/>
    </contour>
  </outline>
</glyph>
<glyph name="fourthtonechinese" format="1">
  <advance width="600"/>
  <unicode hex="02CB"/>
  <outline>
    <contour>
      <point x="405" y="607" type="line"/>
      <point x="273" y="767" type="line"/>
      <point x="58" y="767" type="line"/>
      <point x="255" y="607" type="line"/>
    </contour>
    <contour>
      <point x="300" y="760" type="move" name="top"/>
    </contour>
    <contour>
      <point x="300" y="547" type="move" name="_top"/>
    </contour>
  </outline>
</glyph>
<glyph name="gravecomb" format="1">
  <advance width="600"/>
  <unicode hex="0300"/>
  <outline>
    <contour>
      <point x="405" y="607" type="line"/>
      <point x="273" y="767" type="line"/>
      <point x="58" y="767" type="line"/>
      <point x="255" y="607" type="line"/>
    </contour>
    <contour>
      <point x="300" y="760" type="move" name="top"/>
    </contour>
    <contour>
      <point x="300" y="547" type="move" name="_top"/>
    </contour>
  </outline>
</glyph>
<glyph name="tildecomb" format="1">
  <advance width="600"/>
  <unicode hex="0303"/>
  <outline>
    <contour>
      <point x="466" y="597"/>
      <point x="517" y="665"/>
      <point x="519" y="767" type="curve"/>
      <point x="412" y="767" type="line"/>
      <point x="410" y="739"/>
      <point x="393" y="721"/>
      <point x="367" y="721" type="curve" smooth="yes"/>
      <point x="331" y="721"/>
      <point x="293" y="780"/>
      <point x="219" y="780" type="curve" smooth="yes"/>
      <point x="134" y="780"/>
      <point x="83" y="712"/>
      <point x="81" y="607" type="curve"/>
      <point x="188" y="607" type="line"/>
      <point x="190" y="637"/>
      <point x="207" y="656"/>
      <point x="233" y="656" type="curve" smooth="yes"/>
      <point x="269" y="656"/>
      <point x="307" y="597"/>
      <point x="381" y="597" type="curve" smooth="yes"/>
    </contour>
    <contour>
      <point x="300" y="750" type="move" name="top"/>
    </contour>
    <contour>
      <point x="300" y="547" type="move" name="_top"/>
    </contour>
  </outline>
</glyph>
<glyph name="brevecomb" format="1">
  <advance width="600"/>
  <unicode hex="0306"/>
  <outline>
    <contour>
      <point x="420" y="597"/>
      <point x="504" y="662"/>
      <point x="509" y="767" type="curve"/>
      <point x="374" y="767" type="line"/>
      <point x="371" y="730"/>
      <point x="341" y="706"/>
      <point x="300" y="706" type="curve" smooth="yes"/>
      <point x="259" y="706"/>
      <point x="229" y="730"/>
      <point x="226" y="767" type="curve"/>
      <point x="91" y="767" type="line"/>
      <point x="96" y="662"/>
      <point x="180" y="597"/>
      <point x="300" y="597" type="curve" smooth="yes"/>
    </contour>
    <contour>
      <point x="300" y="750" type="move" name="top"/>
    </contour>
    <contour>
      <point x="300" y="547" type="move" name="_top"/>
    </contour>
  </outline>
</glyph>
<glyph name="dotaccentcomb" format="1">
  <advance width="600"/>
  <unicode hex="0307"/>
  <outline>
    <contour>
      <point x="367" y="597"/>
      <point x="414" y="644"/>
      <point x="414" y="711" type="curve" smooth="yes"/>
      <point x="414" y="778"/>
      <point x="367" y="825"/>
      <point x="300" y="825" type="curve" smooth="yes"/>
      <point x="233" y="825"/>
      <point x="186" y="778"/>
      <point x="186" y="711" type="curve" smooth="yes"/>
      <point x="186" y="644"/>
      <point x="233" y="597"/>
      <point x="300" y="597" type="curve" smooth="yes"/>
    </contour>
    <contour>
      <point x="300" y="709" type="move" name="_center"/>
    </contour>
    <contour>
      <point x="300" y="800" type="move" name="top"/>
    </contour>
    <contour>
      <point x="300" y="547" type="move" name="_top"/>
    </contour>
  </outline>
</glyph>
<glyph name="dieresiscomb" format="1">
  <advance width="600"/>
  <unicode hex="0308"/>
  <outline>
    <contour>
      <point x="462" y="599"/>
      <point x="501" y="634"/>
      <point x="501" y="687" type="curve" smooth="yes"/>
      <point x="501" y="740"/>
      <point x="462" y="776"/>
      <point x="411" y="776" type="curve" smooth="yes"/>
      <point x="360" y="776"/>
      <point x="321" y="740"/>
      <point x="321" y="687" type="curve" smooth="yes"/>
      <point x="321" y="634"/>
      <point x="360" y="599"/>
      <point x="411" y="599" type="curve" smooth="yes"/>
    </contour>
    <contour>
      <point x="240" y="599"/>
      <point x="279" y="634"/>
      <point x="279" y="687" type="curve" smooth="yes"/>
      <point x="279" y="740"/>
      <point x="240" y="776"/>
      <point x="189" y="776" type="curve" smooth="yes"/>
      <point x="138" y="776"/>
      <point x="99" y="740"/>
      <point x="99" y="687" type="curve" smooth="yes"/>
      <point x="99" y="634"/>
      <point x="138" y="599"/>
      <point x="189" y="599" type="curve" smooth="yes"/>
    </contour>
    <contour>
      <point x="300" y="740" type="move" name="top"/>
    </contour>
    <contour>
      <point x="300" y="547" type="move" name="_top"/>
    </contour>
  </outline>
</glyph>
<glyph name="hookabovecomb" format="1">
  <advance width="600"/>
  <unicode hex="0309"/>
  <outline>
    <contour>
      <point x="409" y="627"/>
      <point x="446" y="670"/>
      <point x="446" y="735" type="curve" smooth="yes"/>
      <point x="446" y="808"/>
      <point x="389" y="858"/>
      <point x="305" y="858" type="curve" smooth="yes"/>
      <point x="257" y="858"/>
      <point x="211" y="845"/>
      <point x="176" y="818" type="curve"/>
      <point x="222" y="734" type="line"/>
      <point x="242" y="748"/>
      <point x="260" y="754"/>
      <point x="279" y="754" type="curve" smooth="yes"/>
      <point x="304" y="754"/>
      <point x="321" y="740"/>
      <point x="321" y="716" type="curve" smooth="yes"/>
      <point x="321" y="698"/>
      <point x="313" y="680"/>
      <point x="275" y="662" type="curve"/>
      <point x="343" y="597" type="line"/>
    </contour>
    <contour>
      <point x="300" y="830" type="move" name="top"/>
    </contour>
    <contour>
      <point x="300" y="547" type="move" name="_top"/>
    </contour>
  </outline>
</glyph>
<glyph name="hungarumlautcomb" format="1">
  <advance width="600"/>
  <unicode hex="030B"/>
  <outline>
    <contour>
      <point x="492" y="607" type="line"/>
      <point x="589" y="767" type="line"/>
      <point x="394" y="767" type="line"/>
      <point x="342" y="607" type="line"/>
    </contour>
    <contour>
      <point x="258" y="607" type="line"/>
      <point x="355" y="767" type="line"/>
      <point x="160" y="767" type="line"/>
      <point x="108" y="607" type="line"/>
    </contour>
    <contour>
      <point x="300" y="760" type="move" name="top"/>
    </contour>
    <contour>
      <point x="300" y="547" type="move" name="_top"/>
    </contour>
  </outline>
</glyph>
<glyph name="caroncomb" format="1">
  <advance width="600"/>
  <unicode hex="030C"/>
  <outline>
    <contour>
      <point x="396" y="607" type="line"/>
      <point x="524" y="767" type="line"/>
      <point x="384" y="767" type="line"/>
      <point x="242" y="637" type="line"/>
      <point x="358" y="637" type="line"/>
      <point x="216" y="767" type="line"/>
      <point x="76" y="767" type="line"/>
      <point x="204" y="607" type="line"/>
    </contour>
    <contour>
      <point x="300" y="750" type="move" name="top"/>
    </contour>
    <contour>
      <point x="300" y="547" type="move" name="_top"/>
    </contour>
  </outline>
</glyph>
<glyph name="dblgravecomb" format="1">
  <advance width="600"/>
  <unicode hex="030F"/>
  <outline>
    <contour>
      <point x="492" y="607" type="line"/>
      <point x="440" y="767" type="line"/>
      <point x="245" y="767" type="line"/>
      <point x="342" y="607" type="line"/>
    </contour>
    <contour>
      <point x="258" y="607" type="line"/>
      <point x="206" y="767" type="line"/>
      <point x="11" y="767" type="line"/>
      <point x="108" y="607" type="line"/>
    </contour>
    <contour>
      <point x="300" y="760" type="move" name="top"/>
    </contour>
    <contour>
      <point x="300" y="547" type="move" name="_top"/>
    </contour>
  </outline>
</glyph>
<glyph name="breveinvertedcomb" format="1">
  <advance width="600"/>
  <unicode hex="0311"/>
  <outline>
    <contour>
      <point x="226" y="607" type="line"/>
      <point x="229" y="644"/>
      <point x="259" y="668"/>
      <point x="300" y="668" type="curve" smooth="yes"/>
      <point x="341" y="668"/>
      <point x="371" y="644"/>
      <point x="374" y="607" type="curve"/>
      <point x="509" y="607" type="line"/>
      <point x="504" y="712"/>
      <point x="420" y="777"/>
      <point x="300" y="777" type="curve" smooth="yes"/>
      <point x="180" y="777"/>
      <point x="96" y="712"/>
      <point x="91" y="607" type="curve"/>
    </contour>
    <contour>
      <point x="300" y="750" type="move" name="top"/>
    </contour>
    <contour>
      <point x="300" y="547" type="move" name="_top"/>
    </contour>
  </outline>
</glyph>
<glyph name="commaturnedabovecomb" format="1">
  <advance width="600"/>
  <unicode hex="0312"/>
  <outline>
    <contour>
      <point x="372" y="597"/>
      <point x="407" y="627"/>
      <point x="407" y="672" type="curve" smooth="yes"/>
      <point x="407" y="718"/>
      <point x="371" y="745"/>
      <point x="300" y="745" type="curve"/>
      <point x="330" y="672" type="line"/>
      <point x="395" y="837" type="line"/>
      <point x="277" y="837" type="line"/>
      <point x="223" y="752" type="line" smooth="yes"/>
      <point x="199" y="714"/>
      <point x="193" y="691"/>
      <point x="193" y="672" type="curve" smooth="yes"/>
      <point x="193" y="627"/>
      <point x="228" y="597"/>
      <point x="300" y="597" type="curve" smooth="yes"/>
    </contour>
    <contour>
      <point x="300" y="800" type="move" name="top"/>
    </contour>
    <contour>
      <point x="300" y="547" type="move" name="_top"/>
    </contour>
  </outline>
</glyph>
<glyph name="dotbelowcomb" format="1">
  <advance width="600"/>
  <unicode hex="0323"/>
  <outline>
    <contour>
      <point x="351" y="-226"/>
      <point x="390" y="-192"/>
      <point x="390" y="-139" type="curve" smooth="yes"/>
      <point x="390" y="-86"/>
      <point x="351" y="-50"/>
      <point x="300" y="-50" type="curve" smooth="yes"/>
      <point x="249" y="-50"/>
      <point x="210" y="-86"/>
      <point x="210" y="-139" type="curve" smooth="yes"/>
      <point x="210" y="-192"/>
      <point x="249" y="-226"/>
      <point x="300" y="-226" type="curve" smooth="yes"/>
    </contour>
    <contour>
      <point x="300" y="0" type="move" name="_bottom"/>
    </contour>
    <contour>
      <point x="300" y="-191" type="move" name="bottom"/>
    </contour>
  </outline>
</glyph>
<glyph name="dieresisbelowcomb" format="1">
  <advance width="600"/>
  <unicode hex="0324"/>
  <outline>
    <contour>
      <point x="454" y="-217"/>
      <point x="491" y="-184"/>
      <point x="491" y="-134" type="curve" smooth="yes"/>
      <point x="491" y="-84"/>
      <point x="454" y="-50"/>
      <point x="406" y="-50" type="curve" smooth="yes"/>
      <point x="358" y="-50"/>
      <point x="321" y="-84"/>
      <point x="321" y="-134" type="curve" smooth="yes"/>
      <point x="321" y="-184"/>
      <point x="358" y="-217"/>
      <point x="406" y="-217" type="curve" smooth="yes"/>
    </contour>
    <contour>
      <point x="242" y="-217"/>
      <point x="279" y="-184"/>
      <point x="279" y="-134" type="curve" smooth="yes"/>
      <point x="279" y="-84"/>
      <point x="242" y="-50"/>
      <point x="194" y="-50" type="curve" smooth="yes"/>
      <point x="146" y="-50"/>
      <point x="109" y="-84"/>
      <point x="109" y="-134" type="curve" smooth="yes"/>
      <point x="109" y="-184"/>
      <point x="146" y="-217"/>
      <point x="194" y="-217" type="curve" smooth="yes"/>
    </contour>
    <contour>
      <point x="300" y="0" type="move" name="_bottom"/>
    </contour>
    <contour>
      <point x="300" y="-181" type="move" name="bottom"/>
    </contour>
  </outline>
</glyph>
<glyph name="commaaccentcomb" format="1">
  <advance width="600"/>
  <unicode hex="0326"/>
  <outline>
    <contour>
      <point x="326" y="-270" type="line"/>
      <point x="365" y="-205" type="line" smooth="yes"/>
      <point x="386" y="-169"/>
      <point x="390" y="-144"/>
      <point x="390" y="-125" type="curve" smooth="yes"/>
      <point x="390" y="-80"/>
      <point x="356" y="-50"/>
      <point x="300" y="-50" type="curve" smooth="yes"/>
      <point x="244" y="-50"/>
      <point x="210" y="-80"/>
      <point x="210" y="-125" type="curve" smooth="yes"/>
      <point x="210" y="-171"/>
      <point x="240" y="-198"/>
      <point x="300" y="-198" type="curve"/>
      <point x="275" y="-125" type="line"/>
      <point x="227" y="-270" type="line"/>
    </contour>
    <contour>
      <point x="300" y="0" type="move" name="_bottom"/>
    </contour>
    <contour>
      <point x="300" y="-191" type="move" name="bottom"/>
    </contour>
  </outline>
</glyph>
<glyph name="cedillacomb" format="1">
  <advance width="600"/>
  <unicode hex="0327"/>
  <outline>
    <contour>
      <point x="361" y="-240"/>
      <point x="429" y="-199"/>
      <point x="429" y="-132" type="curve" smooth="yes"/>
      <point x="429" y="-97"/>
      <point x="407" y="-60"/>
      <point x="344" y="-52" type="curve"/>
      <point x="358" y="10" type="line"/>
      <point x="242" y="10" type="line"/>
      <point x="215" y="-104" type="line"/>
      <point x="256" y="-104" type="line" smooth="yes"/>
      <point x="285" y="-104"/>
      <point x="297" y="-112"/>
      <point x="297" y="-124" type="curve" smooth="yes"/>
      <point x="297" y="-138"/>
      <point x="283" y="-148"/>
      <point x="249" y="-148" type="curve" smooth="yes"/>
      <point x="225" y="-148"/>
      <point x="204" y="-142"/>
      <point x="189" y="-136" type="curve"/>
      <point x="161" y="-219" type="line"/>
      <point x="183" y="-231"/>
      <point x="225" y="-240"/>
      <point x="259" y="-240" type="curve" smooth="yes"/>
    </contour>
    <contour>
      <point x="300" y="0" type="move" name="_bottom"/>
    </contour>
  </outline>
</glyph>
<glyph name="ogonekcomb" format="1">
  <advance width="600"/>
  <unicode hex="0328"/>
  <outline>
    <contour>
      <point x="255" y="-240"/>
      <point x="301" y="-230"/>
      <point x="325" y="-217" type="curve"/>
      <point x="298" y="-124" type="line"/>
      <point x="283" y="-131"/>
      <point x="261" y="-138"/>
      <point x="239" y="-138" type="curve" smooth="yes"/>
      <point x="202" y="-138"/>
      <point x="186" y="-120"/>
      <point x="186" y="-97" type="curve" smooth="yes"/>
      <point x="186" y="-66"/>
      <point x="213" y="-38"/>
      <point x="300" y="0" type="curve"/>
      <point x="221" y="49" type="line"/>
      <point x="115" y="16"/>
      <point x="54" y="-43"/>
      <point x="54" y="-117" type="curve" smooth="yes"/>
      <point x="54" y="-192"/>
      <point x="112" y="-240"/>
      <point x="212" y="-240" type="curve" smooth="yes"/>
    </contour>
    <contour>
      <point x="300" y="0" type="move" name="_ogonek"/>
    </contour>
  </outline>
</glyph>
<glyph name="brevebelowcomb" format="1">
  <advance width="600"/>
  <unicode hex="032E"/>
  <outline>
    <contour>
      <point x="420" y="-225"/>
      <point x="503" y="-162"/>
      <point x="509" y="-67" type="curve"/>
      <point x="382" y="-67" type="line"/>
      <point x="378" y="-101"/>
      <point x="346" y="-124"/>
      <point x="300" y="-124" type="curve" smooth="yes"/>
      <point x="254" y="-124"/>
      <point x="222" y="-101"/>
      <point x="218" y="-67" type="curve"/>
      <point x="91" y="-67" type="line"/>
      <point x="97" y="-162"/>
      <point x="180" y="-225"/>
      <point x="300" y="-225" type="curve" smooth="yes"/>
    </contour>
    <contour>
      <point x="300" y="0" type="move" name="_bottom"/>
    </contour>
    <contour>
      <point x="300" y="-198" type="move" name="bottom"/>
    </contour>
  </outline>
</glyph>
<glyph name="macronbelowcomb" format="1">
  <advance width="600"/>
  <unicode hex="0331"/>
  <outline>
    <contour>
      <point x="510" y="-192" type="line"/>
      <point x="510" y="-74" type="line"/>
      <point x="90" y="-74" type="line"/>
      <point x="90" y="-192" type="line"/>
    </contour>
    <contour>
      <point x="300" y="0" type="move" name="_bottom"/>
    </contour>
    <contour>
      <point x="300" y="-176" type="move" name="bottom"/>
    </contour>
  </outline>
</glyph>
<glyph name="strokelongcomb" format="1">
  <advance width="1000"/>
  <unicode hex="0336"/>
  <outline>
    <contour>
      <point x="931" y="364" type="line"/>
      <point x="931" y="500" type="line"/>
      <point x="69" y="500" type="line"/>
      <point x="69" y="364" type="line"/>
    </contour>
    <contour>
      <point x="500" y="433" type="move" name="_center"/>
    </contour>
  </outline>
</glyph>
<glyph name="slashshortcomb" format="1">
  <advance width="600"/>
  <unicode hex="0337"/>
  <outline>
    <contour>
      <point x="531" y="495" type="line"/>
      <point x="461" y="595" type="line"/>
      <point x="69" y="305" type="line"/>
      <point x="139" y="205" type="line"/>
    </contour>
    <contour>
      <point x="300" y="401" type="move" name="_center"/>
    </contour>
  </outline>
</glyph>
<glyph name="slashlongcomb" format="1">
  <advance width="648"/>
  <unicode hex="0338"/>
  <outline>
    <contour>
      <point x="154" y="-70" type="line"/>
      <point x="595" y="610" type="line"/>
      <point x="500" y="610" type="line"/>
      <point x="59" y="-70" type="line"/>
    </contour>
    <contour>
      <point x="327" y="274" type="move" name="_center"/>
    </contour>
  </outline>
</glyph>
<glyph name="Delta" format="1">
  <advance width="806"/>
  <unicode hex="0394"/>
  <outline>
    <contour>
      <point x="287" y="700" type="line"/>
      <point x="-19" y="0" type="line"/>
      <point x="825" y="0" type="line"/>
      <point x="519" y="700" type="line"/>
    </contour>
    <contour>
      <point x="447" y="598" type="line"/>
      <point x="355" y="598" type="line"/>
      <point x="567" y="76" type="line"/>
      <point x="617" y="183" type="line"/>
      <point x="185" y="183" type="line"/>
      <point x="235" y="76" type="line"/>
    </contour>
  </outline>
</glyph>
<glyph name="Omega" format="1">
  <advance width="831"/>
  <unicode hex="03A9"/>
  <outline>
    <contour>
      <point x="374" y="0" type="line"/>
      <point x="374" y="206" type="line"/>
      <point x="303" y="240"/>
      <point x="259" y="306"/>
      <point x="259" y="376" type="curve" smooth="yes"/>
      <point x="259" y="463"/>
      <point x="323" y="524"/>
      <point x="415" y="524" type="curve" smooth="yes"/>
      <point x="507" y="524"/>
      <point x="572" y="463"/>
      <point x="572" y="376" type="curve" smooth="yes"/>
      <point x="572" y="307"/>
      <point x="529" y="242"/>
      <point x="457" y="206" type="curve"/>
      <point x="457" y="0" type="line"/>
      <point x="827" y="0" type="line"/>
      <point x="827" y="180" type="line"/>
      <point x="663" y="180" type="line"/>
      <point x="737" y="241"/>
      <point x="777" y="319"/>
      <point x="777" y="403" type="curve" smooth="yes"/>
      <point x="777" y="576"/>
      <point x="618" y="711"/>
      <point x="415" y="711" type="curve" smooth="yes"/>
      <point x="213" y="711"/>
      <point x="54" y="576"/>
      <point x="54" y="404" type="curve" smooth="yes"/>
      <point x="54" y="319"/>
      <point x="94" y="241"/>
      <point x="169" y="180" type="curve"/>
      <point x="4" y="180" type="line"/>
      <point x="4" y="0" type="line"/>
    </contour>
    <contour>
      <point x="19" y="701" type="move" name="topleft"/>
    </contour>
  </outline>
</glyph>
<glyph name="mu" format="1">
  <advance width="708"/>
  <unicode hex="03BC"/>
  <outline>
    <contour>
      <point x="275" y="-194" type="line"/>
      <point x="275" y="547" type="line"/>
      <point x="50" y="547" type="line"/>
      <point x="50" y="-194" type="line"/>
    </contour>
    <component base="u" xOffset="10"/>
  </outline>
</glyph>
<glyph name="figuredash" format="1">
  <advance width="700"/>
  <unicode hex="2012"/>
  <outline>
    <contour>
      <point x="660" y="290" type="line"/>
      <point x="660" y="420" type="line"/>
      <point x="40" y="420" type="line"/>
      <point x="40" y="290" type="line"/>
    </contour>
  </outline>
</glyph>
<glyph name="endash" format="1">
  <advance width="410"/>
  <unicode hex="2013"/>
  <outline>
    <contour>
      <point x="410" y="239" type="line"/>
      <point x="410" y="379" type="line"/>
      <point x="0" y="379" type="line"/>
      <point x="0" y="239" type="line"/>
    </contour>
  </outline>
</glyph>
<glyph name="emdash" format="1">
  <advance width="610"/>
  <unicode hex="2014"/>
  <outline>
    <contour>
      <point x="610" y="239" type="line"/>
      <point x="610" y="379" type="line"/>
      <point x="0" y="379" type="line"/>
      <point x="0" y="239" type="line"/>
    </contour>
  </outline>
</glyph>
<glyph name="dagger" format="1">
  <advance width="627"/>
  <unicode hex="2020"/>
  <outline>
    <contour>
      <point x="423" y="-194" type="line"/>
      <point x="423" y="327" type="line"/>
      <point x="598" y="327" type="line"/>
      <point x="598" y="505" type="line"/>
      <point x="423" y="505" type="line"/>
      <point x="423" y="700" type="line"/>
      <point x="197" y="700" type="line"/>
      <point x="197" y="505" type="line"/>
      <point x="29" y="505" type="line"/>
      <point x="29" y="327" type="line"/>
      <point x="197" y="327" type="line"/>
      <point x="197" y="-194" type="line"/>
    </contour>
  </outline>
</glyph>
<glyph name="daggerdbl" format="1">
  <advance width="608"/>
  <unicode hex="2021"/>
  <outline>
    <contour>
      <point x="413" y="-185" type="line"/>
      <point x="413" y="327" type="line"/>
      <point x="588" y="327" type="line"/>
      <point x="588" y="503" type="line"/>
      <point x="413" y="503" type="line"/>
      <point x="413" y="699" type="line"/>
      <point x="188" y="699" type="line"/>
      <point x="188" y="503" type="line"/>
      <point x="20" y="503" type="line"/>
      <point x="20" y="327" type="line"/>
      <point x="188" y="327" type="line"/>
      <point x="188" y="-185" type="line"/>
    </contour>
    <contour>
      <point x="588" y="17" type="line"/>
      <point x="588" y="193" type="line"/>
      <point x="20" y="193" type="line"/>
      <point x="20" y="17" type="line"/>
    </contour>
  </outline>
</glyph>
<glyph name="minute" format="1">
  <advance width="253"/>
  <unicode hex="2032"/>
  <outline>
    <contour>
      <point x="164" y="455" type="line"/>
      <point x="211" y="701" type="line"/>
      <point x="57" y="701" type="line"/>
      <point x="40" y="455" type="line"/>
    </contour>
  </outline>
</glyph>
<glyph name="second" format="1">
  <advance width="489"/>
  <unicode hex="2033"/>
  <outline>
    <contour>
      <point x="207" y="400" type="line"/>
      <point x="222" y="700" type="line"/>
      <point x="32" y="700" type="line"/>
      <point x="47" y="400" type="line"/>
    </contour>
    <contour>
      <point x="442" y="400" type="line"/>
      <point x="457" y="700" type="line"/>
      <point x="267" y="700" type="line"/>
      <point x="282" y="400" type="line"/>
    </contour>
  </outline>
</glyph>
<glyph name="guilsinglleft" format="1">
  <advance width="378"/>
  <unicode hex="2039"/>
  <outline>
    <contour>
      <point x="363" y="74" type="line"/>
      <point x="230" y="274" type="line"/>
      <point x="363" y="474" type="line"/>
      <point x="163" y="474" type="line"/>
      <point x="25" y="274" type="line"/>
      <point x="163" y="74" type="line"/>
    </contour>
  </outline>
</glyph>
<glyph name="guilsinglright" format="1">
  <advance width="378"/>
  <unicode hex="203A"/>
  <outline>
    <contour>
      <point x="353" y="274" type="line"/>
      <point x="215" y="474" type="line"/>
      <point x="15" y="474" type="line"/>
      <point x="148" y="274" type="line"/>
      <point x="15" y="74" type="line"/>
      <point x="215" y="74" type="line"/>
    </contour>
  </outline>
</glyph>
<glyph name="colonsign" format="1">
  <advance width="688"/>
  <unicode hex="20A1"/>
  <outline>
    <contour>
      <point x="545" y="609" type="line"/>
      <point x="605" y="864" type="line"/>
      <point x="469" y="864" type="line"/>
      <point x="409" y="609" type="line"/>
    </contour>
    <contour>
      <point x="285" y="-165" type="line"/>
      <point x="345" y="90" type="line"/>
      <point x="209" y="90" type="line"/>
      <point x="149" y="-165" type="line"/>
    </contour>
    <contour>
      <point x="485" y="-165" type="line"/>
      <point x="545" y="90" type="line"/>
      <point x="409" y="90" type="line"/>
      <point x="349" y="-165" type="line"/>
    </contour>
    <contour>
      <point x="345" y="609" type="line"/>
      <point x="405" y="864" type="line"/>
      <point x="269" y="864" type="line"/>
      <point x="209" y="609" type="line"/>
    </contour>
    <component base="C"/>
  </outline>
</glyph>
<glyph name="franc" format="1">
  <advance width="675"/>
  <unicode hex="20A3"/>
  <outline>
    <contour>
      <point x="536" y="60" type="line"/>
      <point x="536" y="172" type="line"/>
      <point x="0" y="172" type="line"/>
      <point x="0" y="60" type="line"/>
    </contour>
    <contour>
      <point x="326" y="0" type="line"/>
      <point x="326" y="224" type="line"/>
      <point x="618" y="224" type="line"/>
      <point x="618" y="402" type="line"/>
      <point x="326" y="402" type="line"/>
      <point x="326" y="522" type="line"/>
      <point x="659" y="522" type="line"/>
      <point x="659" y="700" type="line"/>
      <point x="90" y="700" type="line"/>
      <point x="90" y="0" type="line"/>
    </contour>
  </outline>
</glyph>
<glyph name="lira" format="1">
  <advance width="664"/>
  <unicode hex="20A4"/>
  <outline>
    <contour>
      <point x="630" y="0" type="line"/>
      <point x="630" y="178" type="line"/>
      <point x="0" y="178" type="line"/>
      <point x="0" y="0" type="line"/>
    </contour>
    <contour>
      <point x="326" y="20" type="line"/>
      <point x="326" y="405" type="line" smooth="yes"/>
      <point x="326" y="488"/>
      <point x="378" y="525"/>
      <point x="467" y="525" type="curve" smooth="yes"/>
      <point x="503" y="525"/>
      <point x="548" y="516"/>
      <point x="587" y="495" type="curve"/>
      <point x="655" y="673" type="line"/>
      <point x="604" y="700"/>
      <point x="529" y="716"/>
      <point x="447" y="716" type="curve" smooth="yes"/>
      <point x="220" y="716"/>
      <point x="90" y="603"/>
      <point x="90" y="400" type="curve" smooth="yes"/>
      <point x="90" y="20" type="line"/>
    </contour>
    <contour>
      <point x="536" y="225" type="line"/>
      <point x="536" y="337" type="line"/>
      <point x="0" y="337" type="line"/>
      <point x="0" y="225" type="line"/>
    </contour>
    <contour>
      <point x="536" y="363" type="line"/>
      <point x="536" y="475" type="line"/>
      <point x="0" y="475" type="line"/>
      <point x="0" y="363" type="line"/>
    </contour>
  </outline>
</glyph>
<glyph name="naira" format="1">
  <advance width="870"/>
  <unicode hex="20A6"/>
  <outline>
    <contour>
      <point x="870" y="225" type="line"/>
      <point x="870" y="337" type="line"/>
      <point x="0" y="337" type="line"/>
      <point x="0" y="225" type="line"/>
    </contour>
    <contour>
      <point x="870" y="363" type="line"/>
      <point x="870" y="475" type="line"/>
      <point x="0" y="475" type="line"/>
      <point x="0" y="363" type="line"/>
    </contour>
    <contour>
      <point x="320" y="0" type="line"/>
      <point x="320" y="426" type="line"/>
      <point x="230" y="426" type="line"/>
      <point x="586" y="0" type="line"/>
      <point x="780" y="0" type="line"/>
      <point x="780" y="700" type="line"/>
      <point x="550" y="700" type="line"/>
      <point x="550" y="274" type="line"/>
      <point x="640" y="274" type="line"/>
      <point x="284" y="700" type="line"/>
      <point x="90" y="700" type="line"/>
      <point x="90" y="0" type="line"/>
    </contour>
  </outline>
</glyph>
<glyph name="won" format="1">
  <advance width="1071"/>
  <unicode hex="20A9"/>
  <outline>
    <contour>
      <point x="451" y="0" type="line"/>
      <point x="564" y="517" type="line"/>
      <point x="514" y="517" type="line"/>
      <point x="624" y="0" type="line"/>
      <point x="862" y="0" type="line"/>
      <point x="1079" y="701" type="line"/>
      <point x="847" y="701" type="line"/>
      <point x="727" y="143" type="line"/>
      <point x="775" y="143" type="line"/>
      <point x="657" y="701" type="line"/>
      <point x="431" y="701" type="line"/>
      <point x="315" y="143" type="line"/>
      <point x="363" y="143" type="line"/>
      <point x="241" y="701" type="line"/>
      <point x="-2" y="701" type="line"/>
      <point x="213" y="0" type="line"/>
    </contour>
    <contour>
      <point x="1056" y="261" type="line"/>
      <point x="1056" y="331" type="line"/>
      <point x="15" y="331" type="line"/>
      <point x="15" y="261" type="line"/>
    </contour>
    <contour>
      <point x="1066" y="376" type="line"/>
      <point x="1066" y="446" type="line"/>
      <point x="5" y="446" type="line"/>
      <point x="5" y="376" type="line"/>
    </contour>
  </outline>
</glyph>
<glyph name="dong" format="1">
  <advance width="699"/>
  <unicode hex="20AB"/>
  <outline>
    <contour>
      <point x="649" y="-148" type="line"/>
      <point x="649" y="-38" type="line"/>
      <point x="46" y="-38" type="line"/>
      <point x="46" y="-148" type="line"/>
    </contour>
    <contour>
      <point x="436" y="-10"/>
      <point x="492" y="77"/>
      <point x="492" y="274" type="curve" smooth="yes"/>
      <point x="492" y="468"/>
      <point x="428" y="557"/>
      <point x="287" y="557" type="curve" smooth="yes"/>
      <point x="145" y="557"/>
      <point x="26" y="450"/>
      <point x="26" y="274" type="curve" smooth="yes"/>
      <point x="26" y="98"/>
      <point x="145" y="-10"/>
      <point x="287" y="-10" type="curve" smooth="yes"/>
    </contour>
    <contour>
      <point x="288" y="166"/>
      <point x="249" y="203"/>
      <point x="249" y="274" type="curve" smooth="yes"/>
      <point x="249" y="345"/>
      <point x="288" y="381"/>
      <point x="338" y="381" type="curve" smooth="yes"/>
      <point x="388" y="381"/>
      <point x="427" y="345"/>
      <point x="427" y="274" type="curve" smooth="yes"/>
      <point x="427" y="203"/>
      <point x="388" y="166"/>
      <point x="338" y="166" type="curve" smooth="yes"/>
    </contour>
    <contour>
      <point x="649" y="0" type="line"/>
      <point x="649" y="742" type="line"/>
      <point x="423" y="742" type="line"/>
      <point x="423" y="474" type="line"/>
      <point x="433" y="274" type="line"/>
      <point x="434" y="74" type="line"/>
      <point x="434" y="0" type="line"/>
    </contour>
    <contour>
      <point x="700" y="585" type="line"/>
      <point x="700" y="695" type="line"/>
      <point x="272" y="695" type="line"/>
      <point x="272" y="585" type="line"/>
    </contour>
  </outline>
</glyph>
<glyph name="euro" format="1">
  <advance width="805"/>
  <unicode hex="20AC"/>
  <outline>
    <contour>
      <point x="542" y="225" type="line"/>
      <point x="542" y="337" type="line"/>
      <point x="0" y="337" type="line"/>
      <point x="0" y="225" type="line"/>
    </contour>
    <contour>
      <point x="542" y="363" type="line"/>
      <point x="542" y="475" type="line"/>
      <point x="0" y="475" type="line"/>
      <point x="0" y="363" type="line"/>
    </contour>
    <contour>
      <point x="617" y="-16"/>
      <point x="725" y="34"/>
      <point x="794" y="124" type="curve"/>
      <point x="645" y="257" type="line"/>
      <point x="604" y="205"/>
      <point x="555" y="175"/>
      <point x="492" y="175" type="curve" smooth="yes"/>
      <point x="394" y="175"/>
      <point x="328" y="243"/>
      <point x="328" y="350" type="curve" smooth="yes"/>
      <point x="328" y="457"/>
      <point x="394" y="525"/>
      <point x="492" y="525" type="curve" smooth="yes"/>
      <point x="555" y="525"/>
      <point x="604" y="495"/>
      <point x="645" y="443" type="curve"/>
      <point x="794" y="576" type="line"/>
      <point x="725" y="666"/>
      <point x="617" y="716"/>
      <point x="480" y="716" type="curve" smooth="yes"/>
      <point x="255" y="716"/>
      <point x="90" y="565"/>
      <point x="90" y="350" type="curve" smooth="yes"/>
      <point x="90" y="135"/>
      <point x="255" y="-16"/>
      <point x="480" y="-16" type="curve" smooth="yes"/>
    </contour>
  </outline>
</glyph>
<glyph name="kip" format="1">
  <advance width="789"/>
  <unicode hex="20AD"/>
  <outline>
    <contour>
      <point x="466" y="309" type="line"/>
      <point x="774" y="701" type="line"/>
      <point x="512" y="701" type="line"/>
      <point x="214" y="309" type="line"/>
    </contour>
    <contour>
      <point x="303" y="0" type="line"/>
      <point x="303" y="701" type="line"/>
      <point x="71" y="701" type="line"/>
      <point x="71" y="0" type="line"/>
    </contour>
    <contour>
      <point x="789" y="0" type="line"/>
      <point x="508" y="384" type="line"/>
      <point x="246" y="384" type="line"/>
      <point x="517" y="0" type="line"/>
    </contour>
    <contour>
      <point x="703" y="332" type="line"/>
      <point x="703" y="402" type="line"/>
      <point x="1" y="402" type="line"/>
      <point x="1" y="332" type="line"/>
    </contour>
  </outline>
</glyph>
<glyph name="peso" format="1">
  <advance width="811"/>
  <unicode hex="20B1"/>
  <outline>
    <contour>
      <point x="332" y="0" type="line"/>
      <point x="332" y="283" type="line"/>
      <point x="231" y="182" type="line"/>
      <point x="429" y="182" type="line" smooth="yes"/>
      <point x="611" y="182"/>
      <point x="716" y="280"/>
      <point x="716" y="450" type="curve" smooth="yes"/>
      <point x="716" y="610"/>
      <point x="611" y="701"/>
      <point x="429" y="701" type="curve" smooth="yes"/>
      <point x="100" y="701" type="line"/>
      <point x="100" y="0" type="line"/>
    </contour>
    <contour>
      <point x="776" y="348" type="line"/>
      <point x="776" y="418" type="line"/>
      <point x="30" y="418" type="line"/>
      <point x="30" y="348" type="line"/>
    </contour>
    <contour>
      <point x="332" y="626" type="line"/>
      <point x="231" y="525" type="line"/>
      <point x="417" y="525" type="line" smooth="yes"/>
      <point x="467" y="525"/>
      <point x="496" y="495"/>
      <point x="496" y="443" type="curve" smooth="yes"/>
      <point x="496" y="389"/>
      <point x="467" y="358"/>
      <point x="417" y="358" type="curve" smooth="yes"/>
      <point x="231" y="358" type="line"/>
      <point x="332" y="257" type="line"/>
    </contour>
    <contour>
      <point x="776" y="463" type="line"/>
      <point x="776" y="533" type="line"/>
      <point x="30" y="533" type="line"/>
      <point x="30" y="463" type="line"/>
    </contour>
  </outline>
</glyph>
<glyph name="cedi" format="1">
  <advance width="688"/>
  <unicode hex="20B5"/>
  <outline>
    <contour>
      <point x="465" y="609" type="line"/>
      <point x="465" y="864" type="line"/>
      <point x="299" y="864" type="line"/>
      <point x="299" y="609" type="line"/>
    </contour>
    <contour>
      <point x="465" y="-165" type="line"/>
      <point x="465" y="90" type="line"/>
      <point x="299" y="90" type="line"/>
      <point x="299" y="-165" type="line"/>
    </contour>
    <component base="C"/>
  </outline>
</glyph>
<glyph name="rupeeIndian" format="1">
  <advance width="678"/>
  <unicode hex="20B9"/>
  <outline>
    <contour>
      <point x="294" y="216" type="line" smooth="yes"/>
      <point x="489" y="216"/>
      <point x="613" y="304"/>
      <point x="613" y="456" type="curve" smooth="yes"/>
      <point x="613" y="533"/>
      <point x="566" y="613"/>
      <point x="492" y="652" type="curve"/>
      <point x="461" y="589" type="line"/>
      <point x="678" y="589" type="line"/>
      <point x="678" y="701" type="line" smooth="yes"/>
      <point x="57" y="701" type="line"/>
      <point x="57" y="589" type="line"/>
      <point x="259" y="589" type="line" smooth="yes"/>
      <point x="344" y="589"/>
      <point x="375" y="544"/>
      <point x="375" y="491" type="curve" smooth="yes"/>
      <point x="375" y="438"/>
      <point x="344" y="394"/>
      <point x="259" y="394" type="curve" smooth="yes"/>
      <point x="57" y="394" type="line"/>
      <point x="57" y="216" type="line"/>
    </contour>
    <contour>
      <point x="628" y="0" type="line"/>
      <point x="444" y="285" type="line"/>
      <point x="194" y="285" type="line"/>
      <point x="376" y="0" type="line"/>
    </contour>
    <contour>
      <point x="678" y="451" type="line"/>
      <point x="678" y="563" type="line"/>
      <point x="57" y="563" type="line"/>
      <point x="57" y="451" type="line"/>
    </contour>
  </outline>
</glyph>
<glyph name="liraTurkish" format="1">
  <advance width="763"/>
  <unicode hex="20BA"/>
  <outline>
    <contour>
      <point x="349" y="0" type="line" smooth="yes"/>
      <point x="586" y="0"/>
      <point x="739" y="142"/>
      <point x="739" y="361" type="curve"/>
      <point x="502" y="359" type="line"/>
      <point x="502" y="250"/>
      <point x="453" y="180"/>
      <point x="364" y="180" type="curve" smooth="yes"/>
      <point x="322" y="180" type="line"/>
      <point x="322" y="701" type="line"/>
      <point x="90" y="701" type="line"/>
      <point x="90" y="0" type="line"/>
    </contour>
    <contour>
      <point x="532" y="443" type="line"/>
      <point x="532" y="524" type="line"/>
      <point x="20" y="380" type="line"/>
      <point x="20" y="299" type="line"/>
    </contour>
    <contour>
      <point x="532" y="587" type="line"/>
      <point x="532" y="668" type="line"/>
      <point x="20" y="524" type="line"/>
      <point x="20" y="443" type="line"/>
    </contour>
  </outline>
</glyph>
<glyph name="manat" format="1">
  <advance width="800"/>
  <unicode hex="20BC"/>
  <outline>
    <contour>
      <point x="243" y="0" type="line"/>
      <point x="243" y="251" type="line" smooth="yes"/>
      <point x="243" y="348"/>
      <point x="307" y="418"/>
      <point x="403" y="418" type="curve" smooth="yes"/>
      <point x="499" y="418"/>
      <point x="557" y="348"/>
      <point x="557" y="251" type="curve" smooth="yes"/>
      <point x="557" y="0" type="line"/>
      <point x="775" y="0" type="line"/>
      <point x="775" y="252" type="line" smooth="yes"/>
      <point x="775" y="460"/>
      <point x="617" y="611"/>
      <point x="400" y="611" type="curve" smooth="yes"/>
      <point x="183" y="611"/>
      <point x="25" y="461"/>
      <point x="25" y="252" type="curve" smooth="yes"/>
      <point x="25" y="0" type="line"/>
    </contour>
    <contour>
      <point x="473" y="0" type="line"/>
      <point x="473" y="701" type="line"/>
      <point x="327" y="701" type="line"/>
      <point x="327" y="0" type="line"/>
    </contour>
  </outline>
</glyph>
<glyph name="ruble" format="1">
  <advance width="731"/>
  <unicode hex="20BD"/>
  <outline>
    <contour>
      <point x="332" y="0" type="line"/>
      <point x="332" y="315" type="line"/>
      <point x="231" y="214" type="line"/>
      <point x="429" y="214" type="line" smooth="yes"/>
      <point x="611" y="214"/>
      <point x="716" y="304"/>
      <point x="716" y="459" type="curve" smooth="yes"/>
      <point x="716" y="613"/>
      <point x="611" y="701"/>
      <point x="429" y="701" type="curve" smooth="yes"/>
      <point x="100" y="701" type="line"/>
      <point x="100" y="0" type="line"/>
    </contour>
    <contour>
      <point x="531" y="85" type="line"/>
      <point x="531" y="155" type="line"/>
      <point x="20" y="155" type="line"/>
      <point x="20" y="85" type="line"/>
    </contour>
    <contour>
      <point x="332" y="642" type="line"/>
      <point x="231" y="541" type="line"/>
      <point x="417" y="541" type="line" smooth="yes"/>
      <point x="467" y="541"/>
      <point x="496" y="511"/>
      <point x="496" y="459" type="curve" smooth="yes"/>
      <point x="496" y="405"/>
      <point x="467" y="374"/>
      <point x="417" y="374" type="curve" smooth="yes"/>
      <point x="231" y="374" type="line"/>
      <point x="332" y="273" type="line"/>
    </contour>
  </outline>
</glyph>
<glyph name="emptyset" format="1">
  <advance width="620"/>
  <unicode hex="2205"/>
  <outline>
    <contour>
      <point x="605" y="569" type="line"/>
      <point x="550" y="628" type="line"/>
      <point x="15" y="132" type="line"/>
      <point x="70" y="73" type="line"/>
    </contour>
    <contour>
      <point x="456" y="101"/>
      <point x="572" y="214"/>
      <point x="572" y="352" type="curve" smooth="yes"/>
      <point x="572" y="490"/>
      <point x="456" y="602"/>
      <point x="313" y="602" type="curve" smooth="yes"/>
      <point x="170" y="602"/>
      <point x="55" y="490"/>
      <point x="55" y="352" type="curve" smooth="yes"/>
      <point x="55" y="214"/>
      <point x="170" y="101"/>
      <point x="313" y="101" type="curve" smooth="yes"/>
    </contour>
    <contour>
      <point x="251" y="240"/>
      <point x="202" y="290"/>
      <point x="202" y="352" type="curve" smooth="yes"/>
      <point x="202" y="413"/>
      <point x="251" y="463"/>
      <point x="313" y="463" type="curve" smooth="yes"/>
      <point x="375" y="463"/>
      <point x="425" y="413"/>
      <point x="425" y="352" type="curve" smooth="yes"/>
      <point x="425" y="290"/>
      <point x="375" y="240"/>
      <point x="313" y="240" type="curve" smooth="yes"/>
    </contour>
  </outline>
</glyph>
<glyph name="increment" format="1">
  <advance width="749"/>
  <unicode hex="2206"/>
  <outline>
    <contour>
      <point x="749" y="0" type="line"/>
      <point x="749" y="132" type="line"/>
      <point x="498" y="701" type="line"/>
      <point x="260" y="701" type="line"/>
      <point x="0" y="132" type="line"/>
      <point x="0" y="0" type="line"/>
    </contour>
    <contour>
      <point x="372" y="474" type="line"/>
      <point x="497" y="180" type="line"/>
      <point x="243" y="180" type="line"/>
    </contour>
  </outline>
</glyph>
<glyph name="product" format="1">
  <advance width="804"/>
  <unicode hex="220F"/>
  <outline>
    <contour>
      <point x="293" y="-194" type="line"/>
      <point x="293" y="506" type="line"/>
      <point x="511" y="506" type="line"/>
      <point x="511" y="-194" type="line"/>
      <point x="747" y="-194" type="line"/>
      <point x="747" y="700" type="line"/>
      <point x="57" y="700" type="line"/>
      <point x="57" y="-194" type="line"/>
    </contour>
  </outline>
</glyph>
<glyph name="summation" format="1">
  <advance width="687"/>
  <unicode hex="2211"/>
  <outline>
    <contour>
      <point x="675" y="-194" type="line"/>
      <point x="675" y="-11" type="line"/>
      <point x="238" y="-11" type="line"/>
      <point x="271" y="-86" type="line"/>
      <point x="532" y="181" type="line"/>
      <point x="532" y="326" type="line"/>
      <point x="291" y="595" type="line"/>
      <point x="254" y="517" type="line"/>
      <point x="665" y="517" type="line"/>
      <point x="665" y="700" type="line"/>
      <point x="48" y="700" type="line"/>
      <point x="48" y="555" type="line"/>
      <point x="384" y="176" type="line"/>
      <point x="386" y="330" type="line"/>
      <point x="32" y="-49" type="line"/>
      <point x="32" y="-194" type="line"/>
    </contour>
  </outline>
</glyph>
<glyph name="minus" format="1">
  <advance width="620"/>
  <unicode hex="2212"/>
  <outline>
    <contour>
      <point x="565" y="265" type="line"/>
      <point x="565" y="435" type="line"/>
      <point x="55" y="435" type="line"/>
      <point x="55" y="265" type="line"/>
    </contour>
  </outline>
</glyph>
<glyph name="bulletoperator" format="1">
  <advance width="354"/>
  <unicode hex="2219"/>
  <outline>
    <contour>
      <point x="268" y="129"/>
      <point x="331" y="192"/>
      <point x="331" y="284" type="curve" smooth="yes"/>
      <point x="331" y="374"/>
      <point x="268" y="437"/>
      <point x="176" y="437" type="curve" smooth="yes"/>
      <point x="86" y="437"/>
      <point x="23" y="374"/>
      <point x="23" y="284" type="curve" smooth="yes"/>
      <point x="23" y="192"/>
      <point x="86" y="129"/>
      <point x="176" y="129" type="curve" smooth="yes"/>
    </contour>
  </outline>
</glyph>
<glyph name="infinity" format="1">
  <advance width="931"/>
  <unicode hex="221E"/>
  <outline>
    <contour>
      <point x="813" y="122"/>
      <point x="910" y="219"/>
      <point x="910" y="350" type="curve" smooth="yes"/>
      <point x="910" y="482"/>
      <point x="813" y="578"/>
      <point x="685" y="578" type="curve" smooth="yes"/>
      <point x="413" y="578"/>
      <point x="412" y="274"/>
      <point x="266" y="274" type="curve" smooth="yes"/>
      <point x="226" y="274"/>
      <point x="195" y="307"/>
      <point x="195" y="350" type="curve" smooth="yes"/>
      <point x="195" y="393"/>
      <point x="226" y="426"/>
      <point x="266" y="426" type="curve" smooth="yes"/>
      <point x="412" y="426"/>
      <point x="413" y="122"/>
      <point x="685" y="122" type="curve" smooth="yes"/>
    </contour>
    <contour>
      <point x="518" y="122"/>
      <point x="519" y="426"/>
      <point x="665" y="426" type="curve" smooth="yes"/>
      <point x="706" y="426"/>
      <point x="736" y="393"/>
      <point x="736" y="350" type="curve" smooth="yes"/>
      <point x="736" y="307"/>
      <point x="706" y="274"/>
      <point x="665" y="274" type="curve" smooth="yes"/>
      <point x="519" y="274"/>
      <point x="518" y="578"/>
      <point x="246" y="578" type="curve" smooth="yes"/>
      <point x="118" y="578"/>
      <point x="21" y="482"/>
      <point x="21" y="350" type="curve" smooth="yes"/>
      <point x="21" y="219"/>
      <point x="118" y="122"/>
      <point x="246" y="122" type="curve" smooth="yes"/>
    </contour>
  </outline>
</glyph>
<glyph name="notequal" format="1">
  <advance width="520"/>
  <unicode hex="2260"/>
  <outline>
    <contour>
      <point x="241" y="13" type="line"/>
      <point x="438" y="640" type="line"/>
      <point x="270" y="640" type="line"/>
      <point x="73" y="13" type="line"/>
    </contour>
    <contour>
      <point x="490" y="149" type="line"/>
      <point x="490" y="289" type="line"/>
      <point x="30" y="289" type="line"/>
      <point x="30" y="149" type="line"/>
    </contour>
    <contour>
      <point x="490" y="369" type="line"/>
      <point x="490" y="509" type="line"/>
      <point x="30" y="509" type="line"/>
      <point x="30" y="369" type="line"/>
    </contour>
  </outline>
</glyph>
<glyph name="Saltillo" format="1">
  <advance width="342"/>
  <unicode hex="A78B"/>
  <outline>
    <contour>
      <point x="257" y="296" type="line"/>
      <point x="287" y="701" type="line"/>
      <point x="55" y="701" type="line"/>
      <point x="55" y="296" type="line"/>
    </contour>
  </outline>
</glyph>
<glyph name="A.ss01" format="1">
  <advance width="792"/>
  <outline>
    <contour>
      <point x="287" y="0" type="line"/>
      <point x="287" y="393" type="line" smooth="yes"/>
      <point x="287" y="483"/>
      <point x="332" y="525"/>
      <point x="396" y="525" type="curve" smooth="yes"/>
      <point x="460" y="525"/>
      <point x="505" y="483"/>
      <point x="505" y="393" type="curve" smooth="yes"/>
      <point x="505" y="0" type="line"/>
      <point x="741" y="0" type="line"/>
      <point x="741" y="373" type="line" smooth="yes"/>
      <point x="741" y="592"/>
      <point x="600" y="716"/>
      <point x="396" y="716" type="curve" smooth="yes"/>
      <point x="192" y="716"/>
      <point x="51" y="592"/>
      <point x="51" y="373" type="curve" smooth="yes"/>
      <point x="51" y="0" type="line"/>
    </contour>
    <contour>
      <point x="589" y="141" type="line"/>
      <point x="589" y="319" type="line"/>
      <point x="199" y="319" type="line"/>
      <point x="199" y="141" type="line"/>
    </contour>
    <contour>
      <point x="741" y="0" type="move" name="ogonek"/>
    </contour>
    <contour>
      <point x="396" y="700" type="move" name="top"/>
    </contour>
    <contour>
      <point x="51" y="700" type="move" name="topleft"/>
    </contour>
    <contour>
      <point x="396" y="0" type="move" name="bottom"/>
    </contour>
  </outline>
</glyph>
<glyph name="G.ss01" format="1">
  <advance width="769"/>
  <outline>
    <contour>
      <point x="516" y="-16"/>
      <point x="615" y="40"/>
      <point x="663" y="189" type="curve"/>
      <point x="563" y="251" type="line"/>
      <point x="536" y="197"/>
      <point x="479" y="171"/>
      <point x="416" y="171" type="curve" smooth="yes"/>
      <point x="333" y="171"/>
      <point x="267" y="222"/>
      <point x="267" y="343" type="curve" smooth="yes"/>
      <point x="267" y="458"/>
      <point x="333" y="525"/>
      <point x="437" y="525" type="curve" smooth="yes"/>
      <point x="499" y="525"/>
      <point x="550" y="499"/>
      <point x="594" y="448" type="curve"/>
      <point x="745" y="581" type="line"/>
      <point x="674" y="668"/>
      <point x="563" y="716"/>
      <point x="425" y="716" type="curve" smooth="yes"/>
      <point x="194" y="716"/>
      <point x="29" y="565"/>
      <point x="29" y="341" type="curve" smooth="yes"/>
      <point x="29" y="110"/>
      <point x="188" y="-16"/>
      <point x="383" y="-16" type="curve" smooth="yes"/>
    </contour>
    <contour>
      <point x="725" y="0" type="line"/>
      <point x="725" y="365" type="line"/>
      <point x="520" y="365" type="line"/>
      <point x="520" y="115" type="line"/>
      <point x="571" y="90" type="line"/>
      <point x="571" y="0" type="line"/>
    </contour>
    <contour>
      <point x="424" y="701" type="move" name="top"/>
    </contour>
    <contour>
      <point x="410" y="3" type="move" name="bottom"/>
    </contour>
  </outline>
</glyph>
<glyph name="I.ss01" format="1">
  <advance width="516"/>
  <outline>
    <contour>
      <point x="376" y="20" type="line"/>
      <point x="376" y="681" type="line"/>
      <point x="140" y="681" type="line"/>
      <point x="140" y="20" type="line"/>
    </contour>
    <contour>
      <point x="481" y="0" type="line"/>
      <point x="481" y="178" type="line"/>
      <point x="35" y="178" type="line"/>
      <point x="35" y="0" type="line"/>
    </contour>
    <contour>
      <point x="481" y="522" type="line"/>
      <point x="481" y="700" type="line"/>
      <point x="35" y="700" type="line"/>
      <point x="35" y="522" type="line"/>
    </contour>
    <contour>
      <point x="376" y="0" type="move" name="ogonek"/>
    </contour>
    <contour>
      <point x="258" y="700" type="move" name="top"/>
    </contour>
    <contour>
      <point x="-20" y="700" type="move" name="topleft"/>
    </contour>
    <contour>
      <point x="258" y="0" type="move" name="bottom"/>
    </contour>
  </outline>
</glyph>
<glyph name="IJ.ss01" format="1">
  <advance width="729"/>
  <outline>
    <contour>
      <point x="538" y="-110"/>
      <point x="678" y="11"/>
      <point x="678" y="231" type="curve" smooth="yes"/>
      <point x="678" y="700" type="line"/>
      <point x="442" y="700" type="line"/>
      <point x="442" y="218" type="line" smooth="yes"/>
      <point x="442" y="121"/>
      <point x="404" y="78"/>
      <point x="317" y="78" type="curve" smooth="yes"/>
      <point x="258" y="78"/>
      <point x="183" y="100"/>
      <point x="117" y="142" type="curve"/>
      <point x="31" y="-25" type="line"/>
      <point x="104" y="-77"/>
      <point x="208" y="-110"/>
      <point x="328" y="-110" type="curve" smooth="yes"/>
    </contour>
    <contour>
      <point x="287" y="236" type="line"/>
      <point x="287" y="700" type="line"/>
      <point x="51" y="700" type="line"/>
      <point x="51" y="236" type="line"/>
    </contour>
    <contour>
      <point x="169" y="700" type="move" name="top"/>
    </contour>
  </outline>
</glyph>
<glyph name="J.ss01" format="1">
  <advance width="574"/>
  <outline>
    <contour>
      <point x="422" y="-116"/>
      <point x="523" y="-22"/>
      <point x="523" y="170" type="curve" smooth="yes"/>
      <point x="523" y="700" type="line"/>
      <point x="52" y="700" type="line"/>
      <point x="52" y="522" type="line"/>
      <point x="290" y="522" type="line"/>
      <point x="290" y="156" type="line" smooth="yes"/>
      <point x="290" y="99"/>
      <point x="263" y="69"/>
      <point x="214" y="69" type="curve" smooth="yes"/>
      <point x="175" y="69"/>
      <point x="140" y="92"/>
      <point x="103" y="138" type="curve"/>
      <point x="-24" y="-12" type="line"/>
      <point x="34" y="-80"/>
      <point x="125" y="-116"/>
      <point x="234" y="-116" type="curve" smooth="yes"/>
    </contour>
    <contour>
      <point x="288" y="700" type="move" name="top"/>
    </contour>
  </outline>
</glyph>
<glyph name="M.ss01" format="1">
  <advance width="1156"/>
  <outline>
    <contour>
      <point x="1105" y="0" type="line"/>
      <point x="1105" y="425" type="line" smooth="yes"/>
      <point x="1105" y="615"/>
      <point x="1011" y="716"/>
      <point x="856" y="716" type="curve" smooth="yes"/>
      <point x="701" y="716"/>
      <point x="595" y="612"/>
      <point x="595" y="425" type="curve" smooth="yes"/>
      <point x="595" y="300" type="line"/>
      <point x="699" y="300" type="line"/>
      <point x="699" y="410" type="line" smooth="yes"/>
      <point x="699" y="495"/>
      <point x="738" y="525"/>
      <point x="787" y="525" type="curve" smooth="yes"/>
      <point x="836" y="525"/>
      <point x="869" y="496"/>
      <point x="869" y="418" type="curve" smooth="yes"/>
      <point x="869" y="0" type="line"/>
    </contour>
    <contour>
      <point x="293" y="0" type="line"/>
      <point x="293" y="522" type="line"/>
      <point x="286" y="551" type="line"/>
      <point x="286" y="700" type="line"/>
      <point x="57" y="700" type="line"/>
      <point x="57" y="0" type="line"/>
    </contour>
    <contour>
      <point x="699" y="0" type="line"/>
      <point x="699" y="425" type="line" smooth="yes"/>
      <point x="699" y="615"/>
      <point x="611" y="716"/>
      <point x="468" y="716" type="curve" smooth="yes"/>
      <point x="309" y="716"/>
      <point x="231" y="602"/>
      <point x="231" y="415" type="curve" smooth="yes"/>
      <point x="231" y="300" type="line"/>
      <point x="293" y="300" type="line"/>
      <point x="293" y="410" type="line" smooth="yes"/>
      <point x="293" y="495"/>
      <point x="332" y="525"/>
      <point x="381" y="525" type="curve" smooth="yes"/>
      <point x="430" y="525"/>
      <point x="463" y="496"/>
      <point x="463" y="418" type="curve" smooth="yes"/>
      <point x="463" y="0" type="line"/>
    </contour>
    <contour>
      <point x="581" y="700" type="move" name="top"/>
    </contour>
    <contour>
      <point x="581" y="0" type="move" name="bottom"/>
    </contour>
  </outline>
</glyph>
<glyph name="T.ss01" format="1">
  <advance width="684"/>
  <outline>
    <contour>
      <point x="144" y="502"/>
      <point x="231" y="528"/>
      <point x="342" y="528" type="curve" smooth="yes"/>
      <point x="453" y="528"/>
      <point x="540" y="502"/>
      <point x="624" y="455" type="curve"/>
      <point x="702" y="623" type="line"/>
      <point x="601" y="684"/>
      <point x="473" y="716"/>
      <point x="342" y="716" type="curve" smooth="yes"/>
      <point x="211" y="716"/>
      <point x="83" y="684"/>
      <point x="-18" y="623" type="curve"/>
      <point x="60" y="455" type="line"/>
    </contour>
    <contour>
      <point x="460" y="0" type="line"/>
      <point x="460" y="606" type="line"/>
      <point x="224" y="606" type="line"/>
      <point x="224" y="0" type="line"/>
    </contour>
    <contour>
      <point x="341" y="300" type="move" name="center"/>
    </contour>
    <contour>
      <point x="342" y="0" type="move" name="bottom"/>
    </contour>
    <contour>
      <point x="347" y="701" type="move" name="top"/>
    </contour>
  </outline>
</glyph>
<glyph name="T_h" format="1">
  <advance width="1261"/>
  <outline>
    <contour>
      <point x="435" y="0" type="line"/>
      <point x="435" y="518" type="line"/>
      <point x="635" y="518" type="line"/>
      <point x="635" y="701" type="line"/>
      <point x="4" y="701" type="line"/>
      <point x="4" y="518" type="line"/>
      <point x="203" y="518" type="line"/>
      <point x="203" y="0" type="line"/>
    </contour>
    <contour>
      <point x="851" y="0" type="line"/>
      <point x="851" y="701" type="line"/>
      <point x="626" y="701" type="line"/>
      <point x="626" y="0" type="line"/>
    </contour>
    <contour>
      <point x="1213" y="0" type="line"/>
      <point x="1213" y="349" type="line" smooth="yes"/>
      <point x="1213" y="475"/>
      <point x="1132" y="557"/>
      <point x="1017" y="557" type="curve" smooth="yes"/>
      <point x="882" y="557"/>
      <point x="801" y="445"/>
      <point x="801" y="271" type="curve"/>
      <point x="851" y="271" type="line"/>
      <point x="851" y="324"/>
      <point x="879" y="359"/>
      <point x="923" y="359" type="curve" smooth="yes"/>
      <point x="962" y="359"/>
      <point x="988" y="330"/>
      <point x="988" y="284" type="curve" smooth="yes"/>
      <point x="988" y="0" type="line"/>
    </contour>
    <contour>
      <point x="318" y="0" type="move" name="bottom_1"/>
    </contour>
    <contour>
      <point x="-1" y="0" type="move" name="center_2"/>
    </contour>
    <contour>
      <point x="-1" y="0" type="move" name="center_1"/>
    </contour>
    <contour>
      <point x="955" y="547" type="move" name="top_2"/>
    </contour>
    <contour>
      <point x="636" y="0" type="move" name="caret_1"/>
    </contour>
    <contour>
      <point x="318" y="547" type="move" name="top_1"/>
    </contour>
    <contour>
      <point x="955" y="0" type="move" name="bottom_2"/>
    </contour>
  </outline>
</glyph>
<glyph name="U.ss01" format="1">
  <advance width="794"/>
  <outline>
    <contour>
      <point x="477" y="-16"/>
      <point x="573" y="108"/>
      <point x="573" y="305" type="curve" smooth="yes"/>
      <point x="573" y="400" type="line"/>
      <point x="501" y="400" type="line"/>
      <point x="501" y="310" type="line" smooth="yes"/>
      <point x="501" y="217"/>
      <point x="452" y="175"/>
      <point x="391" y="175" type="curve" smooth="yes"/>
      <point x="328" y="175"/>
      <point x="287" y="214"/>
      <point x="287" y="302" type="curve" smooth="yes"/>
      <point x="287" y="700" type="line"/>
      <point x="51" y="700" type="line"/>
      <point x="51" y="295" type="line" smooth="yes"/>
      <point x="51" y="95"/>
      <point x="147" y="-16"/>
      <point x="322" y="-16" type="curve" smooth="yes"/>
    </contour>
    <contour>
      <point x="737" y="0" type="line"/>
      <point x="737" y="700" type="line"/>
      <point x="501" y="700" type="line"/>
      <point x="501" y="178" type="line"/>
      <point x="508" y="149" type="line"/>
      <point x="508" y="0" type="line"/>
    </contour>
    <contour>
      <point x="633" y="0" type="move" name="ogonek"/>
    </contour>
    <contour>
      <point x="394" y="700" type="move" name="top"/>
    </contour>
    <contour>
      <point x="632" y="700" type="move" name="topright"/>
    </contour>
    <contour>
      <point x="394" y="0" type="move" name="bottom"/>
    </contour>
  </outline>
</glyph>
<glyph name="Udieresis.alt.02" format="1">
  <advance width="784"/>
  <outline>
    <contour>
      <point x="607" y="-16"/>
      <point x="733" y="105"/>
      <point x="733" y="315" type="curve" smooth="yes"/>
      <point x="733" y="700" type="line"/>
      <point x="501" y="700" type="line"/>
      <point x="501" y="322" type="line" smooth="yes"/>
      <point x="501" y="215"/>
      <point x="460" y="175"/>
      <point x="394" y="175" type="curve" smooth="yes"/>
      <point x="328" y="175"/>
      <point x="287" y="215"/>
      <point x="287" y="322" type="curve" smooth="yes"/>
      <point x="287" y="700" type="line"/>
      <point x="51" y="700" type="line"/>
      <point x="51" y="315" type="line" smooth="yes"/>
      <point x="51" y="105"/>
      <point x="177" y="-16"/>
      <point x="392" y="-16" type="curve" smooth="yes"/>
    </contour>
    <contour>
      <point x="445" y="363"/>
      <point x="480" y="401"/>
      <point x="480" y="446" type="curve" smooth="yes"/>
      <point x="480" y="491"/>
      <point x="445" y="529"/>
      <point x="394" y="529" type="curve" smooth="yes"/>
      <point x="343" y="529"/>
      <point x="309" y="491"/>
      <point x="309" y="446" type="curve" smooth="yes"/>
      <point x="309" y="401"/>
      <point x="343" y="363"/>
      <point x="394" y="363" type="curve" smooth="yes"/>
    </contour>
    <contour>
      <point x="445" y="544"/>
      <point x="480" y="582"/>
      <point x="480" y="627" type="curve" smooth="yes"/>
      <point x="480" y="672"/>
      <point x="445" y="710"/>
      <point x="394" y="710" type="curve" smooth="yes"/>
      <point x="343" y="710"/>
      <point x="309" y="672"/>
      <point x="309" y="627" type="curve" smooth="yes"/>
      <point x="309" y="582"/>
      <point x="343" y="544"/>
      <point x="394" y="544" type="curve" smooth="yes"/>
    </contour>
  </outline>
</glyph>
<glyph name="Udieresis.ss01.alt" format="1">
  <advance width="794"/>
  <outline>
    <contour>
      <point x="477" y="-16"/>
      <point x="573" y="108"/>
      <point x="573" y="305" type="curve" smooth="yes"/>
      <point x="573" y="400" type="line"/>
      <point x="501" y="400" type="line"/>
      <point x="501" y="310" type="line" smooth="yes"/>
      <point x="501" y="217"/>
      <point x="452" y="175"/>
      <point x="391" y="175" type="curve" smooth="yes"/>
      <point x="328" y="175"/>
      <point x="287" y="214"/>
      <point x="287" y="302" type="curve" smooth="yes"/>
      <point x="287" y="700" type="line"/>
      <point x="51" y="700" type="line"/>
      <point x="51" y="295" type="line" smooth="yes"/>
      <point x="51" y="95"/>
      <point x="147" y="-16"/>
      <point x="322" y="-16" type="curve" smooth="yes"/>
    </contour>
    <contour>
      <point x="374" y="533"/>
      <point x="413" y="568"/>
      <point x="413" y="621" type="curve" smooth="yes"/>
      <point x="413" y="674"/>
      <point x="374" y="710"/>
      <point x="323" y="710" type="curve" smooth="yes"/>
      <point x="272" y="710"/>
      <point x="233" y="674"/>
      <point x="233" y="621" type="curve" smooth="yes"/>
      <point x="233" y="568"/>
      <point x="272" y="533"/>
      <point x="323" y="533" type="curve" smooth="yes"/>
    </contour>
    <contour>
      <point x="737" y="0" type="line"/>
      <point x="737" y="700" type="line"/>
      <point x="501" y="700" type="line"/>
      <point x="501" y="178" type="line"/>
      <point x="508" y="149" type="line"/>
      <point x="508" y="0" type="line"/>
    </contour>
    <contour>
      <point x="516" y="533"/>
      <point x="555" y="568"/>
      <point x="555" y="621" type="curve" smooth="yes"/>
      <point x="555" y="674"/>
      <point x="516" y="710"/>
      <point x="465" y="710" type="curve" smooth="yes"/>
      <point x="414" y="710"/>
      <point x="375" y="674"/>
      <point x="375" y="621" type="curve" smooth="yes"/>
      <point x="375" y="568"/>
      <point x="414" y="533"/>
      <point x="465" y="533" type="curve" smooth="yes"/>
    </contour>
  </outline>
</glyph>
<glyph name="Udieresis.ss01.alt02" format="1">
  <advance width="794"/>
  <outline>
    <contour>
      <point x="477" y="-16"/>
      <point x="573" y="108"/>
      <point x="573" y="305" type="curve" smooth="yes"/>
      <point x="573" y="400" type="line"/>
      <point x="501" y="400" type="line"/>
      <point x="501" y="310" type="line" smooth="yes"/>
      <point x="501" y="217"/>
      <point x="452" y="175"/>
      <point x="391" y="175" type="curve" smooth="yes"/>
      <point x="328" y="175"/>
      <point x="287" y="214"/>
      <point x="287" y="302" type="curve" smooth="yes"/>
      <point x="287" y="700" type="line"/>
      <point x="51" y="700" type="line"/>
      <point x="51" y="295" type="line" smooth="yes"/>
      <point x="51" y="95"/>
      <point x="147" y="-16"/>
      <point x="322" y="-16" type="curve" smooth="yes"/>
    </contour>
    <contour>
      <point x="445" y="362"/>
      <point x="480" y="400"/>
      <point x="480" y="445" type="curve" smooth="yes"/>
      <point x="480" y="490"/>
      <point x="445" y="528"/>
      <point x="394" y="528" type="curve" smooth="yes"/>
      <point x="343" y="528"/>
      <point x="309" y="490"/>
      <point x="309" y="445" type="curve" smooth="yes"/>
      <point x="309" y="400"/>
      <point x="343" y="362"/>
      <point x="394" y="362" type="curve" smooth="yes"/>
    </contour>
    <contour>
      <point x="737" y="0" type="line"/>
      <point x="737" y="700" type="line"/>
      <point x="501" y="700" type="line"/>
      <point x="501" y="178" type="line"/>
      <point x="508" y="149" type="line"/>
      <point x="508" y="0" type="line"/>
    </contour>
    <contour>
      <point x="445" y="544"/>
      <point x="480" y="582"/>
      <point x="480" y="627" type="curve" smooth="yes"/>
      <point x="480" y="672"/>
      <point x="445" y="710"/>
      <point x="394" y="710" type="curve" smooth="yes"/>
      <point x="343" y="710"/>
      <point x="309" y="672"/>
      <point x="309" y="627" type="curve" smooth="yes"/>
      <point x="309" y="582"/>
      <point x="343" y="544"/>
      <point x="394" y="544" type="curve" smooth="yes"/>
    </contour>
  </outline>
</glyph>
<glyph name="Y.ss01" format="1">
  <advance width="783"/>
  <outline>
    <contour>
      <point x="592" y="-116"/>
      <point x="732" y="5"/>
      <point x="732" y="225" type="curve" smooth="yes"/>
      <point x="732" y="700" type="line"/>
      <point x="496" y="700" type="line"/>
      <point x="496" y="212" type="line" smooth="yes"/>
      <point x="496" y="115"/>
      <point x="458" y="72"/>
      <point x="361" y="72" type="curve" smooth="yes"/>
      <point x="292" y="72"/>
      <point x="217" y="94"/>
      <point x="151" y="136" type="curve"/>
      <point x="65" y="-31" type="line"/>
      <point x="138" y="-83"/>
      <point x="242" y="-116"/>
      <point x="372" y="-116" type="curve" smooth="yes"/>
    </contour>
    <contour>
      <point x="472" y="162"/>
      <point x="568" y="276"/>
      <point x="568" y="473" type="curve" smooth="yes"/>
      <point x="568" y="568" type="line"/>
      <point x="496" y="568" type="line"/>
      <point x="496" y="478" type="line" smooth="yes"/>
      <point x="496" y="385"/>
      <point x="447" y="353"/>
      <point x="386" y="353" type="curve" smooth="yes"/>
      <point x="315" y="353"/>
      <point x="282" y="391"/>
      <point x="282" y="470" type="curve" smooth="yes"/>
      <point x="282" y="700" type="line"/>
      <point x="46" y="700" type="line"/>
      <point x="46" y="453" type="line" smooth="yes"/>
      <point x="46" y="264"/>
      <point x="141" y="162"/>
      <point x="317" y="162" type="curve" smooth="yes"/>
    </contour>
    <contour>
      <point x="389" y="700" type="move" name="top"/>
    </contour>
    <contour>
      <point x="661" y="0" type="move" name="bottom"/>
    </contour>
  </outline>
</glyph>
<glyph name="Z.ss01" format="1">
  <advance width="697"/>
  <outline>
    <contour>
      <point x="680" y="0" type="line"/>
      <point x="680" y="178" type="line"/>
      <point x="245" y="178" type="line"/>
      <point x="277" y="121" type="line"/>
      <point x="665" y="571" type="line"/>
      <point x="665" y="701" type="line"/>
      <point x="48" y="701" type="line"/>
      <point x="48" y="523" type="line"/>
      <point x="457" y="523" type="line"/>
      <point x="425" y="580" type="line"/>
      <point x="37" y="130" type="line"/>
      <point x="37" y="0" type="line"/>
    </contour>
    <contour>
      <point x="616" y="273" type="line"/>
      <point x="616" y="433" type="line"/>
      <point x="448" y="433" type="line"/>
      <point x="388" y="437" type="line"/>
      <point x="87" y="437" type="line"/>
      <point x="87" y="277" type="line"/>
      <point x="278" y="277" type="line"/>
      <point x="338" y="273" type="line"/>
    </contour>
    <contour>
      <point x="359" y="700" type="move" name="top"/>
    </contour>
    <contour>
      <point x="359" y="0" type="move" name="bottom"/>
    </contour>
  </outline>
</glyph>
<glyph name="a.sc" format="1">
  <advance width="702"/>
  <outline>
    <contour>
      <point x="202" y="0" type="line"/>
      <point x="389" y="478" type="line"/>
      <point x="314" y="478" type="line"/>
      <point x="497" y="0" type="line"/>
      <point x="720" y="0" type="line"/>
      <point x="464" y="582" type="line"/>
      <point x="238" y="582" type="line"/>
      <point x="-18" y="0" type="line"/>
    </contour>
    <contour>
      <point x="517" y="76" type="line"/>
      <point x="459" y="234" type="line"/>
      <point x="206" y="234" type="line"/>
      <point x="148" y="76" type="line"/>
    </contour>
    <contour>
      <point x="720" y="0" type="move" name="ogonek"/>
    </contour>
    <contour>
      <point x="351" y="582" type="move" name="top"/>
    </contour>
    <contour>
      <point x="106" y="583" type="move" name="topleft"/>
    </contour>
    <contour>
      <point x="351" y="0" type="move" name="bottom"/>
    </contour>
  </outline>
</glyph>
<glyph name="a.sc.ss01" format="1">
  <advance width="666"/>
  <outline>
    <contour>
      <point x="262" y="0" type="line"/>
      <point x="262" y="116" type="line"/>
      <point x="405" y="116" type="line"/>
      <point x="405" y="0" type="line"/>
      <point x="618" y="0" type="line"/>
      <point x="618" y="338" type="line" smooth="yes"/>
      <point x="618" y="493"/>
      <point x="505" y="596"/>
      <point x="331" y="596" type="curve" smooth="yes"/>
      <point x="160" y="596"/>
      <point x="48" y="493"/>
      <point x="48" y="338" type="curve" smooth="yes"/>
      <point x="48" y="0" type="line"/>
    </contour>
    <contour>
      <point x="262" y="338" type="line" smooth="yes"/>
      <point x="262" y="385"/>
      <point x="291" y="418"/>
      <point x="333" y="418" type="curve" smooth="yes"/>
      <point x="375" y="418"/>
      <point x="405" y="385"/>
      <point x="405" y="338" type="curve" smooth="yes"/>
      <point x="405" y="266" type="line"/>
      <point x="262" y="266" type="line"/>
    </contour>
    <contour>
      <point x="571" y="0" type="move" name="ogonek"/>
    </contour>
    <contour>
      <point x="334" y="582" type="move" name="top"/>
    </contour>
    <contour>
      <point x="16" y="582" type="move" name="topleft"/>
    </contour>
    <contour>
      <point x="334" y="0" type="move" name="bottom"/>
    </contour>
  </outline>
</glyph>
<glyph name="a.ss01" format="1">
  <advance width="694"/>
  <outline>
    <contour>
      <point x="431" y="-10"/>
      <point x="487" y="77"/>
      <point x="487" y="274" type="curve" smooth="yes"/>
      <point x="487" y="468"/>
      <point x="423" y="557"/>
      <point x="282" y="557" type="curve" smooth="yes"/>
      <point x="140" y="557"/>
      <point x="21" y="450"/>
      <point x="21" y="274" type="curve" smooth="yes"/>
      <point x="21" y="98"/>
      <point x="140" y="-10"/>
      <point x="282" y="-10" type="curve" smooth="yes"/>
    </contour>
    <contour>
      <point x="283" y="166"/>
      <point x="244" y="203"/>
      <point x="244" y="274" type="curve" smooth="yes"/>
      <point x="244" y="345"/>
      <point x="283" y="381"/>
      <point x="333" y="381" type="curve" smooth="yes"/>
      <point x="383" y="381"/>
      <point x="422" y="345"/>
      <point x="422" y="274" type="curve" smooth="yes"/>
      <point x="422" y="203"/>
      <point x="383" y="166"/>
      <point x="333" y="166" type="curve" smooth="yes"/>
    </contour>
    <contour>
      <point x="644" y="0" type="line"/>
      <point x="644" y="547" type="line"/>
      <point x="418" y="547" type="line"/>
      <point x="418" y="474" type="line"/>
      <point x="428" y="274" type="line"/>
      <point x="429" y="74" type="line"/>
      <point x="429" y="0" type="line"/>
    </contour>
    <contour>
      <point x="644" y="0" type="move" name="ogonek"/>
    </contour>
    <contour>
      <point x="360" y="0" type="move" name="bottom"/>
    </contour>
    <contour>
      <point x="360" y="547" type="move" name="top"/>
    </contour>
  </outline>
</glyph>
<glyph name="acutecomb.loclVIET" format="1">
  <advance width="600"/>
  <outline>
    <contour>
      <point x="345" y="607" type="line"/>
      <point x="512" y="737" type="line"/>
      <point x="297" y="737" type="line"/>
      <point x="195" y="607" type="line"/>
    </contour>
    <contour>
      <point x="300" y="730" type="move" name="top"/>
    </contour>
    <contour>
      <point x="300" y="547" type="move" name="_top"/>
    </contour>
  </outline>
</glyph>
<glyph name="ae.sc" format="1">
  <advance width="970"/>
  <outline>
    <contour>
      <point x="216" y="0" type="line"/>
      <point x="456" y="503" type="line"/>
      <point x="319" y="414" type="line"/>
      <point x="514" y="414" type="line"/>
      <point x="514" y="582" type="line"/>
      <point x="283" y="582" type="line"/>
      <point x="-18" y="0" type="line"/>
    </contour>
    <contour>
      <point x="514" y="76" type="line"/>
      <point x="514" y="234" type="line"/>
      <point x="200" y="234" type="line"/>
      <point x="201" y="76" type="line"/>
    </contour>
    <contour>
      <point x="943" y="0" type="line"/>
      <point x="943" y="165" type="line"/>
      <point x="661" y="165" type="line"/>
      <point x="661" y="218" type="line"/>
      <point x="898" y="218" type="line"/>
      <point x="898" y="372" type="line"/>
      <point x="661" y="372" type="line"/>
      <point x="661" y="417" type="line"/>
      <point x="932" y="417" type="line"/>
      <point x="932" y="582" type="line"/>
      <point x="435" y="582" type="line"/>
      <point x="435" y="0" type="line"/>
    </contour>
    <contour>
      <point x="548" y="582" type="move" name="top"/>
    </contour>
    <contour>
      <point x="548" y="0" type="move" name="bottom"/>
    </contour>
  </outline>
</glyph>
<glyph name="ae.ss01" format="1">
  <advance width="992"/>
  <outline>
    <contour>
      <point x="367" y="-10"/>
      <point x="457" y="21"/>
      <point x="505" y="155" type="curve"/>
      <point x="402" y="155" type="line"/>
      <point x="459" y="35"/>
      <point x="573" y="-10"/>
      <point x="692" y="-10" type="curve" smooth="yes"/>
      <point x="798" y="-10"/>
      <point x="876" y="20"/>
      <point x="930" y="78" type="curve"/>
      <point x="814" y="197" type="line"/>
      <point x="777" y="170"/>
      <point x="748" y="157"/>
      <point x="699" y="157" type="curve" smooth="yes"/>
      <point x="625" y="157"/>
      <point x="581" y="196"/>
      <point x="581" y="267" type="curve" smooth="yes"/>
      <point x="581" y="301" type="line" smooth="yes"/>
      <point x="581" y="364"/>
      <point x="619" y="403"/>
      <point x="676" y="403" type="curve" smooth="yes"/>
      <point x="729" y="403"/>
      <point x="763" y="364"/>
      <point x="763" y="311" type="curve"/>
      <point x="840" y="362" type="line"/>
      <point x="550" y="306" type="line"/>
      <point x="550" y="196" type="line"/>
      <point x="971" y="277" type="line"/>
      <point x="971" y="459"/>
      <point x="833" y="557"/>
      <point x="679" y="557" type="curve" smooth="yes"/>
      <point x="577" y="557"/>
      <point x="488" y="517"/>
      <point x="434" y="451" type="curve"/>
      <point x="522" y="451" type="line"/>
      <point x="476" y="524"/>
      <point x="391" y="557"/>
      <point x="282" y="557" type="curve" smooth="yes"/>
      <point x="200" y="557"/>
      <point x="105" y="535"/>
      <point x="41" y="495" type="curve"/>
      <point x="113" y="346" type="line"/>
      <point x="149" y="373"/>
      <point x="204" y="389"/>
      <point x="248" y="389" type="curve" smooth="yes"/>
      <point x="324" y="389"/>
      <point x="355" y="360"/>
      <point x="355" y="307" type="curve" smooth="yes"/>
      <point x="355" y="200" type="line" smooth="yes"/>
      <point x="355" y="154"/>
      <point x="330" y="126"/>
      <point x="286" y="126" type="curve" smooth="yes"/>
      <point x="249" y="126"/>
      <point x="230" y="145"/>
      <point x="230" y="171" type="curve" smooth="yes"/>
      <point x="230" y="202"/>
      <point x="251" y="219"/>
      <point x="299" y="219" type="curve" smooth="yes"/>
      <point x="371" y="219" type="line"/>
      <point x="371" y="328" type="line"/>
      <point x="263" y="328" type="line" smooth="yes"/>
      <point x="95" y="328"/>
      <point x="17" y="270"/>
      <point x="17" y="162" type="curve" smooth="yes"/>
      <point x="17" y="66"/>
      <point x="107" y="-10"/>
      <point x="255" y="-10" type="curve" smooth="yes"/>
    </contour>
    <contour>
      <point x="468" y="547" type="move" name="top"/>
    </contour>
  </outline>
</glyph>
<glyph name="ampersand.sc" format="1">
  <advance width="612"/>
  <outline>
    <contour>
      <point x="600" y="63" type="line"/>
      <point x="333" y="305"/>
      <point x="273" y="376"/>
      <point x="273" y="439" type="curve" smooth="yes"/>
      <point x="273" y="463"/>
      <point x="283" y="478"/>
      <point x="302" y="478" type="curve" smooth="yes"/>
      <point x="320" y="478"/>
      <point x="333" y="466"/>
      <point x="333" y="447" type="curve" smooth="yes"/>
      <point x="333" y="346"/>
      <point x="50" y="347"/>
      <point x="50" y="168" type="curve" smooth="yes"/>
      <point x="50" y="64"/>
      <point x="142" y="-9"/>
      <point x="270" y="-9" type="curve" smooth="yes"/>
      <point x="404" y="-9"/>
      <point x="519" y="80"/>
      <point x="567" y="222" type="curve"/>
      <point x="438" y="315" type="line"/>
      <point x="419" y="212"/>
      <point x="352" y="133"/>
      <point x="278" y="133" type="curve" smooth="yes"/>
      <point x="243" y="133"/>
      <point x="218" y="152"/>
      <point x="218" y="184" type="curve" smooth="yes"/>
      <point x="218" y="273"/>
      <point x="493" y="278"/>
      <point x="493" y="449" type="curve" smooth="yes"/>
      <point x="493" y="532"/>
      <point x="413" y="591"/>
      <point x="300" y="591" type="curve" smooth="yes"/>
      <point x="185" y="591"/>
      <point x="113" y="534"/>
      <point x="113" y="439" type="curve" smooth="yes"/>
      <point x="113" y="336"/>
      <point x="172" y="269"/>
      <point x="497" y="-37" type="curve"/>
    </contour>
  </outline>
</glyph>
<glyph name="areas" format="1">
  <advance width="319"/>
  <outline>
    <contour>
      <point x="100" y="579" type="line"/>
      <point x="176" y="579" type="line"/>
      <point x="171" y="584" type="line"/>
      <point x="166" y="589" type="line"/>
      <point x="161" y="594" type="line"/>
      <point x="156" y="599" type="line"/>
      <point x="149" y="604" type="line"/>
      <point x="143" y="609" type="line"/>
      <point x="137" y="614" type="line"/>
      <point x="132" y="619" type="line"/>
      <point x="128" y="624" type="line"/>
      <point x="124" y="629" type="line"/>
      <point x="121" y="634" type="line"/>
      <point x="118" y="639" type="line"/>
      <point x="115" y="644" type="line"/>
      <point x="112" y="649" type="line"/>
      <point x="110" y="654" type="line"/>
      <point x="108" y="659" type="line"/>
      <point x="106" y="664" type="line"/>
      <point x="105" y="669" type="line"/>
      <point x="103" y="674" type="line"/>
      <point x="102" y="679" type="line"/>
      <point x="101" y="684" type="line"/>
      <point x="101" y="689" type="line"/>
      <point x="100" y="694" type="line"/>
      <point x="100" y="699" type="line"/>
      <point x="100" y="704" type="line"/>
      <point x="100" y="709" type="line"/>
      <point x="100" y="714" type="line"/>
      <point x="101" y="719" type="line"/>
      <point x="102" y="724" type="line"/>
      <point x="103" y="729" type="line"/>
      <point x="104" y="734" type="line"/>
      <point x="105" y="739" type="line"/>
      <point x="107" y="744" type="line"/>
      <point x="109" y="749" type="line"/>
      <point x="111" y="754" type="line"/>
      <point x="113" y="759" type="line"/>
      <point x="116" y="764" type="line"/>
      <point x="119" y="769" type="line"/>
      <point x="122" y="774" type="line"/>
      <point x="126" y="779" type="line"/>
      <point x="130" y="784" type="line"/>
      <point x="134" y="789" type="line"/>
      <point x="139" y="794" type="line"/>
      <point x="144" y="799" type="line"/>
      <point x="149" y="804" type="line"/>
      <point x="154" y="809" type="line"/>
      <point x="159" y="814" type="line"/>
      <point x="164" y="819" type="line"/>
      <point x="169" y="824" type="line"/>
      <point x="100" y="827" type="line"/>
      <point x="100" y="579" type="line"/>
    </contour>
    <contour>
      <point x="348" y="579" type="line"/>
      <point x="348" y="579" type="line"/>
      <point x="348" y="827" type="line"/>
      <point x="279" y="824" type="line"/>
      <point x="284" y="819" type="line"/>
      <point x="289" y="814" type="line"/>
      <point x="294" y="809" type="line"/>
      <point x="299" y="804" type="line"/>
      <point x="304" y="799" type="line"/>
      <point x="309" y="794" type="line"/>
      <point x="314" y="789" type="line"/>
      <point x="318" y="784" type="line"/>
      <point x="322" y="779" type="line"/>
      <point x="326" y="774" type="line"/>
      <point x="329" y="769" type="line"/>
      <point x="332" y="764" type="line"/>
      <point x="335" y="759" type="line"/>
      <point x="337" y="754" type="line"/>
      <point x="339" y="749" type="line"/>
      <point x="341" y="744" type="line"/>
      <point x="343" y="739" type="line"/>
      <point x="344" y="734" type="line"/>
      <point x="345" y="729" type="line"/>
      <point x="346" y="724" type="line"/>
      <point x="347" y="719" type="line"/>
      <point x="348" y="714" type="line"/>
      <point x="348" y="709" type="line"/>
      <point x="343" y="704" type="line"/>
      <point x="348" y="699" type="line"/>
      <point x="348" y="694" type="line"/>
      <point x="347" y="689" type="line"/>
      <point x="347" y="684" type="line"/>
      <point x="346" y="679" type="line"/>
      <point x="345" y="674" type="line"/>
      <point x="343" y="669" type="line"/>
      <point x="342" y="664" type="line"/>
      <point x="340" y="659" type="line"/>
      <point x="338" y="654" type="line"/>
      <point x="336" y="649" type="line"/>
      <point x="333" y="644" type="line"/>
      <point x="330" y="639" type="line"/>
      <point x="327" y="634" type="line"/>
      <point x="324" y="629" type="line"/>
      <point x="320" y="624" type="line"/>
      <point x="316" y="619" type="line"/>
      <point x="311" y="614" type="line"/>
      <point x="306" y="609" type="line"/>
      <point x="301" y="604" type="line"/>
      <point x="296" y="599" type="line"/>
      <point x="291" y="594" type="line"/>
      <point x="286" y="589" type="line"/>
      <point x="281" y="584" type="line"/>
      <point x="276" y="579" type="line"/>
    </contour>
  </outline>
</glyph>
<glyph name="b.sc" format="1">
  <advance width="655"/>
  <outline>
    <contour>
      <point x="388" y="0" type="line" smooth="yes"/>
      <point x="533" y="0"/>
      <point x="629" y="65"/>
      <point x="629" y="164" type="curve" smooth="yes"/>
      <point x="629" y="236"/>
      <point x="583" y="295"/>
      <point x="514" y="311" type="curve"/>
      <point x="574" y="330"/>
      <point x="612" y="379"/>
      <point x="612" y="435" type="curve" smooth="yes"/>
      <point x="612" y="523"/>
      <point x="518" y="582"/>
      <point x="372" y="582" type="curve" smooth="yes"/>
      <point x="65" y="582" type="line"/>
      <point x="65" y="0" type="line"/>
    </contour>
    <contour>
      <point x="278" y="224" type="line"/>
      <point x="360" y="224" type="line" smooth="yes"/>
      <point x="388" y="224"/>
      <point x="407" y="211"/>
      <point x="407" y="191" type="curve" smooth="yes"/>
      <point x="407" y="169"/>
      <point x="388" y="154"/>
      <point x="360" y="154" type="curve" smooth="yes"/>
      <point x="278" y="154" type="line"/>
    </contour>
    <contour>
      <point x="278" y="428" type="line"/>
      <point x="360" y="428" type="line" smooth="yes"/>
      <point x="379" y="428"/>
      <point x="393" y="415"/>
      <point x="393" y="396" type="curve" smooth="yes"/>
      <point x="393" y="376"/>
      <point x="379" y="362"/>
      <point x="360" y="362" type="curve" smooth="yes"/>
      <point x="278" y="362" type="line"/>
    </contour>
  </outline>
</glyph>
<glyph name="backslash.case" format="1">
  <advance width="440"/>
  <outline>
    <contour>
      <point x="150" y="842" type="line"/>
      <point x="-50" y="842" type="line"/>
      <point x="280" y="-100" type="line"/>
      <point x="480" y="-100" type="line"/>
    </contour>
  </outline>
</glyph>
<glyph name="brevecomb.loclVIET" format="1">
  <advance width="600"/>
  <outline>
    <contour>
      <point x="420" y="597"/>
      <point x="503" y="651"/>
      <point x="509" y="737" type="curve"/>
      <point x="382" y="737" type="line"/>
      <point x="378" y="712"/>
      <point x="346" y="695"/>
      <point x="300" y="695" type="curve" smooth="yes"/>
      <point x="254" y="695"/>
      <point x="222" y="712"/>
      <point x="218" y="737" type="curve"/>
      <point x="91" y="737" type="line"/>
      <point x="97" y="651"/>
      <point x="180" y="597"/>
      <point x="300" y="597" type="curve" smooth="yes"/>
    </contour>
    <contour>
      <point x="300" y="715" type="move" name="top"/>
    </contour>
    <contour>
      <point x="300" y="547" type="move" name="_top"/>
    </contour>
  </outline>
</glyph>
<glyph name="brevecomb.narrow" format="1">
  <advance width="600"/>
  <outline>
    <contour>
      <point x="406" y="597"/>
      <point x="482" y="662"/>
      <point x="484" y="767" type="curve"/>
      <point x="354" y="767" type="line"/>
      <point x="354" y="730"/>
      <point x="335" y="704"/>
      <point x="300" y="704" type="curve" smooth="yes"/>
      <point x="265" y="704"/>
      <point x="246" y="730"/>
      <point x="246" y="767" type="curve"/>
      <point x="116" y="767" type="line"/>
      <point x="118" y="662"/>
      <point x="194" y="597"/>
      <point x="300" y="597" type="curve" smooth="yes"/>
    </contour>
    <contour>
      <point x="300" y="750" type="move" name="top"/>
    </contour>
    <contour>
      <point x="300" y="547" type="move" name="_top"/>
    </contour>
  </outline>
</glyph>
<glyph name="brevecomb_acutecomb" format="1">
  <advance width="600"/>
  <outline>
    <component base="brevecomb.loclVIET"/>
    <component base="acutecomb.loclVIET" yOffset="168"/>
    <contour>
      <point x="300" y="547" type="move" name="_top"/>
    </contour>
  </outline>
</glyph>
<glyph name="brevecomb_gravecomb.case" format="1">
  <advance width="600"/>
  <outline>
    <component base="brevecomb_gravecomb" yOffset="150"/>
    <contour>
      <point x="300" y="700" type="move" name="_top"/>
    </contour>
  </outline>
</glyph>
<glyph name="brevecomb_hookabovecomb" format="1">
  <advance width="600"/>
  <outline>
    <component base="brevecomb.loclVIET"/>
    <component base="hookabovecomb.loclVIET" yOffset="148"/>
    <contour>
      <point x="300" y="547" type="move" name="_top"/>
    </contour>
  </outline>
</glyph>
<glyph name="breveinvertedcomb.case" format="1">
  <advance width="600"/>
  <outline>
    <component base="breveinvertedcomb" yOffset="150"/>
    <contour>
      <point x="300" y="700" type="move" name="_top"/>
    </contour>
  </outline>
</glyph>
<glyph name="breveinvertedcomb.narrow" format="1">
  <advance width="600"/>
  <outline>
    <contour>
      <point x="246" y="607" type="line"/>
      <point x="246" y="644"/>
      <point x="265" y="670"/>
      <point x="300" y="670" type="curve" smooth="yes"/>
      <point x="335" y="670"/>
      <point x="354" y="644"/>
      <point x="354" y="607" type="curve"/>
      <point x="484" y="607" type="line"/>
      <point x="482" y="712"/>
      <point x="406" y="777"/>
      <point x="300" y="777" type="curve" smooth="yes"/>
      <point x="194" y="777"/>
      <point x="118" y="712"/>
      <point x="116" y="607" type="curve"/>
    </contour>
    <contour>
      <point x="300" y="750" type="move" name="top"/>
    </contour>
    <contour>
      <point x="300" y="547" type="move" name="_top"/>
    </contour>
  </outline>
</glyph>
<glyph name="c.sc" format="1">
  <advance width="595"/>
  <outline>
    <contour>
      <point x="424" y="-15"/>
      <point x="527" y="34"/>
      <point x="594" y="108" type="curve"/>
      <point x="470" y="240" type="line"/>
      <point x="433" y="199"/>
      <point x="382" y="172"/>
      <point x="343" y="172" type="curve" smooth="yes"/>
      <point x="282" y="172"/>
      <point x="238" y="223"/>
      <point x="238" y="296" type="curve" smooth="yes"/>
      <point x="238" y="368"/>
      <point x="282" y="418"/>
      <point x="343" y="418" type="curve" smooth="yes"/>
      <point x="385" y="418"/>
      <point x="437" y="386"/>
      <point x="470" y="337" type="curve"/>
      <point x="594" y="484" type="line"/>
      <point x="533" y="552"/>
      <point x="431" y="596"/>
      <point x="340" y="596" type="curve" smooth="yes"/>
      <point x="153" y="596"/>
      <point x="19" y="470"/>
      <point x="19" y="293" type="curve" smooth="yes"/>
      <point x="19" y="114"/>
      <point x="150" y="-15"/>
      <point x="332" y="-15" type="curve" smooth="yes"/>
    </contour>
    <contour>
      <point x="344" y="582" type="move" name="top"/>
    </contour>
    <contour>
      <point x="316" y="0" type="move" name="bottom"/>
    </contour>
  </outline>
</glyph>
<glyph name="caroncomb.alt" format="1">
  <advance width="600"/>
  <outline>
    <contour>
      <point x="428" y="470" type="line"/>
      <point x="458" y="700" type="line"/>
      <point x="300" y="700" type="line"/>
      <point x="300" y="470" type="line"/>
    </contour>
    <contour>
      <point x="300" y="700" type="move" name="_topright"/>
    </contour>
  </outline>
</glyph>
<glyph name="caroncomb.alt.short" format="1">
  <advance width="600"/>
  <outline>
    <contour>
      <point x="428" y="561" type="line"/>
      <point x="448" y="742" type="line"/>
      <point x="300" y="742" type="line"/>
      <point x="300" y="561" type="line"/>
    </contour>
    <contour>
      <point x="300" y="742" type="move" name="_topright"/>
    </contour>
  </outline>
</glyph>
<glyph name="caroncomb.loclVIET" format="1">
  <advance width="600"/>
  <outline>
    <contour>
      <point x="395" y="607" type="line"/>
      <point x="524" y="737" type="line"/>
      <point x="384" y="737" type="line"/>
      <point x="246" y="637" type="line"/>
      <point x="354" y="637" type="line"/>
      <point x="216" y="737" type="line"/>
      <point x="76" y="737" type="line"/>
      <point x="205" y="607" type="line"/>
    </contour>
    <contour>
      <point x="300" y="707" type="move" name="top"/>
    </contour>
    <contour>
      <point x="300" y="547" type="move" name="_top"/>
    </contour>
  </outline>
</glyph>
<glyph name="caroncomb_dotaccentcomb" format="1">
  <advance width="600"/>
  <outline>
    <component base="caroncomb.loclVIET"/>
    <component base="dotaccentcomb.loclVIET" yOffset="160"/>
    <contour>
      <point x="300" y="547" type="move" name="_top"/>
    </contour>
  </outline>
</glyph>
<glyph name="circumflexcomb.loclVIET" format="1">
  <advance width="600"/>
  <outline>
    <contour>
      <point x="216" y="607" type="line"/>
      <point x="354" y="707" type="line"/>
      <point x="246" y="707" type="line"/>
      <point x="384" y="607" type="line"/>
      <point x="524" y="607" type="line"/>
      <point x="395" y="737" type="line"/>
      <point x="205" y="737" type="line"/>
      <point x="76" y="607" type="line"/>
    </contour>
    <contour>
      <point x="300" y="722" type="move" name="top"/>
    </contour>
    <contour>
      <point x="300" y="547" type="move" name="_top"/>
    </contour>
  </outline>
</glyph>
<glyph name="circumflexcomb.narrow" format="1">
  <advance width="600"/>
  <outline>
    <contour>
      <point x="241" y="607" type="line"/>
      <point x="356" y="737" type="line"/>
      <point x="244" y="737" type="line"/>
      <point x="359" y="607" type="line"/>
      <point x="499" y="607" type="line"/>
      <point x="394" y="767" type="line"/>
      <point x="206" y="767" type="line"/>
      <point x="101" y="607" type="line"/>
    </contour>
    <contour>
      <point x="300" y="750" type="move" name="top"/>
    </contour>
    <contour>
      <point x="300" y="547" type="move" name="_top"/>
    </contour>
  </outline>
</glyph>
<glyph name="circumflexcomb_acutecomb.case" format="1">
  <advance width="600"/>
  <outline>
    <component base="circumflexcomb_acutecomb" yOffset="150"/>
    <contour>
      <point x="300" y="700" type="move" name="_top"/>
    </contour>
  </outline>
</glyph>
<glyph name="circumflexcomb_acutecomb" format="1">
  <advance width="600"/>
  <outline>
    <component base="circumflexcomb.loclVIET"/>
    <component base="acutecomb.loclVIET" xOffset="250" yOffset="105"/>
    <contour>
      <point x="300" y="547" type="move" name="_top"/>
    </contour>
  </outline>
</glyph>
<glyph name="circumflexcomb_hookabovecomb" format="1">
  <advance width="600"/>
  <outline>
    <component base="circumflexcomb.loclVIET"/>
    <component base="hookabovecomb.loclVIET" xOffset="180" yOffset="95"/>
    <contour>
      <point x="300" y="547" type="move" name="_top"/>
    </contour>
  </outline>
</glyph>
<glyph name="commaaccentcomb.alt" format="1">
  <advance width="600"/>
  <outline>
    <component base="commaaccentcomb" xOffset="589" yOffset="547" xScale="-1" yScale="-1"/>
    <contour>
      <point x="300" y="547" type="move" name="_top"/>
    </contour>
  </outline>
</glyph>
<glyph name="d.sc" format="1">
  <advance width="718"/>
  <outline>
    <contour>
      <point x="353" y="0" type="line" smooth="yes"/>
      <point x="555" y="0"/>
      <point x="694" y="109"/>
      <point x="694" y="291" type="curve" smooth="yes"/>
      <point x="694" y="473"/>
      <point x="555" y="582"/>
      <point x="353" y="582" type="curve" smooth="yes"/>
      <point x="53" y="582" type="line"/>
      <point x="53" y="0" type="line"/>
    </contour>
    <contour>
      <point x="283" y="410" type="line"/>
      <point x="346" y="410" type="line" smooth="yes"/>
      <point x="412" y="410"/>
      <point x="462" y="372"/>
      <point x="462" y="291" type="curve" smooth="yes"/>
      <point x="462" y="210"/>
      <point x="412" y="172"/>
      <point x="346" y="172" type="curve" smooth="yes"/>
      <point x="283" y="172" type="line"/>
    </contour>
    <contour>
      <point x="190" y="295" type="move" name="center"/>
    </contour>
    <contour>
      <point x="315" y="0" type="move" name="bottom"/>
    </contour>
    <contour>
      <point x="314" y="582" type="move" name="top"/>
    </contour>
  </outline>
</glyph>
<glyph name="dcroat.sc" format="1">
  <advance width="686"/>
  <outline>
    <contour>
      <point x="336" y="0" type="line" smooth="yes"/>
      <point x="539" y="0"/>
      <point x="668" y="113"/>
      <point x="668" y="292" type="curve" smooth="yes"/>
      <point x="668" y="470"/>
      <point x="542" y="582"/>
      <point x="345" y="582" type="curve" smooth="yes"/>
      <point x="77" y="582" type="line"/>
      <point x="77" y="0" type="line"/>
    </contour>
    <contour>
      <point x="392" y="248" type="line"/>
      <point x="392" y="335" type="line"/>
      <point x="27" y="335" type="line"/>
      <point x="27" y="248" type="line"/>
    </contour>
    <contour>
      <point x="291" y="418" type="line"/>
      <point x="340" y="418" type="line" smooth="yes"/>
      <point x="408" y="418"/>
      <point x="449" y="368"/>
      <point x="449" y="290" type="curve" smooth="yes"/>
      <point x="449" y="212"/>
      <point x="412" y="164"/>
      <point x="350" y="164" type="curve" smooth="yes"/>
      <point x="291" y="164" type="line"/>
    </contour>
    <contour>
      <point x="193" y="292" type="move" name="center"/>
    </contour>
    <contour>
      <point x="344" y="0" type="move" name="bottom"/>
    </contour>
    <contour>
      <point x="336" y="582" type="move" name="top"/>
    </contour>
  </outline>
</glyph>
<glyph name="dieresiscomb.case" format="1">
  <advance width="600"/>
  <outline>
    <component base="dieresiscomb" yOffset="150"/>
    <contour>
      <point x="300" y="700" type="move" name="_top"/>
    </contour>
  </outline>
</glyph>
<glyph name="dieresiscomb.loclVIET" format="1">
  <advance width="600"/>
  <outline>
    <contour>
      <point x="454" y="599"/>
      <point x="491" y="632"/>
      <point x="491" y="682" type="curve" smooth="yes"/>
      <point x="491" y="732"/>
      <point x="454" y="766"/>
      <point x="406" y="766" type="curve" smooth="yes"/>
      <point x="358" y="766"/>
      <point x="321" y="732"/>
      <point x="321" y="682" type="curve" smooth="yes"/>
      <point x="321" y="632"/>
      <point x="358" y="599"/>
      <point x="406" y="599" type="curve" smooth="yes"/>
    </contour>
    <contour>
      <point x="242" y="599"/>
      <point x="279" y="632"/>
      <point x="279" y="682" type="curve" smooth="yes"/>
      <point x="279" y="732"/>
      <point x="242" y="766"/>
      <point x="194" y="766" type="curve" smooth="yes"/>
      <point x="146" y="766"/>
      <point x="109" y="732"/>
      <point x="109" y="682" type="curve" smooth="yes"/>
      <point x="109" y="632"/>
      <point x="146" y="599"/>
      <point x="194" y="599" type="curve" smooth="yes"/>
    </contour>
    <contour>
      <point x="300" y="730" type="move" name="top"/>
    </contour>
    <contour>
      <point x="300" y="547" type="move" name="_top"/>
    </contour>
  </outline>
</glyph>
<glyph name="dieresiscomb.narrow" format="1">
  <advance width="600"/>
  <outline>
    <contour>
      <point x="440" y="599"/>
      <point x="476" y="634"/>
      <point x="476" y="687" type="curve" smooth="yes"/>
      <point x="476" y="740"/>
      <point x="440" y="776"/>
      <point x="394" y="776" type="curve" smooth="yes"/>
      <point x="347" y="776"/>
      <point x="311" y="740"/>
      <point x="311" y="687" type="curve" smooth="yes"/>
      <point x="311" y="634"/>
      <point x="347" y="599"/>
      <point x="394" y="599" type="curve" smooth="yes"/>
    </contour>
    <contour>
      <point x="253" y="599"/>
      <point x="289" y="634"/>
      <point x="289" y="687" type="curve" smooth="yes"/>
      <point x="289" y="740"/>
      <point x="253" y="776"/>
      <point x="207" y="776" type="curve" smooth="yes"/>
      <point x="160" y="776"/>
      <point x="124" y="740"/>
      <point x="124" y="687" type="curve" smooth="yes"/>
      <point x="124" y="634"/>
      <point x="160" y="599"/>
      <point x="207" y="599" type="curve" smooth="yes"/>
    </contour>
    <contour>
      <point x="300" y="740" type="move" name="top"/>
    </contour>
    <contour>
      <point x="300" y="547" type="move" name="_top"/>
    </contour>
  </outline>
</glyph>
